<?xml version="1.0" encoding="utf-8"?>
<!-- Generator: Adobe Illustrator 16.0.0, SVG Export Plug-In . SVG Version: 6.00 Build 0)  -->
<!DOCTYPE svg PUBLIC "-//W3C//DTD SVG 1.1//EN" "http://www.w3.org/Graphics/SVG/1.1/DTD/svg11.dtd">
<svg version="1.1" id="Layer_1" xmlns="http://www.w3.org/2000/svg" xmlns:xlink="http://www.w3.org/1999/xlink" x="0px" y="0px"
	 width="512px" height="512px" viewBox="0 0 512 512" enable-background="new 0 0 512 512" xml:space="preserve">
<polygon fill="#CBCBCB" points="39.799,74.341 123.453,74.341 123.453,127.785 202.457,127.785 202.457,73.179 309.926,73.179 
	309.926,125.46 386.867,125.46 386.867,73.179 472.584,73.179 472.584,308.45 435.985,308.45 435.985,182.812 76.398,182.812 
	76.398,426.382 343.617,426.382 343.617,328.2 469.098,328.2 469.098,352.604 358.727,462.974 40.381,462.974 "/>
<rect x="135.07" y="32.515" fill="#CBCBCB" width="53.445" height="82.49"/>
<rect x="322.707" y="32.515" fill="#CBCBCB" width="53.445" height="82.49"/>
<rect x="112.994" y="212.6" fill="#CBCBCB" width="75.521" height="75.521"/>
<rect x="221.046" y="212.6" fill="#CBCBCB" width="75.521" height="75.521"/>
<rect x="221.046" y="318.912" fill="#CBCBCB" width="75.521" height="75.515"/>
<rect x="329.101" y="212.6" fill="#CBCBCB" width="75.514" height="75.521"/>
<path fill="#CBCBCB" d="M111.833,318.912v75.515h75.521v-75.515H111.833z M176.895,381.652h-54.024v-50.287h54.024V381.652z"/>
</svg>
