<?xml version="1.0" encoding="utf-8"?>
<!-- Generator: Adobe Illustrator 27.5.0, SVG Export Plug-In . SVG Version: 6.00 Build 0)  -->
<svg version="1.1" xmlns="http://www.w3.org/2000/svg" xmlns:xlink="http://www.w3.org/1999/xlink" x="0px" y="0px"
	 viewBox="0 0 240 140" style="enable-background:new 0 0 240 140;" xml:space="preserve">
<style type="text/css">
	.st0{display:none;}
	.st1{display:inline;fill:#AFEA3D;stroke:#068989;stroke-width:2.795;stroke-miterlimit:10;}
	.st2{display:inline;}
	.st3{fill:#068989;}
	.st4{display:inline;fill:#068989;}
	.st5{display:inline;fill:#AFEA3D;}
	.st6{display:inline;fill:#44D8D4;stroke:#132F59;stroke-width:2.795;stroke-miterlimit:10;}
	.st7{fill:#132F59;}
	.st8{display:inline;fill:#132F59;}
	.st9{display:inline;fill:#44D8D4;}
	.st10{display:inline;fill:#FCFCFC;stroke:#073047;stroke-width:2.795;stroke-miterlimit:10;}
	.st11{fill:#073047;}
	.st12{display:inline;fill:#073047;}
	.st13{display:inline;fill:#FCFCFC;}
	.st14{fill:#FCFCFC;stroke:#B20536;stroke-width:2.8534;stroke-miterlimit:10;}
	.st15{fill:#B20536;}
	.st16{fill:#FCFCFC;}
	.st17{display:inline;fill:none;stroke:#132F59;stroke-width:2.795;stroke-miterlimit:10;}
	.st18{display:inline;fill:#FFFFFF;}
</style>
<g id="Green" class="st0">
	<path class="st1" d="M181.3,6.7c-11.6,0-22.3,3.9-30.9,10.4c-8.6-6.5-19.3-10.4-30.9-10.4c-11.4,0-21.9,3.7-30.4,10
		c-8.5-6.3-19-10-30.4-10C30.4,6.7,7.5,29.7,7.5,57.9c0,28.3,22.9,51.2,51.2,51.2c11.4,0,21.9-3.7,30.4-10c8.5,6.3,19,10,30.4,10
		c11.6,0,22.3-3.9,30.9-10.4c8.6,6.5,19.3,10.4,30.9,10.4c28.3,0,51.2-22.9,51.2-51.2C232.5,29.7,209.6,6.7,181.3,6.7z"/>
	<g class="st2">
		<path class="st3" d="M15.6,121.8h3.9c3.6,0,6,2.5,6,6.3v0.2c0,3.7-2.4,6.3-6,6.3h-3.9V121.8z M19.6,132.6c2.2,0,3.8-1.6,3.8-4.3
			V128c0-2.7-1.6-4.4-3.8-4.4h-1.8v8.9H19.6z"/>
		<path class="st3" d="M30.8,121.7h2l4.6,12.8h-2.2l-1.1-3h-4.9l-1.1,3h-2.1L30.8,121.7z M33.6,129.6l-1.8-5.1l-1.8,5.1H33.6z"/>
		<path class="st3" d="M39.3,121.8h1.9l5.6,8.4v-8.4h2.1v12.7h-1.8l-5.7-8.7v8.7h-2V121.8z"/>
		<path class="st3" d="M56.3,121.8h4.5c2.4,0,4.1,1.2,4.1,3.3c0,1.6-0.9,2.4-1.9,2.8c1.4,0.5,2.4,1.3,2.4,3c0,2.3-1.8,3.5-4.5,3.5
			h-4.6V121.8z M60.6,127.2c1.4,0,2.3-0.6,2.3-1.8c0-1.1-0.8-1.7-2.1-1.7h-2.3v3.5H60.6z M61,132.6c1.5,0,2.4-0.6,2.4-1.8
			c0-1.2-0.9-1.8-2.5-1.8h-2.5v3.6H61z"/>
		<path class="st3" d="M67.6,121.8h8v1.9h-5.9v3.4h5.2v1.9h-5.2v3.5h6v1.9h-8V121.8z"/>
		<path class="st3" d="M77.9,121.8h4.5c2.7,0,4.5,1.5,4.5,4c0,2-1.1,3.2-2.6,3.7l3,4.9h-2.4l-2.7-4.5c0,0-0.7,0-0.7,0H80v4.5h-2.1
			V121.8z M82.4,128.1c1.5,0,2.4-0.8,2.4-2.3c0-1.5-1-2.2-2.5-2.2H80v4.4H82.4z"/>
		<path class="st3" d="M89.2,121.8h1.9l5.6,8.4v-8.4h2.1v12.7H97l-5.7-8.7v8.7h-2V121.8z"/>
		<path class="st3" d="M100.9,133l0.9-1.7c1.1,0.9,2.1,1.4,3.4,1.4c1.2,0,2-0.6,2-1.5c0-0.9-0.4-1.3-2.4-2.2c-2.4-1-3.6-1.8-3.6-3.9
			c0-2.1,1.6-3.5,3.9-3.5c1.5,0,2.7,0.4,3.8,1.2l-0.8,1.8c-1-0.7-1.9-1.1-3-1.1c-1.1,0-1.8,0.6-1.8,1.5c0,0.9,0.5,1.3,2.5,2.2
			c2.4,1,3.5,2,3.5,3.9c0,2.2-1.7,3.6-4,3.6C103.6,134.6,102.1,134.1,100.9,133z"/>
		<path class="st3" d="M113.7,123.7h-3.3v-2h8.8v2h-3.3v10.7h-2.1V123.7z"/>
		<path class="st3" d="M120.1,128.2V128c0-3.8,2.3-6.5,5.6-6.5c3.3,0,5.6,2.7,5.6,6.4v0.2c0,3.8-2.3,6.5-5.6,6.5
			C122.4,134.7,120.1,132,120.1,128.2z M129.1,128.2V128c0-2.8-1.4-4.5-3.5-4.5c-2,0-3.4,1.8-3.4,4.5v0.2c0,2.8,1.4,4.5,3.4,4.5
			C127.7,132.7,129.1,131,129.1,128.2z"/>
		<path class="st3" d="M133.6,121.8h1.9l5.6,8.4v-8.4h2.1v12.7h-1.8l-5.7-8.7v8.7h-2V121.8z"/>
		<path class="st3" d="M146,121.8h8v1.9H148v3.4h5.2v1.9H148v3.5h6v1.9h-8V121.8z"/>
		<path class="st3" d="M160,121.8h2.3l3.1,9.6l3.1-9.6h2.2l-4.4,12.8h-1.9L160,121.8z"/>
		<path class="st3" d="M171.4,128.2V128c0-3.8,2.3-6.5,5.6-6.5c3.3,0,5.6,2.7,5.6,6.4v0.2c0,3.8-2.3,6.5-5.6,6.5
			C173.7,134.7,171.4,132,171.4,128.2z M180.5,128.2V128c0-2.8-1.4-4.5-3.5-4.5c-2,0-3.4,1.8-3.4,4.5v0.2c0,2.8,1.4,4.5,3.4,4.5
			C179,132.7,180.5,131,180.5,128.2z"/>
		<path class="st3" d="M185,121.8h2.1v12.7H185V121.8z"/>
		<path class="st3" d="M189.5,128.2V128c0-3.8,2.4-6.5,5.7-6.5c1.8,0,2.9,0.6,3.9,1.5l-1,1.7c-0.8-0.7-1.7-1.2-2.8-1.2
			c-2,0-3.5,1.7-3.5,4.5v0.2c0,2.8,1.5,4.5,3.5,4.5c1.2,0,2-0.5,2.9-1.3l1,1.5c-1.1,1-2.2,1.7-4.1,1.7
			C191.9,134.6,189.5,132,189.5,128.2z"/>
		<path class="st3" d="M201.3,121.8h2.1v12.7h-2.1V121.8z"/>
		<path class="st3" d="M206.3,121.8h1.9l5.6,8.4v-8.4h2.1v12.7h-1.8l-5.7-8.7v8.7h-2V121.8z"/>
		<path class="st3" d="M218.1,128.2V128c0-3.7,2.4-6.5,5.8-6.5c1.8,0,2.9,0.5,3.9,1.3l-1,1.8c-0.9-0.7-1.7-1.1-3-1.1
			c-2,0-3.6,1.8-3.6,4.5v0.2c0,2.9,1.5,4.5,3.7,4.5c0.9,0,1.6-0.3,2.3-0.7v-2.8h-2.7v-1.8h4.7v5.7c-1.1,0.9-2.5,1.5-4.3,1.5
			C220.5,134.6,218.1,132.1,218.1,128.2z"/>
	</g>
	<path class="st4" d="M163.9,57.9c0,23.9-19.4,43.3-43.3,43.3c-23.9,0-43.3-19.4-43.3-43.3s19.4-43.3,43.3-43.3
		C144.5,14.6,163.9,34,163.9,57.9z"/>
	<ellipse transform="matrix(0.7071 -0.7071 0.7071 0.7071 -23.7781 58.464)" class="st4" cx="58.7" cy="57.9" rx="43.3" ry="43.3"/>
	<path class="st4" d="M224.6,57.9c0,23.9-19.4,43.3-43.3,43.3c-23.9,0-43.3-19.4-43.3-43.3s19.4-43.3,43.3-43.3
		C205.2,14.6,224.6,34,224.6,57.9z"/>
	<path class="st5" d="M67.5,19.9c9.2,0,15.8,2.3,19.8,7c2.9,3.5,4.3,7.9,4.3,13.2c0,1.9-0.2,3.9-0.5,6L87,69.8
		c-1.4,8-4.9,14.3-10.4,19.1c-5.5,4.8-12.6,7.2-21.4,7.2l-28.3,0l-1.2-1l-1-0.9l13.1-74.3H67.5z M60.8,36.4H54l-7.5,43.1h10
		c3.3,0,5.9-0.9,7.8-2.7c1.9-1.8,3.2-4.7,3.9-8.8l3.1-17.3c0.3-1.5,0.4-3,0.4-4.2C71.6,39.8,68,36.4,60.8,36.4z"/>
	<path class="st5" d="M132.3,20.1c8,0,13.9,1.8,17.3,5.4c2.5,2.7,3.7,6,3.7,10.1c0,1.4-0.1,2.9-0.4,4.4l-1,5.1
		c-0.8,4-2.3,7.2-4.5,9.4c-2.2,2.3-4.2,3.4-5.9,3.4l-0.1,0.8c2,0,4,1.1,6,3.3c2,2.2,3.1,4.8,3.1,7.7c0,1.2-0.1,2.5-0.4,3.8l-0.6,3.3
		c-1.1,6.1-3.8,10.8-8.1,14.3c-4.3,3.5-10.2,5.2-17.8,5.2H88.2l13.4-76.1H132.3z M122.8,65.1h-10l-2.5,14.6h10c0.1,0,0.3,0,0.4,0
		c3.2,0,5.8-0.8,7.7-2.3c1.9-1.5,2.9-3.4,2.9-5.6C131.2,67.4,128.4,65.1,122.8,65.1z M125.6,36.6h-7.9l-2.7,15.8h7.8
		c6.8,0,10.2-3,10.2-8.9c0-2-0.6-3.7-1.9-5C129.8,37.2,128,36.6,125.6,36.6z"/>
	<path class="st5" d="M181.5,77.6l20.2-58l11.9,0.4l3.3,3.1l2.9,3.2l-26.5,69.8h-33.8l-0.8-76.1h20.7l-0.3,57.6H181.5z"/>
</g>
<g id="Blue" class="st0">
	<path class="st6" d="M181.3,6.7c-11.6,0-22.3,3.9-30.9,10.4c-8.6-6.5-19.3-10.4-30.9-10.4c-11.4,0-21.9,3.7-30.4,10
		c-8.5-6.3-19-10-30.4-10C30.4,6.7,7.5,29.7,7.5,57.9c0,28.3,22.9,51.2,51.2,51.2c11.4,0,21.9-3.7,30.4-10c8.5,6.3,19,10,30.4,10
		c11.6,0,22.3-3.9,30.9-10.4c8.6,6.5,19.3,10.4,30.9,10.4c28.3,0,51.2-22.9,51.2-51.2C232.5,29.7,209.6,6.7,181.3,6.7z"/>
	<g class="st2">
		<path class="st7" d="M15.6,121.8h3.9c3.6,0,6,2.5,6,6.3v0.2c0,3.7-2.4,6.3-6,6.3h-3.9V121.8z M19.6,132.6c2.2,0,3.8-1.6,3.8-4.3
			V128c0-2.7-1.6-4.4-3.8-4.4h-1.8v8.9H19.6z"/>
		<path class="st7" d="M30.8,121.7h2l4.6,12.8h-2.2l-1.1-3h-4.9l-1.1,3h-2.1L30.8,121.7z M33.6,129.6l-1.8-5.1l-1.8,5.1H33.6z"/>
		<path class="st7" d="M39.3,121.8h1.9l5.6,8.4v-8.4h2.1v12.7h-1.8l-5.7-8.7v8.7h-2V121.8z"/>
		<path class="st7" d="M56.3,121.8h4.5c2.4,0,4.1,1.2,4.1,3.3c0,1.6-0.9,2.4-1.9,2.8c1.4,0.5,2.4,1.3,2.4,3c0,2.3-1.8,3.5-4.5,3.5
			h-4.6V121.8z M60.6,127.2c1.4,0,2.3-0.6,2.3-1.8c0-1.1-0.8-1.7-2.1-1.7h-2.3v3.5H60.6z M61,132.6c1.5,0,2.4-0.6,2.4-1.8
			c0-1.2-0.9-1.8-2.5-1.8h-2.5v3.6H61z"/>
		<path class="st7" d="M67.6,121.8h8v1.9h-5.9v3.4h5.2v1.9h-5.2v3.5h6v1.9h-8V121.8z"/>
		<path class="st7" d="M77.9,121.8h4.5c2.7,0,4.5,1.5,4.5,4c0,2-1.1,3.2-2.6,3.7l3,4.9h-2.4l-2.7-4.5c0,0-0.7,0-0.7,0H80v4.5h-2.1
			V121.8z M82.4,128.1c1.5,0,2.4-0.8,2.4-2.3c0-1.5-1-2.2-2.5-2.2H80v4.4H82.4z"/>
		<path class="st7" d="M89.2,121.8h1.9l5.6,8.4v-8.4h2.1v12.7H97l-5.7-8.7v8.7h-2V121.8z"/>
		<path class="st7" d="M100.9,133l0.9-1.7c1.1,0.9,2.1,1.4,3.4,1.4c1.2,0,2-0.6,2-1.5c0-0.9-0.4-1.3-2.4-2.2c-2.4-1-3.6-1.8-3.6-3.9
			c0-2.1,1.6-3.5,3.9-3.5c1.5,0,2.7,0.4,3.8,1.2l-0.8,1.8c-1-0.7-1.9-1.1-3-1.1c-1.1,0-1.8,0.6-1.8,1.5c0,0.9,0.5,1.3,2.5,2.2
			c2.4,1,3.5,2,3.5,3.9c0,2.2-1.7,3.6-4,3.6C103.6,134.6,102.1,134.1,100.9,133z"/>
		<path class="st7" d="M113.7,123.7h-3.3v-2h8.8v2h-3.3v10.7h-2.1V123.7z"/>
		<path class="st7" d="M120.1,128.2V128c0-3.8,2.3-6.5,5.6-6.5c3.3,0,5.6,2.7,5.6,6.4v0.2c0,3.8-2.3,6.5-5.6,6.5
			C122.4,134.7,120.1,132,120.1,128.2z M129.1,128.2V128c0-2.8-1.4-4.5-3.5-4.5c-2,0-3.4,1.8-3.4,4.5v0.2c0,2.8,1.4,4.5,3.4,4.5
			C127.7,132.7,129.1,131,129.1,128.2z"/>
		<path class="st7" d="M133.6,121.8h1.9l5.6,8.4v-8.4h2.1v12.7h-1.8l-5.7-8.7v8.7h-2V121.8z"/>
		<path class="st7" d="M146,121.8h8v1.9H148v3.4h5.2v1.9H148v3.5h6v1.9h-8V121.8z"/>
		<path class="st7" d="M160,121.8h2.3l3.1,9.6l3.1-9.6h2.2l-4.4,12.8h-1.9L160,121.8z"/>
		<path class="st7" d="M171.4,128.2V128c0-3.8,2.3-6.5,5.6-6.5c3.3,0,5.6,2.7,5.6,6.4v0.2c0,3.8-2.3,6.5-5.6,6.5
			C173.7,134.7,171.4,132,171.4,128.2z M180.5,128.2V128c0-2.8-1.4-4.5-3.5-4.5c-2,0-3.4,1.8-3.4,4.5v0.2c0,2.8,1.4,4.5,3.4,4.5
			C179,132.7,180.5,131,180.5,128.2z"/>
		<path class="st7" d="M185,121.8h2.1v12.7H185V121.8z"/>
		<path class="st7" d="M189.5,128.2V128c0-3.8,2.4-6.5,5.7-6.5c1.8,0,2.9,0.6,3.9,1.5l-1,1.7c-0.8-0.7-1.7-1.2-2.8-1.2
			c-2,0-3.5,1.7-3.5,4.5v0.2c0,2.8,1.5,4.5,3.5,4.5c1.2,0,2-0.5,2.9-1.3l1,1.5c-1.1,1-2.2,1.7-4.1,1.7
			C191.9,134.6,189.5,132,189.5,128.2z"/>
		<path class="st7" d="M201.3,121.8h2.1v12.7h-2.1V121.8z"/>
		<path class="st7" d="M206.3,121.8h1.9l5.6,8.4v-8.4h2.1v12.7h-1.8l-5.7-8.7v8.7h-2V121.8z"/>
		<path class="st7" d="M218.1,128.2V128c0-3.7,2.4-6.5,5.8-6.5c1.8,0,2.9,0.5,3.9,1.3l-1,1.8c-0.9-0.7-1.7-1.1-3-1.1
			c-2,0-3.6,1.8-3.6,4.5v0.2c0,2.9,1.5,4.5,3.7,4.5c0.9,0,1.6-0.3,2.3-0.7v-2.8h-2.7v-1.8h4.7v5.7c-1.1,0.9-2.5,1.5-4.3,1.5
			C220.5,134.6,218.1,132.1,218.1,128.2z"/>
	</g>
	<path class="st8" d="M163.9,57.9c0,23.9-19.4,43.3-43.3,43.3c-23.9,0-43.3-19.4-43.3-43.3s19.4-43.3,43.3-43.3
		C144.5,14.6,163.9,34,163.9,57.9z"/>
	<ellipse transform="matrix(0.7071 -0.7071 0.7071 0.7071 -23.7781 58.464)" class="st8" cx="58.7" cy="57.9" rx="43.3" ry="43.3"/>
	<path class="st8" d="M224.6,57.9c0,23.9-19.4,43.3-43.3,43.3c-23.9,0-43.3-19.4-43.3-43.3s19.4-43.3,43.3-43.3
		C205.2,14.6,224.6,34,224.6,57.9z"/>
	<path class="st9" d="M67.5,19.9c9.2,0,15.8,2.3,19.8,7c2.9,3.5,4.3,7.9,4.3,13.2c0,1.9-0.2,3.9-0.5,6L87,69.8
		c-1.4,8-4.9,14.3-10.4,19.1c-5.5,4.8-12.6,7.2-21.4,7.2l-28.3,0l-1.2-1l-1-0.9l13.1-74.3H67.5z M60.8,36.4H54l-7.5,43.1h10
		c3.3,0,5.9-0.9,7.8-2.7c1.9-1.8,3.2-4.7,3.9-8.8l3.1-17.3c0.3-1.5,0.4-3,0.4-4.2C71.6,39.8,68,36.4,60.8,36.4z"/>
	<path class="st9" d="M132.3,20.1c8,0,13.9,1.8,17.3,5.4c2.5,2.7,3.7,6,3.7,10.1c0,1.4-0.1,2.9-0.4,4.4l-1,5.1
		c-0.8,4-2.3,7.2-4.5,9.4c-2.2,2.3-4.2,3.4-5.9,3.4l-0.1,0.8c2,0,4,1.1,6,3.3c2,2.2,3.1,4.8,3.1,7.7c0,1.2-0.1,2.5-0.4,3.8l-0.6,3.3
		c-1.1,6.1-3.8,10.8-8.1,14.3c-4.3,3.5-10.2,5.2-17.8,5.2H88.2l13.4-76.1H132.3z M122.8,65.1h-10l-2.5,14.6h10c0.1,0,0.3,0,0.4,0
		c3.2,0,5.8-0.8,7.7-2.3c1.9-1.5,2.9-3.4,2.9-5.6C131.2,67.4,128.4,65.1,122.8,65.1z M125.6,36.6h-7.9l-2.7,15.8h7.8
		c6.8,0,10.2-3,10.2-8.9c0-2-0.6-3.7-1.9-5C129.8,37.2,128,36.6,125.6,36.6z"/>
	<path class="st9" d="M181.5,77.6l20.2-58l10.9,0.4l3.6,3.2l3.4,3.8l-26.3,69.1h-33.8l-0.8-76.1h20.7l-0.3,57.6H181.5z"/>
</g>
<g id="White" class="st0">
	<path class="st10" d="M181.3,6.7c-11.6,0-22.3,3.9-30.9,10.4c-8.6-6.5-19.3-10.4-30.9-10.4c-11.4,0-21.9,3.7-30.4,10
		c-8.5-6.3-19-10-30.4-10C30.4,6.7,7.5,29.7,7.5,57.9c0,28.3,22.9,51.2,51.2,51.2c11.4,0,21.9-3.7,30.4-10c8.5,6.3,19,10,30.4,10
		c11.6,0,22.3-3.9,30.9-10.4c8.6,6.5,19.3,10.4,30.9,10.4c28.3,0,51.2-22.9,51.2-51.2C232.5,29.7,209.6,6.7,181.3,6.7z"/>
	<g class="st2">
		<path class="st11" d="M15.6,121.8h3.9c3.6,0,6,2.5,6,6.3v0.2c0,3.7-2.4,6.3-6,6.3h-3.9V121.8z M19.6,132.6c2.2,0,3.8-1.6,3.8-4.3
			V128c0-2.7-1.6-4.4-3.8-4.4h-1.8v8.9H19.6z"/>
		<path class="st11" d="M30.8,121.7h2l4.6,12.8h-2.2l-1.1-3h-4.9l-1.1,3h-2.1L30.8,121.7z M33.6,129.6l-1.8-5.1l-1.8,5.1H33.6z"/>
		<path class="st11" d="M39.3,121.8h1.9l5.6,8.4v-8.4h2.1v12.7h-1.8l-5.7-8.7v8.7h-2V121.8z"/>
		<path class="st11" d="M56.3,121.8h4.5c2.4,0,4.1,1.2,4.1,3.3c0,1.6-0.9,2.4-1.9,2.8c1.4,0.5,2.4,1.3,2.4,3c0,2.3-1.8,3.5-4.5,3.5
			h-4.6V121.8z M60.6,127.2c1.4,0,2.3-0.6,2.3-1.8c0-1.1-0.8-1.7-2.1-1.7h-2.3v3.5H60.6z M61,132.6c1.5,0,2.4-0.6,2.4-1.8
			c0-1.2-0.9-1.8-2.5-1.8h-2.5v3.6H61z"/>
		<path class="st11" d="M67.6,121.8h8v1.9h-5.9v3.4h5.2v1.9h-5.2v3.5h6v1.9h-8V121.8z"/>
		<path class="st11" d="M77.9,121.8h4.5c2.7,0,4.5,1.5,4.5,4c0,2-1.1,3.2-2.6,3.7l3,4.9h-2.4l-2.7-4.5c0,0-0.7,0-0.7,0H80v4.5h-2.1
			V121.8z M82.4,128.1c1.5,0,2.4-0.8,2.4-2.3c0-1.5-1-2.2-2.5-2.2H80v4.4H82.4z"/>
		<path class="st11" d="M89.2,121.8h1.9l5.6,8.4v-8.4h2.1v12.7H97l-5.7-8.7v8.7h-2V121.8z"/>
		<path class="st11" d="M100.9,133l0.9-1.7c1.1,0.9,2.1,1.4,3.4,1.4c1.2,0,2-0.6,2-1.5c0-0.9-0.4-1.3-2.4-2.2
			c-2.4-1-3.6-1.8-3.6-3.9c0-2.1,1.6-3.5,3.9-3.5c1.5,0,2.7,0.4,3.8,1.2l-0.8,1.8c-1-0.7-1.9-1.1-3-1.1c-1.1,0-1.8,0.6-1.8,1.5
			c0,0.9,0.5,1.3,2.5,2.2c2.4,1,3.5,2,3.5,3.9c0,2.2-1.7,3.6-4,3.6C103.6,134.6,102.1,134.1,100.9,133z"/>
		<path class="st11" d="M113.7,123.7h-3.3v-2h8.8v2h-3.3v10.7h-2.1V123.7z"/>
		<path class="st11" d="M120.1,128.2V128c0-3.8,2.3-6.5,5.6-6.5c3.3,0,5.6,2.7,5.6,6.4v0.2c0,3.8-2.3,6.5-5.6,6.5
			C122.4,134.7,120.1,132,120.1,128.2z M129.1,128.2V128c0-2.8-1.4-4.5-3.5-4.5c-2,0-3.4,1.8-3.4,4.5v0.2c0,2.8,1.4,4.5,3.4,4.5
			C127.7,132.7,129.1,131,129.1,128.2z"/>
		<path class="st11" d="M133.6,121.8h1.9l5.6,8.4v-8.4h2.1v12.7h-1.8l-5.7-8.7v8.7h-2V121.8z"/>
		<path class="st11" d="M146,121.8h8v1.9H148v3.4h5.2v1.9H148v3.5h6v1.9h-8V121.8z"/>
		<path class="st11" d="M160,121.8h2.3l3.1,9.6l3.1-9.6h2.2l-4.4,12.8h-1.9L160,121.8z"/>
		<path class="st11" d="M171.4,128.2V128c0-3.8,2.3-6.5,5.6-6.5c3.3,0,5.6,2.7,5.6,6.4v0.2c0,3.8-2.3,6.5-5.6,6.5
			C173.7,134.7,171.4,132,171.4,128.2z M180.5,128.2V128c0-2.8-1.4-4.5-3.5-4.5c-2,0-3.4,1.8-3.4,4.5v0.2c0,2.8,1.4,4.5,3.4,4.5
			C179,132.7,180.5,131,180.5,128.2z"/>
		<path class="st11" d="M185,121.8h2.1v12.7H185V121.8z"/>
		<path class="st11" d="M189.5,128.2V128c0-3.8,2.4-6.5,5.7-6.5c1.8,0,2.9,0.6,3.9,1.5l-1,1.7c-0.8-0.7-1.7-1.2-2.8-1.2
			c-2,0-3.5,1.7-3.5,4.5v0.2c0,2.8,1.5,4.5,3.5,4.5c1.2,0,2-0.5,2.9-1.3l1,1.5c-1.1,1-2.2,1.7-4.1,1.7
			C191.9,134.6,189.5,132,189.5,128.2z"/>
		<path class="st11" d="M201.3,121.8h2.1v12.7h-2.1V121.8z"/>
		<path class="st11" d="M206.3,121.8h1.9l5.6,8.4v-8.4h2.1v12.7h-1.8l-5.7-8.7v8.7h-2V121.8z"/>
		<path class="st11" d="M218.1,128.2V128c0-3.7,2.4-6.5,5.8-6.5c1.8,0,2.9,0.5,3.9,1.3l-1,1.8c-0.9-0.7-1.7-1.1-3-1.1
			c-2,0-3.6,1.8-3.6,4.5v0.2c0,2.9,1.5,4.5,3.7,4.5c0.9,0,1.6-0.3,2.3-0.7v-2.8h-2.7v-1.8h4.7v5.7c-1.1,0.9-2.5,1.5-4.3,1.5
			C220.5,134.6,218.1,132.1,218.1,128.2z"/>
	</g>
	<path class="st12" d="M163.9,57.9c0,23.9-19.4,43.3-43.3,43.3c-23.9,0-43.3-19.4-43.3-43.3s19.4-43.3,43.3-43.3
		C144.5,14.6,163.9,34,163.9,57.9z"/>
	
		<ellipse transform="matrix(0.7071 -0.7071 0.7071 0.7071 -23.7781 58.464)" class="st12" cx="58.7" cy="57.9" rx="43.3" ry="43.3"/>
	<path class="st12" d="M224.6,57.9c0,23.9-19.4,43.3-43.3,43.3c-23.9,0-43.3-19.4-43.3-43.3s19.4-43.3,43.3-43.3
		C205.2,14.6,224.6,34,224.6,57.9z"/>
	<path class="st13" d="M67.5,19.9c9.2,0,15.8,2.3,19.8,7c2.9,3.5,4.3,7.9,4.3,13.2c0,1.9-0.2,3.9-0.5,6L87,69.8
		c-1.4,8-4.9,14.3-10.4,19.1c-5.5,4.8-12.6,7.2-21.4,7.2l-28.3,0l-1.2-1l-1-0.9l13.1-74.3H67.5z M60.8,36.4H54l-7.5,43.1h10
		c3.3,0,5.9-0.9,7.8-2.7c1.9-1.8,3.2-4.7,3.9-8.8l3.1-17.3c0.3-1.5,0.4-3,0.4-4.2C71.6,39.8,68,36.4,60.8,36.4z"/>
	<path class="st13" d="M132.3,20.1c8,0,13.9,1.8,17.3,5.4c2.5,2.7,3.7,6,3.7,10.1c0,1.4-0.1,2.9-0.4,4.4l-1,5.1
		c-0.8,4-2.3,7.2-4.5,9.4c-2.2,2.3-4.2,3.4-5.9,3.4l-0.1,0.8c2,0,4,1.1,6,3.3c2,2.2,3.1,4.8,3.1,7.7c0,1.2-0.1,2.5-0.4,3.8l-0.6,3.3
		c-1.1,6.1-3.8,10.8-8.1,14.3c-4.3,3.5-10.2,5.2-17.8,5.2H88.2l13.4-76.1H132.3z M122.8,65.1h-10l-2.5,14.6h10c0.1,0,0.3,0,0.4,0
		c3.2,0,5.8-0.8,7.7-2.3c1.9-1.5,2.9-3.4,2.9-5.6C131.2,67.4,128.4,65.1,122.8,65.1z M125.6,36.6h-7.9l-2.7,15.8h7.8
		c6.8,0,10.2-3,10.2-8.9c0-2-0.6-3.7-1.9-5C129.8,37.2,128,36.6,125.6,36.6z"/>
	<path class="st13" d="M181.5,77.6l20.2-58l10.9,0.4l3.6,3.2l3.4,3.8l-26.3,69.1h-33.8l-0.8-76.1h20.7l-0.3,57.6H181.5z"/>
</g>
<g id="Red">
	<path class="st14" d="M182.4,5.2c-11.8,0-22.7,4-31.5,10.7c-8.7-6.7-19.7-10.7-31.5-10.7c-11.6,0-22.3,3.8-30.9,10.2
		C79.9,9,69.2,5.2,57.6,5.2C28.8,5.2,5.5,28.7,5.5,57.6c0,29,23.3,52.4,52.1,52.4c11.6,0,22.3-3.8,30.9-10.2
		c8.7,6.4,19.3,10.2,30.9,10.2c11.8,0,22.7-4,31.5-10.7c8.7,6.7,19.7,10.7,31.5,10.7c28.8,0,52.1-23.5,52.1-52.4
		C234.5,28.7,211.2,5.2,182.4,5.2z"/>
	<g>
		<path class="st15" d="M13.8,123h3.9c3.7,0,6.1,2.6,6.1,6.4v0.2c0,3.8-2.5,6.4-6.1,6.4h-3.9V123z M17.8,134c2.3,0,3.9-1.7,3.9-4.5
			v-0.2c0-2.8-1.6-4.5-3.9-4.5h-1.9v9.1H17.8z"/>
		<path class="st15" d="M29.2,122.9h2.1L36,136h-2.2l-1.1-3.1h-5l-1.1,3.1h-2.1L29.2,122.9z M32.1,131l-1.8-5.2l-1.8,5.2H32.1z"/>
		<path class="st15" d="M37.9,123h2l5.7,8.7V123h2.1v13h-1.8l-5.8-8.9v8.9h-2.1V123z"/>
		<path class="st15" d="M55.2,123h4.6c2.5,0,4.2,1.2,4.2,3.4c0,1.6-0.9,2.5-1.9,2.9c1.4,0.5,2.5,1.4,2.5,3.1c0,2.4-1.8,3.6-4.6,3.6
			h-4.7V123z M59.5,128.5c1.4,0,2.3-0.6,2.3-1.8c0-1.2-0.8-1.8-2.2-1.8h-2.4v3.6H59.5z M60,134.1c1.5,0,2.4-0.7,2.4-1.9
			c0-1.2-0.9-1.9-2.5-1.9h-2.6v3.7H60z"/>
		<path class="st15" d="M66.7,123h8.1v1.9h-6v3.5h5.3v1.9h-5.3v3.6h6.1v1.9h-8.2V123z"/>
		<path class="st15" d="M77.2,123h4.6c2.8,0,4.5,1.5,4.5,4.1c0,2-1.1,3.3-2.7,3.8l3,5h-2.5l-2.7-4.6c0,0-0.7,0-0.7,0h-1.5v4.6h-2.1
			V123z M81.7,129.5c1.5,0,2.5-0.8,2.5-2.3c0-1.5-1-2.2-2.5-2.2h-2.4v4.5H81.7z"/>
		<path class="st15" d="M88.7,123h2l5.7,8.7V123h2.1v13h-1.8l-5.8-8.9v8.9h-2.1V123z"/>
		<path class="st15" d="M100.5,134.5l1-1.7c1.1,0.9,2.2,1.4,3.5,1.4c1.2,0,2-0.6,2-1.6c0-0.9-0.4-1.4-2.5-2.2c-2.4-1-3.7-1.8-3.7-4
			c0-2.1,1.7-3.6,4-3.6c1.5,0,2.8,0.4,3.9,1.3l-0.8,1.8c-1-0.7-2-1.1-3-1.1c-1.1,0-1.8,0.6-1.8,1.5c0,0.9,0.5,1.4,2.5,2.2
			c2.5,1.1,3.6,2,3.6,4c0,2.3-1.7,3.7-4.1,3.7C103.3,136.2,101.8,135.6,100.5,134.5z"/>
		<path class="st15" d="M113.6,125h-3.4v-2h8.9v2h-3.4v11h-2.1V125z"/>
		<path class="st15" d="M120.1,129.6v-0.2c0-3.9,2.4-6.6,5.7-6.6c3.3,0,5.7,2.7,5.7,6.6v0.2c0,3.9-2.4,6.6-5.7,6.6
			C122.4,136.2,120.1,133.5,120.1,129.6z M129.3,129.6v-0.2c0-2.8-1.5-4.6-3.5-4.6c-2,0-3.5,1.8-3.5,4.6v0.2c0,2.8,1.5,4.6,3.5,4.6
			C127.9,134.2,129.3,132.4,129.3,129.6z"/>
		<path class="st15" d="M133.9,123h2l5.7,8.7V123h2.1v13h-1.8l-5.8-8.9v8.9h-2.1V123z"/>
		<path class="st15" d="M146.4,123h8.1v1.9h-6v3.5h5.3v1.9h-5.3v3.6h6.1v1.9h-8.2V123z"/>
		<path class="st15" d="M160.7,123h2.3l3.2,9.8l3.2-9.8h2.3l-4.5,13.1h-2L160.7,123z"/>
		<path class="st15" d="M172.3,129.6v-0.2c0-3.9,2.4-6.6,5.7-6.6c3.3,0,5.7,2.7,5.7,6.6v0.2c0,3.9-2.4,6.6-5.7,6.6
			C174.6,136.2,172.3,133.5,172.3,129.6z M181.5,129.6v-0.2c0-2.8-1.5-4.6-3.5-4.6c-2,0-3.5,1.8-3.5,4.6v0.2c0,2.8,1.5,4.6,3.5,4.6
			C180.1,134.2,181.5,132.4,181.5,129.6z"/>
		<path class="st15" d="M186.2,123h2.1v13h-2.1V123z"/>
		<path class="st15" d="M190.8,129.6v-0.2c0-3.9,2.4-6.6,5.8-6.6c1.9,0,3,0.6,3.9,1.5l-1,1.7c-0.8-0.7-1.7-1.2-2.9-1.2
			c-2,0-3.6,1.8-3.6,4.6v0.2c0,2.8,1.5,4.6,3.6,4.6c1.2,0,2-0.5,3-1.3l1,1.6c-1.1,1.1-2.3,1.7-4.2,1.7
			C193.2,136.2,190.8,133.5,190.8,129.6z"/>
		<path class="st15" d="M202.7,123h2.1v13h-2.1V123z"/>
		<path class="st15" d="M207.8,123h2l5.7,8.7V123h2.1v13h-1.8l-5.8-8.9v8.9h-2.1V123z"/>
		<path class="st15" d="M219.9,129.6v-0.2c0-3.8,2.5-6.6,5.9-6.6c1.8,0,2.9,0.5,4,1.3l-1,1.8c-0.9-0.7-1.7-1.1-3-1.1
			c-2.1,0-3.6,1.9-3.6,4.6v0.2c0,2.9,1.5,4.6,3.7,4.6c0.9,0,1.7-0.3,2.3-0.7v-2.9h-2.7v-1.9h4.7v5.8c-1.1,0.9-2.6,1.6-4.4,1.6
			C222.3,136.2,219.9,133.6,219.9,129.6z"/>
	</g>
	<path class="st15" d="M164.7,57.6c0,24.5-19.7,44.4-44.1,44.4c-24.3,0-44.1-19.9-44.1-44.4s19.7-44.4,44.1-44.4
		C144.9,13.3,164.7,33.1,164.7,57.6z"/>
	<ellipse class="st15" cx="57.6" cy="57.6" rx="44.1" ry="44.4"/>
	<path class="st15" d="M226.5,57.6c0,24.5-19.7,44.4-44.1,44.4c-24.3,0-44.1-19.9-44.1-44.4s19.7-44.4,44.1-44.4
		C206.7,13.3,226.5,33.1,226.5,57.6z"/>
	<path class="st16" d="M66.6,18.7c9.4,0,16.1,2.4,20.1,7.1c2.9,3.6,4.4,8.1,4.4,13.5c0,1.9-0.2,4-0.5,6.2l-4.2,24.2
		c-1.4,8.2-5,14.7-10.5,19.6c-5.6,4.9-12.8,7.4-21.7,7.4l-28.8,0l-1.2-1l-1-0.9l13.3-76.1H66.6z M59.8,35.6h-7l-7.6,44.2h10.2
		c3.4,0,6-0.9,7.9-2.8c1.9-1.8,3.2-4.9,3.9-9l3.1-17.8c0.3-1.6,0.4-3,0.4-4.3C70.8,39,67.1,35.6,59.8,35.6z"/>
	<path class="st16" d="M132.5,18.8c8.2,0,14.1,1.9,17.6,5.5c2.6,2.7,3.7,6.1,3.7,10.3c0,1.4-0.1,3-0.4,4.5l-1,5.2
		c-0.8,4.1-2.3,7.3-4.6,9.6c-2.3,2.3-4.3,3.5-6,3.5l-0.1,0.9c2,0,4.1,1.1,6.1,3.4c2.1,2.2,3.1,4.9,3.1,7.9c0,1.2-0.1,2.5-0.4,3.9
		l-0.6,3.4c-1.1,6.2-3.9,11.1-8.2,14.6c-4.3,3.5-10.4,5.3-18.1,5.3H87.6l13.7-78H132.5z M122.8,65h-10.2L110,79.9h10.2
		c0.1,0,0.3,0,0.4,0c3.3,0,5.9-0.8,7.9-2.3c1.9-1.6,2.9-3.4,2.9-5.7C131.4,67.3,128.6,65,122.8,65z M125.7,35.7h-8.1l-2.8,16.1h8
		c6.9,0,10.3-3,10.3-9.1c0-2.1-0.6-3.8-1.9-5.1C130,36.4,128.2,35.7,125.7,35.7z"/>
	<path class="st16" d="M182.6,77.7l20.6-59.4l11.1,0.4L218,22l3.5,3.9l-26.8,70.8h-34.4l-0.9-78h21.1l-0.3,59H182.6z"/>
</g>
<g id="Transparent" class="st0">
	<path class="st17" d="M181.3,6.7c-11.6,0-22.3,3.9-30.9,10.4c-8.6-6.5-19.3-10.4-30.9-10.4c-11.4,0-21.9,3.7-30.4,10
		c-8.5-6.3-19-10-30.4-10C30.4,6.7,7.5,29.7,7.5,57.9c0,28.3,22.9,51.2,51.2,51.2c11.4,0,21.9-3.7,30.4-10c8.5,6.3,19,10,30.4,10
		c11.6,0,22.3-3.9,30.9-10.4c8.6,6.5,19.3,10.4,30.9,10.4c28.3,0,51.2-22.9,51.2-51.2C232.5,29.7,209.6,6.7,181.3,6.7z"/>
	<g class="st2">
		<path class="st7" d="M15.6,121.8h3.9c3.6,0,6,2.5,6,6.3v0.2c0,3.7-2.4,6.3-6,6.3h-3.9V121.8z M19.6,132.6c2.2,0,3.8-1.6,3.8-4.3
			V128c0-2.7-1.6-4.4-3.8-4.4h-1.8v8.9H19.6z"/>
		<path class="st7" d="M30.8,121.7h2l4.6,12.8h-2.2l-1.1-3h-4.9l-1.1,3h-2.1L30.8,121.7z M33.6,129.6l-1.8-5.1l-1.8,5.1H33.6z"/>
		<path class="st7" d="M39.3,121.8h1.9l5.6,8.4v-8.4h2.1v12.7h-1.8l-5.7-8.7v8.7h-2V121.8z"/>
		<path class="st7" d="M56.3,121.8h4.5c2.4,0,4.1,1.2,4.1,3.3c0,1.6-0.9,2.4-1.9,2.8c1.4,0.5,2.4,1.3,2.4,3c0,2.3-1.8,3.5-4.5,3.5
			h-4.6V121.8z M60.6,127.2c1.4,0,2.3-0.6,2.3-1.8c0-1.1-0.8-1.7-2.1-1.7h-2.3v3.5H60.6z M61,132.6c1.5,0,2.4-0.6,2.4-1.8
			c0-1.2-0.9-1.8-2.5-1.8h-2.5v3.6H61z"/>
		<path class="st7" d="M67.6,121.8h8v1.9h-5.9v3.4h5.2v1.9h-5.2v3.5h6v1.9h-8V121.8z"/>
		<path class="st7" d="M77.9,121.8h4.5c2.7,0,4.5,1.5,4.5,4c0,2-1.1,3.2-2.6,3.7l3,4.9h-2.4l-2.7-4.5c0,0-0.7,0-0.7,0H80v4.5h-2.1
			V121.8z M82.4,128.1c1.5,0,2.4-0.8,2.4-2.3c0-1.5-1-2.2-2.5-2.2H80v4.4H82.4z"/>
		<path class="st7" d="M89.2,121.8h1.9l5.6,8.4v-8.4h2.1v12.7H97l-5.7-8.7v8.7h-2V121.8z"/>
		<path class="st7" d="M100.9,133l0.9-1.7c1.1,0.9,2.1,1.4,3.4,1.4c1.2,0,2-0.6,2-1.5c0-0.9-0.4-1.3-2.4-2.2c-2.4-1-3.6-1.8-3.6-3.9
			c0-2.1,1.6-3.5,3.9-3.5c1.5,0,2.7,0.4,3.8,1.2l-0.8,1.8c-1-0.7-1.9-1.1-3-1.1c-1.1,0-1.8,0.6-1.8,1.5c0,0.9,0.5,1.3,2.5,2.2
			c2.4,1,3.5,2,3.5,3.9c0,2.2-1.7,3.6-4,3.6C103.6,134.6,102.1,134.1,100.9,133z"/>
		<path class="st7" d="M113.7,123.7h-3.3v-2h8.8v2h-3.3v10.7h-2.1V123.7z"/>
		<path class="st7" d="M120.1,128.2V128c0-3.8,2.3-6.5,5.6-6.5c3.3,0,5.6,2.7,5.6,6.4v0.2c0,3.8-2.3,6.5-5.6,6.5
			C122.4,134.7,120.1,132,120.1,128.2z M129.1,128.2V128c0-2.8-1.4-4.5-3.5-4.5c-2,0-3.4,1.8-3.4,4.5v0.2c0,2.8,1.4,4.5,3.4,4.5
			C127.7,132.7,129.1,131,129.1,128.2z"/>
		<path class="st7" d="M133.6,121.8h1.9l5.6,8.4v-8.4h2.1v12.7h-1.8l-5.7-8.7v8.7h-2V121.8z"/>
		<path class="st7" d="M146,121.8h8v1.9H148v3.4h5.2v1.9H148v3.5h6v1.9h-8V121.8z"/>
		<path class="st7" d="M160,121.8h2.3l3.1,9.6l3.1-9.6h2.2l-4.4,12.8h-1.9L160,121.8z"/>
		<path class="st7" d="M171.4,128.2V128c0-3.8,2.3-6.5,5.6-6.5c3.3,0,5.6,2.7,5.6,6.4v0.2c0,3.8-2.3,6.5-5.6,6.5
			C173.7,134.7,171.4,132,171.4,128.2z M180.5,128.2V128c0-2.8-1.4-4.5-3.5-4.5c-2,0-3.4,1.8-3.4,4.5v0.2c0,2.8,1.4,4.5,3.4,4.5
			C179,132.7,180.5,131,180.5,128.2z"/>
		<path class="st7" d="M185,121.8h2.1v12.7H185V121.8z"/>
		<path class="st7" d="M189.5,128.2V128c0-3.8,2.4-6.5,5.7-6.5c1.8,0,2.9,0.6,3.9,1.5l-1,1.7c-0.8-0.7-1.7-1.2-2.8-1.2
			c-2,0-3.5,1.7-3.5,4.5v0.2c0,2.8,1.5,4.5,3.5,4.5c1.2,0,2-0.5,2.9-1.3l1,1.5c-1.1,1-2.2,1.7-4.1,1.7
			C191.9,134.6,189.5,132,189.5,128.2z"/>
		<path class="st7" d="M201.3,121.8h2.1v12.7h-2.1V121.8z"/>
		<path class="st7" d="M206.3,121.8h1.9l5.6,8.4v-8.4h2.1v12.7h-1.8l-5.7-8.7v8.7h-2V121.8z"/>
		<path class="st7" d="M218.1,128.2V128c0-3.7,2.4-6.5,5.8-6.5c1.8,0,2.9,0.5,3.9,1.3l-1,1.8c-0.9-0.7-1.7-1.1-3-1.1
			c-2,0-3.6,1.8-3.6,4.5v0.2c0,2.9,1.5,4.5,3.7,4.5c0.9,0,1.6-0.3,2.3-0.7v-2.8h-2.7v-1.8h4.7v5.7c-1.1,0.9-2.5,1.5-4.3,1.5
			C220.5,134.6,218.1,132.1,218.1,128.2z"/>
	</g>
	<path class="st8" d="M64.3,76.9c1.9-1.8,3.2-4.7,3.9-8.8l3.1-17.3c0.3-1.5,0.4-3,0.4-4.2c0-6.7-3.6-10-10.8-10H54l-7.5,43.1h10
		C59.8,79.6,62.4,78.7,64.3,76.9z"/>
	<path class="st8" d="M132.3,20.1c5.4,0,9.8,0.8,13.2,2.4c-7-5-15.6-7.9-24.9-7.9c-12.1,0-23.1,5-30.9,13c-7.9-8-18.8-13-30.9-13
		c-23.9,0-43.3,19.4-43.3,43.3c0,11,4.1,21,10.8,28.6l11.7-66.6h29.6c9.2,0,15.8,2.3,19.8,7c2.9,3.5,4.3,7.9,4.3,13.2
		c0,1.9-0.2,3.9-0.5,6L87,69.8c-1.4,8-4.9,14.3-10.4,19.1c-5.5,4.8-12.6,7.2-21.4,7.2l-17.1,0c6.1,3.3,13.1,5.2,20.5,5.2
		c12.1,0,23.1-5,30.9-13l12-68.2H132.3z"/>
	<path class="st18" d="M149.6,25.4c-1.1-1.2-2.5-2.1-4.1-2.9c1.9,1.3,3.7,2.8,5.3,4.4C150.4,26.4,150,25.9,149.6,25.4z"/>
	<path class="st8" d="M122.8,65.1h-10l-2.5,14.6h10c0.1,0,0.3,0,0.4,0c3.2,0,5.8-0.8,7.7-2.3c1.9-1.5,2.9-3.4,2.9-5.6
		C131.2,67.4,128.4,65.1,122.8,65.1z M125.6,36.6h-7.9l-2.7,15.8h7.8c6.8,0,10.2-3,10.2-8.9c0-2-0.6-3.7-1.9-5
		C129.8,37.2,128,36.6,125.6,36.6z"/>
	<g class="st2">
		<path class="st7" d="M158.7,21c-2.8,1.7-5.4,3.8-7.7,6c0,0-0.1-0.1-0.1-0.1c1.7,2.4,2.4,5.2,2.4,8.6c0,1.4-0.1,2.9-0.4,4.4l-1,5.1
			c-0.8,4-2.3,7.2-4.5,9.4c-2.2,2.3-4.2,3.4-5.9,3.4l-0.1,0.8c2,0,4,1.1,6,3.3c2,2.2,3.1,4.8,3.1,7.7c0,1.2-0.1,2.5-0.4,3.8
			l-0.6,3.3c-1.1,6.1-3.8,10.8-8.1,14.3c-4.3,3.5-10.2,5.2-17.8,5.2h-23.2c6,3.2,12.9,5,20.3,5c11.8,0,22.6-4.8,30.4-12.4
			c2.6,2.5,5.4,4.7,8.6,6.5L158.7,21z"/>
		<path class="st7" d="M179.4,19.9l-0.3,57.6h2.4l20.2-57.9c-6.1-3.2-13-5.1-20.4-5.1c-7.5,0-14.6,1.9-20.8,5.3H179.4z"/>
		<path class="st7" d="M217.1,33.5l-23.7,62.6h-32.5c6.1,3.3,13.1,5.2,20.5,5.2c23.9,0,43.3-19.4,43.3-43.3
			C224.6,48.9,221.8,40.5,217.1,33.5z"/>
	</g>
</g>
</svg>
