<?xml version="1.0" encoding="utf-8"?>
<svg width="400" height="120" viewBox="0 0 400 120" xmlns="http://www.w3.org/2000/svg">
  <style>.st0{fill:#FFFFFF;width:16px;height:16px} .st1{fill:none;stroke:#FFFFFF;stroke-width:1.5;stroke-linecap:round;} .st2{fill:none;stroke:#FFFFFF;stroke-width:2;stroke-linecap:round;} .st3{fill:none;stroke:#FFFFFF;} .st4{fill:#231F20;} .st5{opacity:0.75;fill:none;stroke:#FFFFFF;stroke-width:5;enable-background:new;} .st6{fill:none;stroke:#FFFFFF;stroke-width:5;} .st7{opacity:0.4;fill:#FFFFFF;enable-background:new;} .st8{opacity:0.6;fill:#FFFFFF;enable-background:new;} .st9{opacity:0.8;fill:#FFFFFF;enable-background:new;} .st10{opacity:0.9;fill:#FFFFFF;enable-background:new;} .st11{opacity:0.3;fill:#FFFFFF;enable-background:new;} .st12{opacity:0.5;fill:#FFFFFF;enable-background:new;} .st13{opacity:0.7;fill:#FFFFFF;enable-background:new;}</style>
  <path class="st0" d="M 16.5 8.5 C 16.8 8.6 16.9 9 16.7 9.3 C 16.6 9.4 16.6 9.5 16.5 9.5 L 5.1 16.5 C 4.6 16.8 4.3 16.6 4.3 16 L 4.3 2 C 4.3 1.5 4.7 1.2 5.1 1.5 L 16.5 8.5 Z" style="stroke-width: 2; fill: rgb(238, 238, 238);"/>
  <path class="st0" d="M 24 1 L 26.2 1 C 26.8 1 27.2 1.4 27.2 2 L 27.2 16 C 27.2 16.6 26.8 17 26.2 17 L 24 17 C 23.4 17 23 16.6 23 16 L 23 2 C 23 1.5 23.4 1 24 1 Z M 33.8 1 L 36 1 C 36.6 1 37 1.4 37 2 L 37 16 C 37 16.6 36.6 17 36 17 L 33.8 17 C 33.2 17 32.8 16.6 32.8 16 L 32.8 2 C 32.8 1.5 33.2 1 33.8 1 Z" style="fill: rgb(238, 238, 238);"/>
  <path class="st0" d="M 81 1.4 C 81 0.8 81.4 0.4 82 0.4 L 87.4 0.4 C 88 0.4 88.1 0.7 87.7 1.1 L 81.7 7.1 C 81.3 7.5 81 7.4 81 6.8 L 81 1.4 Z M 81 17.2 C 81 17.8 81.4 18.2 82 18.2 L 87.4 18.2 C 88 18.2 88.1 17.9 87.7 17.5 L 81.7 11.5 C 81.3 11.1 81 11.2 81 11.8 L 81 17.2 Z M 98.8 1.4 C 98.8 0.8 98.4 0.4 97.8 0.4 L 92.4 0.4 C 91.8 0.4 91.7 0.7 92.1 1.1 L 98.1 7.1 C 98.5 7.5 98.8 7.4 98.8 6.8 L 98.8 1.4 Z M 98.8 17.2 C 98.8 17.8 98.4 18.2 97.8 18.2 L 92.4 18.2 C 91.8 18.2 91.7 17.9 92.1 17.5 L 98.1 11.5 C 98.5 11.1 98.8 11.2 98.8 11.8 L 98.8 17.2 Z" style="fill: rgb(238, 238, 238);"/>
  <path class="st0" d="M 112.7 5 C 112.7 5.6 113.1 6 113.7 6 L 117.8 6 C 118.4 6 118.5 5.7 118.1 5.3 L 113.4 0.6 C 113 0.2 112.7 0.3 112.7 0.9 L 112.7 5 Z M 105.6 6 C 106.2 6 106.6 5.6 106.6 5 L 106.6 0.9 C 106.6 0.3 106.3 0.2 105.9 0.6 L 101.2 5.3 C 100.8 5.7 100.9 6 101.5 6 L 105.6 6 Z M 106.6 13.1 C 106.6 12.5 106.2 12.1 105.6 12.1 L 101.5 12.1 C 100.9 12.1 100.8 12.4 101.2 12.8 L 105.9 17.5 C 106.3 17.9 106.6 17.8 106.6 17.2 L 106.6 13.1 Z M 113.7 12.1 C 113.1 12.1 112.7 12.5 112.7 13.1 L 112.7 17.2 C 112.7 17.7 113 17.9 113.4 17.5 L 118.1 12.8 C 118.5 12.4 118.4 12.1 117.8 12.1 L 113.7 12.1 Z" style="fill: rgb(238, 238, 238);"/>
  <path class="st0" d="M 70.5 3.1 C 70.5 3.1 65.8 6.771 65.2 6.771 L 62 6.845 C 61.4 6.845 61 6.8 61 7.4 L 61 13.1 C 61 13.7 61.252 13.581 61.852 13.581 L 65.459 13.655 C 65.759 13.855 70.5 17.3 70.5 17.3 C 70.9 17.6 71.3 17.4 71.3 16.9 L 71.3 3.5 C 71.3 3 70.9 2.8 70.5 3.1 Z" style="stroke-width: 3; fill: rgb(238, 238, 238);"/>
  <path class="st1" d="M 74.122 4.945 C 74.122 4.945 77.578 6.522 77.578 9.978 C 77.578 13.646 74.735 15.209 74.048 15.482" style="stroke: rgb(238, 238, 238);"/>
  <path class="st1" d="M 73.193 7.511 C 73.193 7.511 74.977 7.783 74.977 10.126 C 74.977 12.39 73.192 13.137 73.192 13.137" style="stroke: rgb(238, 238, 238);"/>
  <path class="st0" d="M 47 5.8 C 46.5 6.2 45.8 6.4 45.2 6.4 L 42 6.4 C 41.4 6.4 41 6.8 41 7.4 L 41 13.1 C 41 13.7 41.4 14.1 42 14.1 L 46.2 14.1 C 46.5 14.3 46.7 14.5 47 14.7 L 50.5 17.3 C 50.9 17.6 51.3 17.4 51.3 16.9 L 51.3 3.5 C 51.3 3 50.9 2.8 50.5 3.1 L 47 5.8 Z" style="fill: rgb(238, 238, 238);"/>
  <path class="st2" d="M 52.8 7 L 58.2 12.4 M 52.8 12.4 L 58.2 7" style="stroke: rgb(238, 238, 238); fill: rgb(238, 238, 238);"/>
  <path class="st3" d="M 128.7 8.6 C 122.5 4.4 122.2 16.4 128.7 12.5 M 135.2 8.6 C 129 4.4 128.7 16.4 135.2 12.5" style="stroke: rgb(238, 238, 238);"/>
  <path class="st0" d="M 122.2 3.4 L 137.9 3.4 L 137.9 16.5 L 122.2 16.5 L 122.2 3.4 Z M 120.8 2 L 120.8 17.7 L 139.1 17.7 L 139.1 2 L 120.8 2 Z" style="fill: rgb(238, 238, 238);"/>
  <path class="st0" d="M 143.2 3 L 157.2 3 C 158.3 3 159.2 3.9 159.2 5 L 159.2 15 C 159.2 16.1 158.3 17 157.2 17 L 143.2 17 C 142.1 17 141.2 16.1 141.2 15 L 141.2 5 C 141.2 3.9 142.1 3 143.2 3 Z" style="fill: rgb(238, 238, 238);"/>
  <path class="st4" d="M 146.4 13.8 C 145.6 13.8 144.8 13.4 144.3 12.8 C 143.2 11.4 143.3 9.4 144.4 8 C 144.9 7.4 146.4 6.3 149 8.2 L 148.4 9 C 147 8 145.8 7.9 145.1 8.7 C 144.3 9.7 144.3 11.1 145 12.2 C 145.7 13.1 146.9 13 148.4 12.1 L 148.9 13 C 148.2 13.5 147.3 13.7 146.4 13.8 Z M 153.9 13.8 C 153.1 13.8 152.3 13.4 151.8 12.8 C 150.7 11.4 150.8 9.4 151.9 8 C 152.4 7.4 153.9 6.3 156.5 8.2 L 156 9 C 154.6 8 153.4 7.9 152.7 8.7 C 151.9 9.7 151.9 11.1 152.6 12.2 C 153.3 13.1 154.5 13 156 12.1 L 156.5 13 C 155.7 13.5 154.8 13.7 153.9 13.8 Z"/>
  <path class="st0" d="M 59.518 77.051 C 60.088 77.241 60.278 77.811 60.088 78.381 C 59.993 78.666 59.803 78.856 59.518 78.951 L 30.731 95.578 C 29.781 96.148 29.115 95.673 29.115 94.628 L 29.115 61.375 C 29.115 60.329 29.876 59.949 30.731 60.425 L 59.518 77.051 Z" style="fill: rgb(238, 238, 238);"/>
  <path class="st5" d="M 2.5 79 C 2.5 58.3 19.3 41.5 40 41.5 C 60.7 41.5 77.5 58.3 77.5 79 C 77.5 99.7 60.7 116.5 40 116.5 C 19.3 116.5 2.5 99.7 2.5 79 Z" style="stroke: rgb(238, 238, 238); stroke-width: 4;"/>
  <path class="st0" d="M 140.3 77 C 140.9 77.2 141.1 77.8 140.9 78.4 C 140.8 78.7 140.6 78.9 140.3 79 L 110 96.5 C 109 97.1 108.3 96.6 108.3 95.5 L 108.3 60.5 C 108.3 59.4 109.1 59 110 59.5 L 140.3 77 Z" style="fill: rgb(238, 238, 238);"/>
  <path class="st6" d="M 82.5 79 C 82.5 58.3 99.3 41.5 120 41.5 C 140.7 41.5 157.5 58.3 157.5 79 C 157.5 99.7 140.7 116.5 120 116.5 C 99.3 116.5 82.5 99.7 82.5 79 Z" style="stroke: rgb(238, 238, 238); stroke-width: 4;"/>
  <circle class="st0" cx="201.9" cy="47.1" r="8.1" style="fill: rgb(238, 238, 238);"/>
  <circle class="st7" cx="233.9" cy="79" r="5" style="fill: rgb(238, 238, 238);"/>
  <circle class="st8" cx="201.9" cy="110.9" r="6" style="fill: rgb(238, 238, 238);"/>
  <circle class="st9" cx="170.1" cy="79" r="7" style="fill: rgb(238, 238, 238);"/>
  <circle class="st10" cx="178.2" cy="56.3" r="7.5" style="fill: rgb(238, 238, 238);" transform="matrix(1, 0, 0, 1.000001, 0, -0.000025)"/>
  <circle class="st11" cx="226.3" cy="56.1" r="4.5" style="fill: rgb(238, 238, 238);"/>
  <circle class="st12" cx="225.8" cy="102.8" r="5.5" style="fill: rgb(238, 238, 238);"/>
  <circle class="st13" cx="178.2" cy="102.8" r="6.5" style="fill: rgb(238, 238, 238);"/>
  <path class="st0" d="M 178 9.4 C 178 9.8 177.6 10.1 177.1 10.1 C 177 10.1 176.9 10.1 176.9 10 L 172 8.2 C 171.5 8 171.4 7.6 171.9 7.4 L 178.1 3.8 C 178.6 3.5 178.9 3.7 178.8 4.3 L 178 9.4 Z" style="fill: rgb(238, 238, 238);"/>
  <path class="st0" d="M 169.4 15.9 C 168.4 15.9 167.4 15.7 166.5 15.2 C 164.5 14.2 163.3 12.2 163.3 10 C 163.4 6.6 166.2 4 169.6 4 C 172.1 4.1 174.4 5.7 175.2 8.1 L 175.3 8 L 177.4 9.1 C 176.8 4.7 172.7 1.6 168.3 2.2 C 164.4 2.8 161.4 6.1 161.3 10.1 C 161.3 13 163 15.7 165.6 17.1 C 166.8 17.7 168.1 18 169.4 18.1 C 172 18.1 174.4 16.9 176 14.8 L 174.2 13.9 C 173 15.1 171.2 15.9 169.4 15.9 Z" style="fill: rgb(238, 238, 238);"/>
  <path class="st0" d="M 183.4 3.2 C 184.2 3.2 184.9 3.9 184.9 4.7 C 184.9 5.5 184.2 6.2 183.4 6.2 C 182.6 6.2 181.9 5.5 181.9 4.7 C 181.9 3.8 182.6 3.2 183.4 3.2 Z M 188.5 3.2 L 197 3.2 C 197.9 3.2 198.5 3.9 198.5 4.7 C 198.5 5.5 197.8 6.2 197 6.2 L 188.5 6.2 C 187.6 6.2 187 5.5 187 4.7 C 186.9 3.8 187.6 3.2 188.5 3.2 Z M 183.4 8.2 C 184.2 8.2 184.9 8.9 184.9 9.7 C 184.9 10.5 184.2 11.2 183.4 11.2 C 182.6 11.2 181.9 10.5 181.9 9.7 C 181.9 8.8 182.6 8.2 183.4 8.2 Z M 188.5 8.2 L 197 8.2 C 197.9 8.2 198.5 8.9 198.5 9.7 C 198.5 10.5 197.8 11.2 197 11.2 L 188.5 11.2 C 187.6 11.2 187 10.5 187 9.7 C 186.9 8.8 187.6 8.2 188.5 8.2 Z M 183.4 13.2 C 184.2 13.2 184.9 13.9 184.9 14.7 C 184.9 15.5 184.2 16.2 183.4 16.2 C 182.6 16.2 181.9 15.5 181.9 14.7 C 181.9 13.8 182.6 13.2 183.4 13.2 Z M 188.5 13.2 L 197 13.2 C 197.9 13.2 198.5 13.9 198.5 14.7 C 198.5 15.5 197.8 16.2 197 16.2 L 188.5 16.2 C 187.6 16.2 187 15.5 187 14.7 C 186.9 13.8 187.6 13.2 188.5 13.2 Z" style="fill: rgb(238, 238, 238);"/>
</svg>