<?xml version="1.0" encoding="utf-8"?>
<svg version="1.1" x="0px" y="0px" viewBox="0 0 1920 208" style="enable-background:new 0 0 1920 208;" xmlns="http://www.w3.org/2000/svg">
  <style type="text/css">
	.st1{clip-path:url(#SVGID_2_);}
	.st2{clip-path:url(#SVGID_4_);fill:#682A8B;}
	.st3{clip-path:url(#SVGID_4_);fill:#9D7FB9;}
	.st4{clip-path:url(#SVGID_4_);fill:#F2F2F2;}
	.st5{fill:#F2F2F2;}
</style>
  <g id="Layer_2">
    <g>
      <g>
        <defs>
          <rect id="SVGID_1_" x="689.2" y="-54.5" width="545.8" height="307"/>
        </defs>
        <clipPath id="SVGID_2_">
          <rect x="689.2" y="-54.5" width="545.8" height="307" style="overflow: visible;"/>
        </clipPath>
        <g class="st1">
          <defs>
            <rect id="SVGID_3_" x="689.2" y="-54.5" width="545.8" height="307"/>
          </defs>
          <clipPath id="SVGID_4_">
            <rect x="689.2" y="-54.5" width="545.8" height="307" style="overflow: visible;"/>
          </clipPath>
          <path class="st2" d="M899,154.5h-12.1c-0.5,0-0.9,0.4-0.9,0.9v7.2c0,0.5,0.4,0.9,0.9,0.9h9.8C896.8,161.2,897.4,158.2,899,154.5 "/>
          <path class="st2" d="M886.9,143.6c-0.5,0-0.9,0.4-0.9,0.9v7.2c0,0.5,0.4,0.9,0.9,0.9h13c1.4-2.7,3.3-5.7,5.9-9H886.9z"/>
          <path class="st2" d="M914,132.7h-8.1c-0.4,0.3-0.7,0.6-1.1,0.9c0-0.2,0-0.5-0.1-0.9h-17.9c-0.5,0-0.9,0.4-0.9,0.9v7.2 c0,0.5,0.4,0.9,0.9,0.9h20.4c2.1-2.6,4.6-5.3,7.6-8.2C914.8,133,914.5,132.7,914,132.7"/>
          <path class="st2" d="M902.7,121.7h-15.8c-0.5,0-0.9,0.4-0.9,0.9v7.2c0,0.5,0.4,0.9,0.9,0.9h17.6c-0.2-1.6-0.7-3.8-1.4-7.5 C903,122.8,902.9,122.3,902.7,121.7"/>
          <path class="st2" d="M914,130.8c0.5,0,0.8-0.4,0.9-0.8v-4.3c-2.2,1.7-4.4,3.4-6.6,5.2H914z"/>
          <path class="st2" d="M886.9,110.8c-0.5,0-0.9,0.4-0.9,0.9v7.2c0,0.5,0.4,0.9,0.9,0.9h15.4c-0.6-2.6-1.4-5.6-2.1-9H886.9z"/>
          <path class="st2" d="M886.9,99.9c-0.5,0-0.9,0.4-0.9,0.9v7.2c0,0.5,0.4,0.9,0.9,0.9h12.9c-0.5-2.8-1-5.8-1.2-9H886.9z"/>
          <path class="st2" d="M898.3,91.3c0-0.8,0.1-1.6,0.2-2.3h-11.6c-0.5,0-0.9,0.4-0.9,0.9V97c0,0.5,0.4,0.9,0.9,0.9h11.5 C898.3,95.8,898.2,93.6,898.3,91.3"/>
          <path class="st2" d="M886.9,78c-0.5,0-0.9,0.4-0.9,0.9v7.2c0,0.5,0.4,0.9,0.9,0.9h11.8c0.4-3.3,1.1-6.3,1.9-9H886.9z"/>
          <path class="st2" d="M886.9,67.1c-0.5,0-0.9,0.4-0.9,0.9v7.2c0,0.5,0.4,0.9,0.9,0.9h14.4c1.3-3.5,2.9-6.4,4.7-9H886.9z"/>
          <path class="st2" d="M913.7,56.1h-26.8c-0.5,0-0.9,0.4-0.9,0.9v7.2c0,0.5,0.4,0.9,0.9,0.9h20.5c1-1.3,2-2.5,3.1-3.7 C911.6,60.2,913.6,58.1,913.7,56.1"/>
          <path class="st2" d="M914.1,46.3l0.6-0.7c-0.2-0.2-0.4-0.4-0.7-0.4h-27.1c-0.5,0-0.9,0.4-0.9,0.9v7.2c0,0.5,0.4,0.9,0.9,0.9 h26.4C912.2,51.2,912.1,48.8,914.1,46.3"/>
          <path class="st2" d="M945.3,165.6c-0.1-0.1-0.3-0.2-0.4-0.2h-25.5C921.7,168.5,932.1,168.5,945.3,165.6"/>
          <path class="st2" d="M937.9,174.5h6.9c0.5,0,0.8-0.4,0.9-0.8v-1c-2.2,0.6-4.4,1.1-6.5,1.6C939.1,174.2,938.3,174.4,937.9,174.5"/>
          <path class="st2" d="M945.8,162.7v-7.1c-1.5-0.2-2.9-0.6-4.3-1.1h-17.7c-3.1,3.7-4.8,6.9-4.9,9h26 C945.3,163.6,945.7,163.2,945.8,162.7"/>
          <path class="st2" d="M934.5,150.1c2.1-2.1,4.5-4.3,7.2-6.5h-6.8c-3.8,3.2-7,6.3-9.6,9h12.3C936.5,151.9,935.5,151,934.5,150.1"/>
          <path class="st2" d="M945.8,140.4v-5.1c-3.1,2.1-5.9,4.3-8.5,6.3h6.9C944.6,141.3,945.2,140.9,945.8,140.4"/>
          <path class="st2" d="M917.7,130.7c0.9-0.9,1.9-1.8,2.9-2.7c2.3-2,4.9-4.1,7.7-6.3h-8.1c-1.1,0.8-2.2,1.6-3.4,2.5v5.6 C916.8,130.3,917.2,130.7,917.7,130.7"/>
          <path class="st2" d="M944.2,110.8h-6.7c-4.4,2.5-9.2,5.5-14.6,9h7.9C935,116.8,939.5,113.7,944.2,110.8"/>
          <path class="st2" d="M945.8,108.1v-1.8c-0.7,0.4-1.4,0.7-2.2,1.1c-0.9,0.5-1.8,1-2.7,1.5h3.9 C945.3,108.9,945.7,108.5,945.8,108.1"/>
          <path class="st2" d="M947.7,173.6c0,0.5,0.4,0.9,0.9,0.9h27.1c0.5,0,0.8-0.4,0.9-0.8v-7.4c-0.1-0.5-0.4-0.8-0.9-0.8h-9 c-6.6,2.8-13,5-19.1,6.7V173.6z"/>
          <path class="st2" d="M975.7,163.6c0.5,0,0.8-0.4,0.9-0.8v-1.8c-1.9,0.9-3.7,1.8-5.5,2.7H975.7z"/>
          <path class="st2" d="M955.4,154.5c-2,0.8-4.2,1.2-6.6,1.3c-0.4,0-0.8,0-1.1,0v6.8c0,0.5,0.4,0.9,0.9,0.9h4.9 c7.4-2.1,15.2-5.1,22.7-8.8c-0.1-0.1-0.3-0.2-0.5-0.2H955.4z"/>
          <path class="st2" d="M959.1,152.6h16.6c0.5,0,0.8-0.4,0.9-0.8v-7.4c-0.1-0.5-0.4-0.8-0.9-0.8h-9 C965.1,147.3,962.5,150.5,959.1,152.6"/>
          <path class="st2" d="M957.1,132.7h-7.4c-0.7,0.5-1.4,0.9-2,1.4v5C950.6,136.9,953.8,134.8,957.1,132.7"/>
          <path class="st2" d="M967.3,141.7h8.4c0.5,0,0.8-0.4,0.9-0.8v-7.4c-0.1-0.5-0.4-0.8-0.9-0.8h-7.9c0.2,1,0.3,1.9,0.3,3 C968.2,137.7,967.9,139.8,967.3,141.7"/>
          <path class="st2" d="M966.2,127.4c0.5,1.1,0.9,2.2,1.2,3.4h8.3c0.5,0,0.8-0.4,0.9-0.8v-7.4c-0.1-0.5-0.4-0.8-0.9-0.8h-7.4 c-0.6,0.3-1.2,0.6-1.8,0.9c-4.9,2.7-9.5,5.4-13.8,8.1h7.6C962.2,129.6,964.1,128.5,966.2,127.4"/>
          <path class="st2" d="M976.6,119v-1.5c-1.5,0.7-3.1,1.5-4.7,2.3h3.8C976.2,119.8,976.5,119.5,976.6,119"/>
          <path class="st2" d="M947.9,108.6c0.8-0.5,1.6-0.9,2.3-1.4c10.1-5.9,8.2-7.1-2.6-1.8v2.6C947.7,108.2,947.8,108.4,947.9,108.6"/>
          <path class="st3" d="M976.6,46c-0.1-0.5-0.4-0.8-0.9-0.8h-9.3c3.6,1.2,7,2.9,10.2,4.9V46z"/>
          <path class="st3" d="M958.5,43.3h17.2c0.5,0,0.8-0.4,0.9-0.8v-7.4c-0.1-0.5-0.4-0.8-0.9-0.8h-27.1c-0.5,0-0.9,0.4-0.9,0.9v7.2 c0,0.2,0.1,0.4,0.2,0.5C950.6,42.7,954.2,42.6,958.5,43.3"/>
          <path class="st3" d="M948.6,32.4h27.1c0.5,0,0.8-0.4,0.9-0.8v-7.4c-0.1-0.5-0.4-0.8-0.9-0.8h-27.1c-0.5,0-0.9,0.4-0.9,0.9v7.2 C947.7,31.9,948.1,32.4,948.6,32.4"/>
          <path class="st2" d="M1006.5,165.5h-27.1c-0.5,0-0.9,0.4-0.9,0.9v7.2c0,0.5,0.4,0.9,0.9,0.9h27.1c0.5,0,0.8-0.4,0.9-0.8v-7.4 C1007.4,165.8,1007,165.5,1006.5,165.5"/>
          <path class="st2" d="M978.5,159.9v2.7c0,0.5,0.4,0.9,0.9,0.9h27.1c0.5,0,0.8-0.4,0.9-0.8v-7.4c-0.1-0.5-0.4-0.8-0.9-0.8h-18 c-1.6,0.9-3.2,1.8-4.9,2.6C981.9,158.1,980.2,159.1,978.5,159.9"/>
          <path class="st2" d="M978.5,144.5v7.2c0,0.5,0.4,0.9,0.9,0.9h0.8c0.1-0.1,0.2-0.1,0.3-0.2c5.4-3,10.3-6,14.6-8.9h-15.7 C978.9,143.6,978.5,144,978.5,144.5"/>
          <path class="st2" d="M1006.5,152.6c0.5,0,0.8-0.4,0.9-0.8v-7.4c-0.1-0.5-0.4-0.8-0.9-0.8h-0.5c-4.3,3.1-9.1,6.1-14.1,9H1006.5z"/>
          <path class="st2" d="M1006.5,132.7h-27.1c-0.5,0-0.9,0.4-0.9,0.9v7.2c0,0.5,0.4,0.9,0.9,0.9H998c3.5-2.4,6.6-4.8,9.4-7.1v-1.2 C1007.4,133,1007,132.7,1006.5,132.7"/>
          <path class="st2" d="M979.4,130.8h27.1c0.5,0,0.8-0.4,0.9-0.8v-7.4c-0.1-0.5-0.4-0.8-0.9-0.8h-27.1c-0.5,0-0.9,0.4-0.9,0.9v7.2 C978.5,130.3,978.9,130.8,979.4,130.8"/>
          <path class="st2" d="M979.4,119.8h27.1c0.5,0,0.8-0.4,0.9-0.8v-7.4c-0.1-0.5-0.4-0.8-0.9-0.8h-14.8c-4.1,1.6-8.5,3.5-13.2,5.8 v2.3C978.5,119.4,978.9,119.8,979.4,119.8"/>
          <path class="st2" d="M1007.4,108.1v-2.4c-3.2,0.8-6.7,1.9-10.6,3.2h9.7C1007,108.9,1007.4,108.5,1007.4,108.1"/>
          <path class="st3" d="M1004.8,76.1h1.8c0.5,0,0.8-0.4,0.9-0.8v-7.4c-0.1-0.5-0.4-0.8-0.9-0.8H996 C999.2,70.4,1002.1,73.6,1004.8,76.1"/>
          <path class="st3" d="M994.2,65.2h12.4c0.5,0,0.8-0.4,0.9-0.8v-7.4c-0.1-0.5-0.4-0.8-0.9-0.8h-21.8 C988.1,59,991.3,62.1,994.2,65.2"/>
          <path class="st3" d="M1006.5,54.2c0.5,0,0.8-0.4,0.9-0.8V46c-0.1-0.5-0.4-0.8-0.9-0.8h-27.1c-0.5,0-0.9,0.4-0.9,0.9v5.2 c1.3,0.9,2.7,1.9,3.9,2.9H1006.5z"/>
          <path class="st2" d="M1037.4,154.5h-27.1c-0.5,0-0.9,0.4-0.9,0.9v7.2c0,0.5,0.4,0.9,0.9,0.9h27.1c0.5,0,0.8-0.4,0.9-0.8v-7.4 C1038.2,154.9,1037.9,154.5,1037.4,154.5"/>
          <path class="st2" d="M1037.4,143.6h-27.1c-0.5,0-0.9,0.4-0.9,0.9v7.2c0,0.5,0.4,0.9,0.9,0.9h27.1c0.5,0,0.8-0.4,0.9-0.8v-7.4 C1038.2,144,1037.9,143.6,1037.4,143.6"/>
          <path class="st2" d="M1010.3,141.7h27.1c0.5,0,0.8-0.4,0.9-0.8v-7.4c-0.1-0.5-0.4-0.8-0.9-0.8h-17.7c-3.1,2.8-6.6,5.7-10.3,8.5 C1009.6,141.5,1009.9,141.7,1010.3,141.7"/>
          <path class="st2" d="M1009.4,122.7v7.2c0,0.5,0.4,0.9,0.9,0.9h1.6c3.5-3.2,6.2-6.2,8.3-9h-9.9 C1009.8,121.7,1009.4,122.1,1009.4,122.7"/>
          <path class="st2" d="M1021.8,130.8h15.6c0.5,0,0.8-0.4,0.9-0.8v-7.4c-0.1-0.5-0.4-0.8-0.9-0.8h-7 C1027.9,124.7,1025.1,127.7,1021.8,130.8"/>
          <path class="st2" d="M1009.4,111.7v7.2c0,0.5,0.4,0.9,0.9,0.9h11.3c2.2-3.4,3.4-6.5,3.6-9h-14.9 C1009.8,110.8,1009.4,111.2,1009.4,111.7"/>
          <path class="st2" d="M1037.4,119.8c0.5,0,0.8-0.4,0.9-0.8v-7.4c0-0.3-0.2-0.5-0.4-0.6c-1.6,2.8-3.6,5.8-6,8.8H1037.4z"/>
          <path class="st2" d="M1010.3,108.9h14.9c-0.1-0.7-0.2-1.3-0.5-1.9c-1.2-3-6.7-3.6-15.4-1.8v2.8 C1009.4,108.5,1009.8,108.9,1010.3,108.9"/>
          <path class="st3" d="M1025.7,84.5c3.8,0.7,6.7,1.5,8.6,2.4c0.1,0,0.2,0.1,0.3,0.1h2.8c0.5,0,0.8-0.4,0.9-0.8v-7.4 c-0.1-0.5-0.4-0.8-0.9-0.8h-27.1c-0.5,0-0.9,0.4-0.9,0.9v0.8c0.3,0.2,0.6,0.4,0.8,0.5C1015.8,83.3,1020.8,83.6,1025.7,84.5"/>
          <path class="st2" d="M1037.4,165.5h-27.1c-0.5,0-0.9,0.4-0.9,0.9v7.2c0,0.5,0.4,0.9,0.9,0.9h26c1.2-0.3,2-1.3,2-2.5v-5.7 C1038.2,165.8,1037.9,165.5,1037.4,165.5"/>
          <path class="st2" d="M898.9,170.3c-0.8-0.9-1.8-2.5-2.1-4.9h-10c-0.5,0-0.8,0.4-0.9,0.8v5.7c0,1.2,0.9,2.3,2,2.5h18 c-0.2-0.1-0.7-0.2-0.8-0.3C901.7,173,900.4,171.8,898.9,170.3"/>
          <path class="st4" d="M914.9,162.7v-7.4c-0.1-0.5-0.4-0.8-0.9-0.8h-15c-1.6,3.6-2.2,6.6-2.3,9H914 C914.5,163.6,914.8,163.2,914.9,162.7"/>
          <path class="st4" d="M914.9,151.8v-7.4c-0.1-0.5-0.4-0.8-0.9-0.8h-8.2c-2.6,3.3-4.5,6.3-5.9,9H914 C914.5,152.6,914.8,152.3,914.9,151.8"/>
          <path class="st4" d="M905.9,132.7h-1.2c0,0.3,0.1,0.6,0.1,0.9C905.2,133.2,905.6,133,905.9,132.7"/>
          <path class="st4" d="M914.9,140.9v-7.4c0,0,0,0,0,0c-2.9,2.9-5.4,5.7-7.6,8.2h6.7C914.5,141.7,914.8,141.3,914.9,140.9"/>
          <path class="st4" d="M914.9,125.6v-3c-0.1-0.5-0.4-0.8-0.9-0.8h-11.3c0.1,0.5,0.3,1.1,0.4,1.6c0.8,3.6,1.2,5.9,1.4,7.5h3.8 C910.5,129,912.7,127.3,914.9,125.6"/>
          <path class="st4" d="M914.9,119v-7.4c-0.1-0.5-0.4-0.8-0.9-0.8h-13.9c0.7,3.4,1.5,6.5,2.1,9H914 C914.5,119.8,914.8,119.5,914.9,119"/>
          <path class="st4" d="M914.9,108.1v-7.4c-0.1-0.5-0.4-0.8-0.9-0.8h-15.5c0.3,3.2,0.7,6.2,1.2,9H914 C914.5,108.9,914.8,108.5,914.9,108.1"/>
          <path class="st4" d="M914.9,97.1v-7.4c-0.1-0.5-0.4-0.8-0.9-0.8h-15.5c-0.1,0.8-0.2,1.5-0.2,2.3c-0.1,2.3,0,4.5,0.1,6.7H914 C914.5,98,914.8,97.6,914.9,97.1"/>
          <path class="st4" d="M914.9,86.2v-7.4c-0.1-0.5-0.4-0.8-0.9-0.8h-13.4c-0.9,2.7-1.5,5.7-1.9,9H914 C914.5,87,914.8,86.7,914.9,86.2"/>
          <path class="st4" d="M914.9,75.3v-7.4c-0.1-0.5-0.4-0.8-0.9-0.8h-8c-1.8,2.6-3.4,5.6-4.7,9H914 C914.5,76.1,914.8,75.7,914.9,75.3"/>
          <path class="st4" d="M914.9,64.3v-7.4c-0.1-0.5-0.4-0.8-0.9-0.8h-0.3c-0.1,2-2.1,4.1-3.2,5.3c-1,1.1-2.1,2.4-3.1,3.7h6.6 C914.5,65.2,914.8,64.8,914.9,64.3"/>
          <path class="st4" d="M914.9,53.4V46c0-0.2-0.1-0.3-0.2-0.4l-0.6,0.7c-2,2.5-1.9,4.9-0.8,7.9h0.7 C914.5,54.2,914.8,53.9,914.9,53.4"/>
          <path class="st4" d="M945.3,165.6c-13.1,2.9-23.6,2.8-25.9-0.2h-1.6c-0.5,0-0.9,0.4-0.9,0.9v7.2c0,0.5,0.4,0.9,0.9,0.9h20.2 c0.3-0.1,1.2-0.3,1.3-0.3c2.1-0.4,4.3-1,6.5-1.6v-6.4C945.7,166,945.5,165.8,945.3,165.6"/>
          <path class="st4" d="M917.7,154.5c-0.5,0-0.9,0.4-0.9,0.9v7.2c0,0.5,0.4,0.9,0.9,0.9h1.1c0.1-2.1,1.8-5.3,4.9-9H917.7z"/>
          <path class="st4" d="M934.9,143.6h-17.2c-0.5,0-0.9,0.4-0.9,0.9v7.2c0,0.5,0.4,0.9,0.9,0.9h7.6 C927.9,149.9,931.1,146.8,934.9,143.6"/>
          <path class="st4" d="M945.8,133.5c-0.1-0.5-0.4-0.8-0.9-0.8h-27.1c-0.5,0-0.9,0.4-0.9,0.9v7.2c0,0.5,0.4,0.9,0.9,0.9h19.5 c2.6-2.1,5.4-4.2,8.5-6.3V133.5z"/>
          <path class="st4" d="M917.7,130.7C917.7,130.7,917.7,130.8,917.7,130.7l27.1,0c0.5,0,0.8-0.4,0.9-0.8v-7.4 c-0.1-0.5-0.4-0.8-0.9-0.8h-16.5c-2.8,2.1-5.4,4.3-7.7,6.3C919.6,129,918.6,129.9,917.7,130.7"/>
          <path class="st4" d="M917.7,121.7c-0.5,0-0.9,0.4-0.9,0.9v1.5c1.1-0.8,2.2-1.7,3.4-2.5H917.7z"/>
          <path class="st4" d="M917.7,110.8c-0.5,0-0.9,0.4-0.9,0.9v7.2c0,0.5,0.4,0.9,0.9,0.9h5.2c5.4-3.5,10.2-6.5,14.6-9H917.7z"/>
          <path class="st4" d="M944.8,119.8c0.5,0,0.8-0.4,0.9-0.8v-7.4c-0.1-0.5-0.4-0.8-0.9-0.8h-0.6c-4.7,2.9-9.2,6-13.4,9H944.8z"/>
          <path class="st4" d="M945.8,106.3v-5.6c-0.1-0.5-0.4-0.8-0.9-0.8h-27.1c-0.5,0-0.9,0.4-0.9,0.9v7.2c0,0.5,0.4,0.9,0.9,0.9h23.2 c0.9-0.5,1.8-1,2.7-1.5C944.3,107,945.1,106.6,945.8,106.3"/>
          <path class="st4" d="M944.8,88.9h-27.1c-0.5,0-0.9,0.4-0.9,0.9V97c0,0.5,0.4,0.9,0.9,0.9h27.1c0.5,0,0.8-0.4,0.9-0.8v-7.4 C945.7,89.3,945.3,88.9,944.8,88.9"/>
          <path class="st4" d="M944.8,78h-27.1c-0.5,0-0.9,0.4-0.9,0.9v7.2c0,0.5,0.4,0.9,0.9,0.9h27.1c0.5,0,0.8-0.4,0.9-0.8v-7.4 C945.7,78.4,945.3,78,944.8,78"/>
          <path class="st4" d="M944.8,67.1h-27.1c-0.5,0-0.9,0.4-0.9,0.9v7.2c0,0.5,0.4,0.9,0.9,0.9h27.1c0.5,0,0.8-0.4,0.9-0.8v-7.4 C945.7,67.4,945.3,67.1,944.8,67.1"/>
          <path class="st4" d="M944.8,56.1h-27.1c-0.5,0-0.9,0.4-0.9,0.9v7.2c0,0.5,0.4,0.9,0.9,0.9h27.1c0.5,0,0.8-0.4,0.9-0.8v-7.4 C945.7,56.5,945.3,56.1,944.8,56.1"/>
          <path class="st4" d="M944.8,45.2h-27.1c-0.5,0-0.9,0.4-0.9,0.9v7.2c0,0.5,0.4,0.9,0.9,0.9h27.1c0.5,0,0.8-0.4,0.9-0.8V46 C945.7,45.6,945.3,45.2,944.8,45.2"/>
          <path class="st3" d="M944.8,34.3h-27.1c-0.5,0-0.9,0.4-0.9,0.9v7.2c0,0.5,0.4,0.9,0.9,0.9h0.3c2.9-1.9,5.9-3.6,9-5.1 c0.3-0.1,0.8-0.2,1.1-0.3c4-0.7,5.9,1.2,8.5,4.6c0.3,0.4,0.7,0.6,1.1,0.8h7.1c0.5,0,0.8-0.4,0.9-0.8v-7.4 C945.7,34.6,945.3,34.3,944.8,34.3"/>
          <polyline class="st4" points="918,43.3 937.8,43.3 937.8,43.3 918,43.3 918,43.3 &#9;&#9;&#9;&#9;"/>
          <path class="st4" d="M928.2,37.9c-0.3,0.1-0.8,0.2-1.1,0.3c-3.1,1.5-6.1,3.3-9,5.1h19.8c-0.4-0.2-0.8-0.4-1.1-0.8 C934.1,39.1,932.2,37.1,928.2,37.9"/>
          <path class="st4" d="M947.7,166.4v5.8c6.1-1.7,12.5-3.9,19.1-6.7h-18.2C948.1,165.5,947.7,165.9,947.7,166.4"/>
          <path class="st4" d="M976.2,154.7c-7.5,3.7-15.3,6.7-22.7,8.8h17.6c1.8-0.8,3.7-1.7,5.5-2.7v-5.5 C976.6,155.1,976.4,154.9,976.2,154.7"/>
          <path class="st4" d="M948.6,132.7c-0.5,0-0.9,0.4-0.9,0.9v0.5c0.7-0.5,1.3-0.9,2-1.4H948.6z"/>
          <path class="st4" d="M968.3,121.7h-19.7c-0.5,0-0.9,0.4-0.9,0.9v7.2c0,0.5,0.4,0.9,0.9,0.9h4.1c4.3-2.7,8.9-5.4,13.8-8.1 C967.1,122.3,967.7,122,968.3,121.7"/>
          <path class="st4" d="M976.6,111.6c-0.1-0.5-0.4-0.8-0.9-0.8h-27.1c-0.5,0-0.9,0.4-0.9,0.9v7.2c0,0.5,0.4,0.9,0.9,0.9h23.3 c1.6-0.8,3.1-1.6,4.7-2.3V111.6z"/>
          <path class="st4" d="M950.2,107.1c-0.8,0.5-1.6,0.9-2.3,1.4c0.2,0.2,0.4,0.3,0.7,0.3h27.1c0.5,0,0.8-0.4,0.9-0.8v-7.4 c-0.1-0.5-0.4-0.8-0.9-0.8h-27.1c-0.5,0-0.9,0.4-0.9,0.9v4.5C958.4,100,960.3,101.3,950.2,107.1"/>
          <path class="st4" d="M975.7,88.9h-27.1c-0.5,0-0.9,0.4-0.9,0.9V97c0,0.5,0.4,0.9,0.9,0.9h27.1c0.5,0,0.8-0.4,0.9-0.8v-7.4 C976.5,89.3,976.2,88.9,975.7,88.9"/>
          <path class="st4" d="M975.7,78h-27.1c-0.5,0-0.9,0.4-0.9,0.9v7.2c0,0.5,0.4,0.9,0.9,0.9h27.1c0.5,0,0.8-0.4,0.9-0.8v-7.4 C976.5,78.4,976.2,78,975.7,78"/>
          <path class="st4" d="M975.7,67.1h-27.1c-0.5,0-0.9,0.4-0.9,0.9v7.2c0,0.5,0.4,0.9,0.9,0.9h27.1c0.5,0,0.8-0.4,0.9-0.8v-7.4 C976.5,67.4,976.2,67.1,975.7,67.1"/>
          <path class="st4" d="M975.7,56.1h-27.1c-0.5,0-0.9,0.4-0.9,0.9v7.2c0,0.5,0.4,0.9,0.9,0.9h27.1c0.5,0,0.8-0.4,0.9-0.8v-7.4 C976.5,56.5,976.2,56.1,975.7,56.1"/>
          <path class="st4" d="M947.7,46.1v7.2c0,0.5,0.4,0.9,0.9,0.9h27.1c0.5,0,0.8-0.4,0.9-0.8v-3.3c-3.2-2-6.6-3.7-10.2-4.9h-17.8 C948.1,45.2,947.7,45.6,947.7,46.1"/>
          <path class="st4" d="M948.6,43.3h9.9c-4.2-0.6-7.8-0.6-10.6-0.4C948,43.1,948.3,43.3,948.6,43.3"/>
          <path class="st4" d="M978.5,155.5v4.5c1.7-0.9,3.4-1.8,5.2-2.8c1.7-0.9,3.3-1.8,4.9-2.6h-9.1 C978.9,154.5,978.5,154.9,978.5,155.5"/>
          <path class="st4" d="M980.5,152.5c-0.1,0.1-0.2,0.1-0.3,0.2h11.7c5-2.9,9.7-5.9,14.1-9h-10.9 C990.8,146.5,985.9,149.4,980.5,152.5"/>
          <path class="st4" d="M1006.5,141.7c0.5,0,0.8-0.4,0.9-0.8v-6.2c-2.8,2.3-5.9,4.6-9.4,7.1H1006.5z"/>
          <path class="st4" d="M979.4,110.8c-0.5,0-0.9,0.4-0.9,0.9v4.8c4.7-2.2,9.1-4.1,13.2-5.8H979.4z"/>
          <path class="st4" d="M1007.4,100.7c-0.1-0.5-0.4-0.8-0.9-0.8h-27.1c-0.5,0-0.9,0.4-0.9,0.9v7.2c0,0.5,0.4,0.9,0.9,0.9h17.4 c3.9-1.4,7.4-2.5,10.6-3.2V100.7z"/>
          <path class="st4" d="M1006.5,88.9h-27.1c-0.5,0-0.9,0.4-0.9,0.9V97c0,0.5,0.4,0.9,0.9,0.9h27.1c0.5,0,0.8-0.4,0.9-0.8v-7.4 C1007.4,89.3,1007,88.9,1006.5,88.9"/>
          <path class="st4" d="M1006.5,78h-27.1c-0.5,0-0.9,0.4-0.9,0.9v7.2c0,0.5,0.4,0.9,0.9,0.9h27.1c0.5,0,0.8-0.4,0.9-0.8v-7.4 C1007.4,78.4,1007,78,1006.5,78"/>
          <path class="st4" d="M978.5,68v7.2c0,0.5,0.4,0.9,0.9,0.9h25.3c-2.7-2.5-5.6-5.6-8.8-9h-16.6C978.9,67.1,978.5,67.5,978.5,68"/>
          <path class="st4" d="M978.5,57.1v7.2c0,0.5,0.4,0.9,0.9,0.9h14.7c-2.9-3-6-6.1-9.4-9h-5.3C978.9,56.1,978.5,56.5,978.5,57.1"/>
          <path class="st4" d="M979.4,54.2h3c-1.3-1-2.6-2-3.9-2.9v2C978.5,53.8,978.9,54.2,979.4,54.2"/>
          <path class="st4" d="M1009.4,133.6v7.2c0,0.1,0,0.3,0.1,0.4c3.7-2.8,7.2-5.6,10.3-8.5h-9.5 C1009.8,132.7,1009.4,133.1,1009.4,133.6"/>
          <path class="st4" d="M1011.9,130.8h9.9c3.2-3,6.1-6.1,8.6-9h-10.2C1018.1,124.5,1015.4,127.6,1011.9,130.8"/>
          <path class="st4" d="M1025.2,110.8c-0.2,2.6-1.4,5.6-3.6,9h10.4c2.4-3,4.4-6,6-8.8c-0.2-0.1-0.3-0.2-0.5-0.2H1025.2z"/>
          <path class="st4" d="M1024.7,107c0.2,0.6,0.4,1.2,0.5,1.9h12.2c0.5,0,0.8-0.4,0.9-0.8v-7.4c-0.1-0.5-0.4-0.8-0.9-0.8h-27.1 c-0.5,0-0.9,0.4-0.9,0.9v4.4C1018,103.4,1023.5,103.9,1024.7,107"/>
          <path class="st4" d="M1037.4,88.9h-27.1c-0.5,0-0.9,0.4-0.9,0.9V97c0,0.5,0.4,0.9,0.9,0.9h27.1c0.5,0,0.8-0.4,0.9-0.8v-7.4 C1038.2,89.3,1037.9,88.9,1037.4,88.9"/>
          <path class="st4" d="M1010.3,87h24.3c-0.1,0-0.2-0.1-0.3-0.1c-2-0.8-4.8-1.7-8.6-2.4c-4.9-0.9-10-1.2-15.5-4.2 c-0.3-0.1-0.6-0.4-0.8-0.5v6.4C1009.4,86.6,1009.8,87,1010.3,87"/>
          <path class="st4" d="M914.9,173.6v-7.2c0-0.5-0.4-0.9-0.9-0.9h-17.1c0.3,2.4,1.2,4,2.1,4.9c1.5,1.5,2.8,2.6,6.3,3.9 c0.1,0,0.6,0.2,0.8,0.3h8C914.5,174.5,914.9,174.1,914.9,173.6"/>
          <path class="st4" d="M944.8,154.5h-3.4c1.4,0.5,2.8,0.9,4.3,1.1v-0.3C945.7,154.9,945.3,154.5,944.8,154.5"/>
          <path class="st4" d="M945.8,151.8v-7.4c-0.1-0.5-0.4-0.8-0.9-0.8h-3.1c-2.7,2.2-5.1,4.4-7.2,6.5c1,0.9,2,1.8,3.2,2.5h7.2 C945.3,152.6,945.7,152.3,945.8,151.8"/>
          <path class="st4" d="M945.8,140.9v-0.4c-0.5,0.4-1.1,0.8-1.6,1.2h0.7C945.3,141.7,945.7,141.3,945.8,140.9"/>
          <path class="st4" d="M955.4,154.5h-6.8c-0.5,0-0.9,0.4-0.9,0.9v0.3c0.4,0,0.8,0,1.1,0C951.1,155.8,953.3,155.3,955.4,154.5"/>
          <path class="st4" d="M947.7,144.5v7.2c0,0.5,0.4,0.9,0.9,0.9h10.5c3.3-2.2,6-5.3,7.5-9h-18.1C948.1,143.6,947.7,144,947.7,144.5 "/>
          <path class="st4" d="M948.6,141.7h18.7c0.6-1.9,0.9-4,0.8-6.1c0-1-0.1-2-0.3-3h-10.7c-3.4,2.1-6.5,4.2-9.5,6.4v1.7 C947.7,141.3,948.1,141.7,948.6,141.7"/>
          <path class="st4" d="M966.2,127.4c-2,1.1-4,2.2-5.9,3.4h7.1C967.1,129.6,966.7,128.5,966.2,127.4"/>
        </g>
      </g>
    </g>
    <g>
      <path class="st5" d="M434.2,86c6.5,0,11.3,2,15.7,6c0.6,0.5,0.6,1.3,0.1,1.8l-5.1,5.3c-0.5,0.5-1.2,0.5-1.6,0 c-2.4-2.1-5.6-3.3-8.8-3.3c-7.3,0-12.7,6.1-12.7,13.4c0,7.2,5.5,13.2,12.8,13.2c3.1,0,6.4-1.1,8.7-3.1c0.5-0.4,1.3-0.4,1.7,0.1 l5.1,5.4c0.5,0.5,0.4,1.3-0.1,1.8c-4.4,4.3-10,6.3-15.8,6.3c-13,0-23.5-10.3-23.5-23.3S421.2,86,434.2,86z" style=""/>
      <path class="st5" d="M457.2,87.8c0-0.6,0.6-1.2,1.2-1.2h7.7c0.7,0,1.2,0.6,1.2,1.2v16.4H486V87.8c0-0.6,0.5-1.2,1.2-1.2h7.7 c0.7,0,1.2,0.6,1.2,1.2v43c0,0.6-0.6,1.2-1.2,1.2h-7.7c-0.7,0-1.2-0.6-1.2-1.2v-17.1h-18.6v17.1c0,0.6-0.5,1.2-1.2,1.2h-7.7 c-0.6,0-1.2-0.6-1.2-1.2V87.8z"/>
      <path class="st5" d="M526.7,86c13,0,23.4,10.5,23.4,23.5s-10.4,23.3-23.4,23.3s-23.3-10.3-23.3-23.3S513.7,86,526.7,86z M526.7,122.4c7.2,0,13-5.9,13-12.9c0-7.1-5.9-13.1-13-13.1c-7.1,0-12.9,5.9-12.9,13.1C513.8,116.5,519.6,122.4,526.7,122.4z"/>
      <path class="st5" d="M577.4,86c13,0,23.4,10.5,23.4,23.5s-10.4,23.3-23.4,23.3S554,122.4,554,109.4S564.4,86,577.4,86z M577.4,122.4c7.2,0,13-5.9,13-12.9c0-7.1-5.9-13.1-13-13.1c-7.1,0-12.9,5.9-12.9,13.1C564.4,116.5,570.3,122.4,577.4,122.4z"/>
      <path class="st5" d="M605.4,125.9l3.1-5.4c0.5-0.8,1.8-0.7,2.2-0.4c0.3,0.1,4.9,3.6,9.2,3.6c2.6,0,4.5-1.6,4.5-3.9 c0-2.7-2.3-4.8-6.7-6.6c-5.6-2.2-12.6-6.6-12.6-14.4c0-6.4,5-12.9,15-12.9c6.8,0,12,3.4,13.9,4.9c0.8,0.5,0.6,1.6,0.4,2.1l-3.3,5 c-0.5,0.7-1.6,1.3-2.2,0.8c-0.6-0.3-5.3-3.9-9.3-3.9c-2.3,0-4.1,1.6-4.1,3.3c0,2.4,2,4.2,7.1,6.3c5.1,2,13.1,6,13.1,14.8 c0,6.7-5.8,13.5-15.3,13.5c-8.5,0-13.1-3.5-14.6-5C605.1,127.1,604.9,126.8,605.4,125.9z"/>
      <path class="st5" d="M642.9,87.8c0-0.6,0.5-1.2,1.2-1.2h26.9c0.7,0,1.2,0.6,1.2,1.2v7.1c0,0.6-0.5,1.2-1.2,1.2h-18v8.1h14.8 c0.6,0,1.2,0.6,1.2,1.2v7.1c0,0.7-0.6,1.2-1.2,1.2h-14.8v8.8h18c0.7,0,1.2,0.6,1.2,1.2v7.1c0,0.6-0.5,1.2-1.2,1.2h-26.9 c-0.7,0-1.2-0.6-1.2-1.2V87.8z"/>
      <path class="st5" d="M702.5,110.2l-14.4-21.7c-0.5-0.8,0-1.9,1-1.9h8.5c0.5,0,0.8,0.3,1,0.6l9,13.3l9-13.3c0.2-0.3,0.5-0.6,1-0.6 h8.5c1,0,1.6,1,1,1.9l-14.6,21.6v20.7c0,0.6-0.6,1.2-1.2,1.2h-7.7c-0.7,0-1.2-0.6-1.2-1.2V110.2z"/>
      <path class="st5" d="M751,86c13,0,23.4,10.5,23.4,23.5S764,132.8,751,132.8s-23.3-10.3-23.3-23.3S738,86,751,86z M751,122.4 c7.2,0,13-5.9,13-12.9c0-7.1-5.9-13.1-13-13.1c-7.1,0-12.9,5.9-12.9,13.1C738,116.5,743.9,122.4,751,122.4z"/>
      <path class="st5" d="M780.9,87.8c0-0.6,0.6-1.2,1.2-1.2h8c0.7,0,1.2,0.6,1.2,1.2v26.3c0,4.6,3.4,8.2,8,8.2c4.7,0,8.1-3.6,8.1-8.2 V87.8c0-0.6,0.5-1.2,1.2-1.2h8c0.7,0,1.2,0.6,1.2,1.2v26.8c0,9.9-8.3,18.1-18.6,18.1c-10.2,0-18.5-8.2-18.5-18.1V87.8z"/>
      <path class="st5" d="M827.8,87.8c0-0.6,0.5-1.2,1.2-1.2h19.4c7.8,0,14.2,6.3,14.2,14c0,6-4,10.8-9.6,13.1l8.9,16.5 c0.5,0.8,0,1.9-1.1,1.9h-8.6c-0.5,0-0.9-0.3-1-0.6l-8.6-17.2H838v16.6c0,0.6-0.6,1.2-1.2,1.2H829c-0.7,0-1.2-0.6-1.2-1.2V87.8z M847.6,106c2.7,0,4.9-2.5,4.9-5.2s-2.3-4.9-4.9-4.9H838V106H847.6z"/>
    </g>
    <g>
      <path class="st5" d="M1081.1,86c13,0,23.4,10.5,23.4,23.5s-10.4,23.3-23.4,23.3s-23.3-10.3-23.3-23.3S1068.1,86,1081.1,86z M1081.1,122.4c7.2,0,13-5.9,13-12.9c0-7.1-5.9-13.1-13-13.1c-7.1,0-12.9,5.9-12.9,13.1C1068.2,116.5,1074,122.4,1081.1,122.4z"/>
      <path class="st5" d="M1107.4,88.2c-0.3-0.9,0.3-1.6,1.2-1.6h7.6c0.5,0,1,0.5,1.2,0.9l5.6,22h0.3l10.1-22.9 c0.2-0.4,0.6-0.7,1.1-0.7h1.2c0.6,0,1,0.3,1.1,0.7l10.1,22.9h0.3l5.6-22c0.1-0.5,0.6-0.9,1.2-0.9h7.6c0.9,0,1.4,0.6,1.2,1.6 l-12.3,43.7c-0.1,0.5-0.6,0.9-1.2,0.9h-1c-0.5,0-0.9-0.3-1.1-0.7l-11.9-26.6h-0.2L1123,132c-0.2,0.4-0.6,0.7-1.1,0.7h-1 c-0.5,0-1-0.4-1.2-0.9L1107.4,88.2z"/>
      <path class="st5" d="M1168.7,87.1c0-0.6,0.6-1.2,1.2-1.2h1.6l25.9,25h0.1V87.8c0-0.6,0.5-1.2,1.2-1.2h7.8c0.7,0,1.2,0.6,1.2,1.2 v43.7c0,0.6-0.6,1.2-1.2,1.2h-1c-0.2,0-0.7-0.2-0.8-0.3l-25.7-25.8h-0.1v24.2c0,0.6-0.5,1.2-1.2,1.2h-7.7c-0.6,0-1.2-0.6-1.2-1.2 L1168.7,87.1z"/>
      <path class="st5" d="M1236.6,87c0.1-0.6,0.7-1,1.2-1h1c0.3,0,0.9,0.3,1.1,0.7l15.1,28.1h0.1l15.1-28.1c0.2-0.4,0.8-0.7,1.1-0.7h1 c0.5,0,1.1,0.5,1.2,1l7.3,43.7c0.1,0.8-0.5,1.4-1.2,1.4h-7.7c-0.6,0-1.2-0.5-1.2-1l-2.9-20.1h-0.1l-10.9,21.1 c-0.2,0.4-0.8,0.7-1.1,0.7h-1.2c-0.4,0-0.9-0.3-1.1-0.7l-11-21.1h-0.1l-2.9,20.1c-0.1,0.5-0.6,1-1.2,1h-7.7 c-0.8,0-1.4-0.6-1.2-1.4L1236.6,87z"/>
      <path class="st5" d="M1287.9,87.8c0-0.6,0.6-1.2,1.2-1.2h8c0.7,0,1.2,0.6,1.2,1.2v26.3c0,4.6,3.4,8.2,8,8.2c4.7,0,8.1-3.6,8.1-8.2 V87.8c0-0.6,0.5-1.2,1.2-1.2h8c0.7,0,1.2,0.6,1.2,1.2v26.8c0,9.9-8.3,18.1-18.6,18.1c-10.2,0-18.5-8.2-18.5-18.1V87.8z"/>
      <path class="st5" d="M1332.1,125.9l3.1-5.4c0.5-0.8,1.8-0.7,2.2-0.4c0.3,0.1,4.9,3.6,9.2,3.6c2.6,0,4.5-1.6,4.5-3.9 c0-2.7-2.3-4.8-6.7-6.6c-5.6-2.2-12.6-6.6-12.6-14.4c0-6.4,5-12.9,15-12.9c6.8,0,12,3.4,13.9,4.9c0.8,0.5,0.6,1.6,0.4,2.1l-3.3,5 c-0.5,0.7-1.6,1.3-2.2,0.8c-0.6-0.3-5.3-3.9-9.3-3.9c-2.3,0-4.1,1.6-4.1,3.3c0,2.4,2,4.2,7.1,6.3c5.1,2,13.1,6,13.1,14.8 c0,6.7-5.8,13.5-15.3,13.5c-8.5,0-13.1-3.5-14.6-5C1331.8,127.1,1331.6,126.8,1332.1,125.9z"/>
      <path class="st5" d="M1369.7,87.8c0-0.6,0.6-1.2,1.2-1.2h7.8c0.7,0,1.2,0.6,1.2,1.2v43c0,0.6-0.6,1.2-1.2,1.2h-7.8 c-0.6,0-1.2-0.6-1.2-1.2V87.8z"/>
      <path class="st5" d="M1410.7,86c6.5,0,11.3,2,15.7,6c0.6,0.5,0.6,1.3,0.1,1.8l-5.1,5.3c-0.5,0.5-1.2,0.5-1.6,0 c-2.4-2.1-5.6-3.3-8.8-3.3c-7.3,0-12.7,6.1-12.7,13.4c0,7.2,5.5,13.2,12.8,13.2c3.1,0,6.4-1.1,8.7-3.1c0.5-0.4,1.3-0.4,1.7,0.1 l5.1,5.4c0.5,0.5,0.4,1.3-0.1,1.8c-4.4,4.3-10,6.3-15.8,6.3c-13,0-23.5-10.3-23.5-23.3S1397.7,86,1410.7,86z"/>
    </g>
  </g>
</svg>