<?xml version="1.0" encoding="utf-8"?>
<svg version="1.1" id="Layer_1" xmlns="http://www.w3.org/2000/svg" xmlns:xlink="http://www.w3.org/1999/xlink" x="0px" y="0px"
	 viewBox="0 0 1920 1080" style="enable-background:new 0 0 1920 1080;" xml:space="preserve">
	
<style type="text/css">
	.st0{ }
    
    .white1{fill:#F9F9F9;}
	.lightgreen1{fill:#BAB84F;}
	.transp07{opacity:0.7;}
    
	.red { fill:#8D1D16; }
    .headline { font-family:'Montserrat'; font-weight: 800; font-size:45px; letter-spacing:2px; dominant-baseline:central; text-anchor:middle; fill:#EEEEEE; }
	.product{ font-family:'Montserrat'; font-weight: 600; font-size:44px; fill:#272727;}
    .price { font-family:'Montserrat'; font-size:45px; font-weight: 800; letter-spacing:2px; fill:#111111; text-anchor:end;}
	.dotline { font-family:'Montserrat'; font-weight: 600; font-size:45px; fill:#8D1D16;}
	.column1 {transform: translate(230px, 276px); }
	.column2 {transform: translate(1030px, 276px); }
	.mask1 {mask: url(#mask1);}
	.mask2 {mask: url(#mask2);}

    .cropBackgr{clip-path:url(#SVGID_2_);}

	
	.delay01 {animation-delay: 0.2s;}
	.delay02 {animation-delay: 0.4s;}
	.delay03 {animation-delay: 0.6s;}
	.delay04 {animation-delay: 0.8s;}
	.delay05 {animation-delay: 1.0s;}
	.delay06 {animation-delay: 1.2s;}
	.delay07 {animation-delay: 1.4s;}
	.delay08 {animation-delay: 1.6s;}
	.delay09 {animation-delay: 1.8s;}
	.delay10 {animation-delay: 2.0s;}
	
	.page1 {transform: translate(0px, -50px); animation-name: textAnimation1; animation-duration: 20s; animation-timing-function: ease; animation-iteration-count: infinite; }
    
    @keyframes textAnimation1 {
	   0%   {transform: translate(0px, -50px);}
	   4%   {transform: translate(0px, -0px);}
	  46%   {transform: translate(0px, -0px);}
	  50%   {transform: translate(0px, 50px);}
	 100%   {transform: translate(0px, 50px);}
	}
    
    .page2 {transform: translate(0px, -50px); animation-name: textAnimation2; animation-duration: 20s; animation-timing-function: ease; animation-iteration-count: infinite; }
    
    @keyframes textAnimation2 {
	   0%   {transform: translate(0px, -50px);}
	  48%   {transform: translate(0px, -50px);}
	  52%   {transform: translate(0px, 0px);}
	  94%   {transform: translate(0px, 0px);}
	  98%   {transform: translate(0px, 50px);}
	 100%   {transform: translate(0px, 50px);}
	}
    .animatedBlock {transform: translate(0px, 0px); animation-name: blockAnimation; animation-duration: 20s; animation-timing-function: ease; animation-iteration-count: infinite; }
    
    @keyframes blockAnimation {
	   0%   {transform: translate(0px, 0px);}
	  46%   {transform: translate(0px, 0px);}
	  50%   {transform: translate(0px, 60px);}
      96%   {transform: translate(0px, 60px);}
	 100%   {transform: translate(0px, 0px);}
	}
    
    .fadeOut { animation-name: fadeOut; animation-duration: 20s; animation-timing-function: ease; animation-iteration-count: infinite; }
    @keyframes fadeOut {
	   0%   {opacity: 1;}
	  48%   {opacity: 1;}
	  50%   {opacity: 0;}
      98%   {opacity: 0;}
	 100%   {opacity: 1;}
	}
    
	
	.row01 {transform: translate(0px, 0px); }
	.row02 {transform: translate(0px, 60px); }
	.row03 {transform: translate(0px, 120px); }
	.row04 {transform: translate(0px, 180px); }
    
	.row05 {transform: translate(0px, 300px); }
	.row06 {transform: translate(0px, 360px); }
	.row07 {transform: translate(0px, 420px); }
	.row08 {transform: translate(0px, 480px); }
	
	.row09 {transform: translate(0px, 600px); }
	.row10 {transform: translate(0px, 660px); }
</style>

    
    <defs>
          <style type="text/css">@import url(https://fonts.googleapis.com/css?family=Montserrat:600,800);</style>

        <rect id="SVGID_1_" width="1920" height="1080"/>
        
	  <mask id="mask1" x="0" y="0" width="800" height="50" >
		<rect x="0" y="-35" width="800" height="46"
			style="stroke:none; fill: #ffffff"/>
	  </mask>	
		
	  <mask id="mask2" x="0" y="0" width="1800" height="46" >
		<rect x="0" y="20" width="1800" height="46"
			style="stroke:none; fill: #ffffff"/>
	  </mask>		
		
		<g id="shape1" fill="#8D1D16">
			<rect x="0" y="0" width="1580" height="80"/>
		</g>   
		
		<line id="dotLine1" x1="2" y1="17" x2="654" y2="17" stroke-dasharray="4 8" style="stroke: #8D1D16; stroke-width:4;"/>
	</defs>
    
    <clipPath id="SVGID_2_">
        <use xlink:href="#SVGID_1_"  style="overflow:visible;"/>
    </clipPath>
    
   
    
	

    
    
    
	
<g id="WhiteBackgr">
	<rect x="0" y="0" class="white1" width="1920" height="1080"/>
</g>
<g id="GreenBackgr" class="cropBackgr">
	<g >
		<path class="lightgreen1" d="M267.3,1007.3c0.6-0.2,1.2-0.3,1.7,0.1c0.6,0.4,0.8,1.1,1.2,1.7c0.1,0.3,0.2,0.6,0.5,0.8
			c0.2,0.2,0.4,0.1,0.7,0.1c0.6,0,1.2,0.3,1.6,0.7c0.4,0.4,0.9,0.9,1,1.5c0.2,0.9-1.5,0.3-1.9,0.1c-0.4-0.2-0.6-0.4-0.8-0.8
			c-0.2-0.4-0.5-0.8-0.5-0.8s-0.7,0-1,0c-0.3-0.1-0.6-0.2-0.9-0.3c-0.4-0.2-0.7-0.5-0.9-1c-0.1-0.2-0.2-0.4-0.3-0.6
			c-0.2-0.4-0.6-0.8-0.7-1.1"/>
		<path class="lightgreen1" d="M249,1006.9c0.3-0.4-0.3-0.4-0.7-0.3c-0.2,0.1-0.4,0.1-0.6,0.1c-0.2,0-0.4,0-0.6,0c0,0.1,0,0.2,0,0.2
			c-0.1,0.1-0.3,0.1-0.4,0.2c-0.1,0,0,0.2,0.2,0.3c0.6,0.1,1.4-0.1,1.8-0.4L249,1006.9z"/>
		<path class="lightgreen1" d="M-157.4,996c-0.3-0.3-0.7-0.5-1-0.8c-0.2-0.2-0.9-0.9-0.4-0.9c0.3,0,0.5-0.1,0.8-0.1c0.3,0,0.6-0.1,0.9-0.1
			c0.2,0,0.5,0.4,0.7,0.6c0.3,0.3,0.5,0.6,0.8,0.9c0.3,0.4,0.6,0.8,0.9,1.2c0.3,0.3,0.5,0.7,0.7,1.1c0.1,0.2,0.4,0.5,0.2,0.8
			c-0.2,0.3-0.5,0-0.7-0.2c-0.6-0.4-1-0.9-1.6-1.3C-156.5,996.8-156.9,996.4-157.4,996"/>
		<path class="lightgreen1" d="M207.2,1021.9c0,0-2.7,1.4-5.3,1.5c-2.6,0.1-6.9,0.3-8.2,0.3c-1.3,0-2.6,0.3-2.6,0.3s-1.4,0.8-3,0.5
			c-1.6-0.3-5.2-1.7-6-1.9c-0.8-0.3-1.3-0.4-2-0.4c-0.6,0-1.7,0.1-2.6-0.2c-1-0.3-5.2-2.3-7.3-2.9c-2.1-0.6-2.2-0.3-4.8-0.4
			c-2.6,0-5-0.5-7.2-0.7c-2.2-0.2-4.9-0.3-10.5,1c-5.6,1.4-7.9,2.9-11.1,5c0,0-0.1,0.1-0.3-0.3c-0.3-0.3-2.4-2.5-1.3-3.7
			c1.1-1.2,7.5-4.4,16.9-5.1c0,0,6.8-0.2,12.4,0.7c5.6,0.9,7.6,1.5,12.3,1.9c4.7,0.4,6,0.8,8.3,1.7c2.3,0.9,7.3,2.2,12,2.4
			c4.7,0.1,5.8,0.3,9.9-0.1C206.9,1021.5,207.9,1021.5,207.2,1021.9"/>
		<path class="lightgreen1" d="M267.8,1007.7c0,0-4.1-4-10.6-5.8c-6.5-1.8-8-1-8.3-1c-0.3,0-5.2,1-6.9,1.2c-1.7,0.2-6.9,1.2-9.7,2.1
			c0,0-2.1,0.7-4.3,1.9c0,0-1.7,1.4-2.6,1.8c-0.9,0.4-13.4,5.9-20.1,6.3c-7.2,0.4-9.2-0.6-11-0.8c-1.8-0.2-2.3,0.4-5.5-0.8
			c-3.2-1.2-4.9-2.5-6.5-3.4c-1.6-0.8-4.8-3-11.7-5.2c0,0-3.2-0.8-3.9-1.7c-0.7-0.8-1.3-1.4-3.7-1.8c-2.4-0.3-12.3-0.9-18.9,0.8
			c0,0-2.4,0.8-5.6,2.7c0,0-0.9,0.7-2,0.8c-1.1,0.1-2.5,1.2-3,1.5c-0.4,0.2-5.5,3.8-5,5.6c0.5,1.8,2,0.9,2.3,0.8
			c0.3-0.1,3.9-2.6,5.9-3c2-0.5,4.3-1,4.9-1.6c0.6-0.6,0.7-0.9,2.5-1.3c1.8-0.4,6.3-2.7,16.7,0c0,0,4.6,0.6,7,2.1
			c2.5,1.6,3.9,1.4,5.7,1.7c1.8,0.3,5.7,2.2,8.6,3.1c2.9,0.9,5.7,2.5,11.4,3.8c0,0,4.2,1.9,8.2,1.8c3.9-0.1,10.7-2,11.8-2.3
			c1.1-0.4,1.4,0.1,2.8-0.4c1.4-0.4,9.1-2.8,11.1-4c1.9-1.1,2.3-1.2,3.4-1.5c1.1-0.3,6.8-1.9,9.2-4c0,0,0.3-0.6,1.4-0.8
			c1.1-0.3,3.3-1.2,4.5-1.6c1.2-0.4,2.9-1.4,7.9-0.6C258.8,1004.9,267.6,1008.4,267.8,1007.7"/>
		<path class="lightgreen1" d="M181.5,1015.8c0,0,0.3,0.4-0.6,0.3c-0.9,0-5.8-0.6-7.8-1c-2-0.4-6.3-1.6-9-1.7c-2.8-0.1-4.2,0.3-4.9,0.1
			c-0.6-0.1-3.3-1.1-6.3-0.9c-3,0.2-6.3,0.3-14.3,3.5c0,0-5.2,2.3-5.5,2.3c-0.3,0.1-0.4,0-0.4-0.2c-0.1-0.2-0.6-0.7-0.7-1
			c-0.2-0.3-0.5-0.8,0.3-1.6c0.8-0.8,4.2-4.7,15.9-8c0,0,2.6-0.3,5.7,0.3c3.1,0.6,3.4,0.7,4.7,0.3c1.3-0.4,3,0.5,3,0.5
			s3.6,1.1,5.1,1.6c1.4,0.5,4.1,1.7,5.6,1.8c1.6,0.1,2.6,0.3,3.4,0.8c0.8,0.5,2.6,1.5,3.6,1.6C180.2,1014.8,181,1015.1,181.5,1015.8
			"/>
		<path class="lightgreen1" d="M122.7,1026.6c0,0-0.2,0.5-0.6,1.1c-0.3,0.7-2.4,4.8-3.2,12.5c0,0,0,1.4-0.3,0.3c-0.3-1.1-3.6-7.8-0.5-17.8
			c0,0,0.2-0.3,0.7,0.1C119.4,1023.1,122.2,1024.6,122.7,1026.6"/>
		<path class="lightgreen1" d="M127.5,1031.3c0,0,0.4,0.9,0.1,1.9c-0.3,1-0.7,1.2-1.1,3.5c-0.4,2.3-0.5,2.6-0.7,4.7
			c-0.2,2.1-0.8,5.4,0.4,8.6c1.2,3.3,2.3,3.9,3.2,6.1c0,0,0.3,1.1,0.9,1.4c0.6,0.3,1.6,1.4,1.4,1.7c-0.2,0.4-1,0.2-1.7,0
			c-0.7-0.2-1.4-0.8-1.8-1.3c-0.4-0.6-1.6-1.9-2.4-2.4c-0.7-0.5-2.9-2.8-3.6-5.9c-0.7-3.1-1.2-9.4-1.3-10.1
			c-0.1-0.7-0.3-2.5,0.3-3.8c0.6-1.3,1.1-2.4,1.4-4.4c0.3-2.1,0.3-3.6,0.9-3.8C124.2,1027.4,126.4,1029.3,127.5,1031.3"/>
		<path class="lightgreen1" d="M114.8,1027.9c0,0,0.2,10.5,2.7,18c2.6,7.6,6.2,12.5,6.2,12.5s0.3,0.5,0.7,0.3c0.4-0.2,0.5-0.5,0.8-0.2
			c0.3,0.3,1.4,3.2,8,3.1c0,0,5.6-0.2,7.1-7.4c0,0,1.2-7-0.7-13.6c0,0-1-2.4-1-3.6c0-1.3,0.6-1.8-0.3-3.9c-0.9-2.1-3.7-7.1-5.4-9.5
			c-1.7-2.5-3.6-5.5-3.5-5.9c0,0,1,0,1.9,1.6c0.9,1.6,0.5,1.9,0.9,2.2c0.4,0.4,0.9,0.5,2.9,4.1c1.9,3.6,1.6,2.4,2.7,4.2
			c1.1,1.8,3.8,7.6,5,13.3c1.2,5.7,0.9,10.8,0.1,14.3c0,0-0.8,2.8-1.1,3.7c-0.3,0.8-0.1,1.1-0.1,1.1s0.3,0.6-0.3,1.4
			c-0.6,0.9-2.7,3.6-6.2,3.9c-3.4,0.2-9.3-2.3-12.5-5.4c-3.2-3.1-6.3-7.6-7.9-13.8c-1.6-6.1-3.3-10.5-1-18.4
			C113.9,1029.9,114.6,1027.5,114.8,1027.9"/>
		<path class="lightgreen1" d="M128.5,1034.2c0,0-0.1,3.4-0.8,6c-0.7,2.6-1.3,6.1-0.3,8.9c0,0,1,1.8,1.8,3.7c0.8,1.9,2.5,5.3,5.7,5.1
			c0,0,2.4-0.3,2.1-5.5c-0.4-5.2-1.8-8.1-2.3-9.3c-0.4-1.2-2.2-5.6-4.2-7.6C130.5,1035.4,128.4,1033.2,128.5,1034.2"/>
		<path class="lightgreen1" d="M138.5,1051.2c0,0-1.9-8.6-3.4-11.7c0,0-2.1-3.6-3.9-5.5c0,0-1.6-2.1-1.8-4c0,0-1.4-0.8-2.9-2.2
			c-1.5-1.4-1.9-2.2-3.3-3.5c-1.4-1.3-4.6-4.1-5.1-5.9c0,0-2.8-1.4-4.6-2.7c-1.8-1.3-4.4-2.6-6-3.2c-1.6-0.6-1.4-0.9-1.4-0.9
			s-1-1.8-5.8-2.8c-4.8-1-7.6-1-10.1-1.7c-2.5-0.7-11-4-17.6-5.1c-6.6-1-12.6-1.9-18.9-2c-6.3-0.1-12.9-0.1-19.5,0.1
			c0,0-1.5-0.1-2.9-0.2c-1.4,0-11,1.1-14.3,2.2c0,0-1.9,0.7-2.4,0.7c-0.5,0-6.1,0.5-15.7,3.1c-9.6,2.6-16.8,4.6-21.9,6.1
			c0,0-4.6,1.1-7.3,2.2c-2.7,1.1-4,1.5-6,2c-2,0.4-2.8,0.6-4.6,1.8c-1.8,1.2-2.9,1.3-3.8,1.6c-0.8,0.3-4.9,1.1-6.7,1.7
			c-1.8,0.7-5.9,2.6-7.6,3.1c-1.7,0.5-3.1,0.6-5.1,0.8c-2.1,0.1-4.2,1.5-4.2,1.5s-2.4,0.8-7.3,1.7c-4.9,0.9-4.9,1.1-15.9,1.9
			c-11,0.8-11.4,0.6-14.4,0.3s-15.4-3.4-19.4-5c-4-1.6-10.8-4.8-18-10.9c-7.3-6.1-13.7-14.6-14.7-16.8c0,0-0.4-0.4,0.9,0.6
			c1.2,1,4.6,3.4,8.7,6.7c4.1,3.3,15.2,12.1,24.5,16.1c0,0,7.2,2.5,16,3.4c8.9,0.8,8.1,0.3,10.3,0.4c2.2,0.1,5.9,0,8.6-0.9
			c2.7-0.9,4.5-1.4,8.4-2c3.9-0.6,4.5-2,7.7-2.6c3.2-0.7,3.1-0.1,6.1-0.8c2.9-0.7,4.5-1.8,9-3.3c4.5-1.5,8.6-3.8,10-4.2
			c1.4-0.4,1.8-1.1,7.6-2.7c5.9-1.6,10.3-2.8,13.7-3.6c0,0,1.1-0.3,2.4-1.1c1.2-0.8,0.5-1.5,14.4-4.8c13.9-3.3,18.1-4.2,30.8-5
			c12.7-0.9,20.2-0.9,22.2-0.7c2,0.1,10,0.5,13.6,0.3c3.6-0.3,6.8-0.2,9.5,0.4c2.7,0.7,8.3,1.6,11.3,2.4c3,0.8,5.7,1.8,7.4,2.4
			c1.7,0.6,3,0.4,3.7,0.6c0.7,0.1,2.3,0.8,3.5,1.5c1.2,0.7,2.9,1.4,5,1.9c2.1,0.5,4.9,1.5,6.9,2.7c2,1.2,9.4,5.6,11.9,7.8
			c2.4,2.2,3.8,2.4,5.7,4.3c1.9,1.9,6.4,5.5,11.1,14.1c0,0,4.3,6,5.3,10.1c0,0,0,0,0.1,1.4c0.1,1.4,0.4,3.8,0.6,5.1
			C139,1049.5,139,1052.5,138.5,1051.2"/>
		<path class="lightgreen1" d="M-121.5,1016.7c0,0,12.5,6.7,35.5,1.8c0,0,9-2.4,11.5-3.6c2.5-1.2,3.9-2.4,8.1-3.7c4.1-1.3,5.8-1.7,7.5-2.5
			c1.7-0.8,4-2.5,7.5-3.6c3.5-1.1,10.2-4,11.8-4.9c1.6-0.8,6.9-3.2,10.6-4.7c3.7-1.6,8.4-3.3,9.7-3.9c1.3-0.6,6.4-3,7.8-3.5
			c1.4-0.5,1.5-0.9,3.9-1c2.4-0.1,3.5-1,4.2-1.2c0.6-0.2,1.6-0.5,3-0.5c1.4,0,5.8-0.2,7.8-0.7c2-0.5,8-2.2,11.2-1
			c0,0,0.9,0.6,1.6,0.7c0.8,0.1,10.9-0.5,14.6-0.5c0,0,1.6,0,2.3,0.2c0.7,0.2,1.9,0.2,2.8-0.2c0.9-0.4,2.4-0.7,4.5-0.6
			c2.2,0.2,4.4,0,9.2,0.7c4.8,0.7,8.2,1.3,11.7,1.9c3.5,0.6,5.5,0.7,6.9,1.5c1.4,0.8,3.5,1.2,5.4,1.5c1.9,0.3,5.4,1.2,8,2.1
			c2.6,1,5,1.7,6.6,1.8c0,0,3.7,0.8,5.8,2c2.1,1.1,7.1,3.5,7.6,3.4c0,0-1.8-2-3.6-3.5c-1.8-1.5-6.2-4.8-10.5-6.4c0,0,0-0.3-1.7-0.2
			c-1.7,0.1-5.9-1.3-7.8-2.1c-1.9-0.8-6.8-2.9-10.5-3.7c-3.7-0.8-14.4-3.1-16.6-3.5c-2.1-0.4-6.6-1.3-10.3-1.4
			c-3.7-0.1-4.9,0-7.8-0.4c-2.9-0.4-9.6-1.4-19.5-0.7c-10,0.7-19.1,4.2-19.1,4.2s-8.5,2.4-9.9,2.9c-1.4,0.5-2,1-2.9,1.4
			c-1,0.4-9.3,3.2-13.1,4.7c-3.9,1.5-11.6,4.5-13.7,5.4c-2.1,0.9-7.5,2.5-10.3,3.8c-2.8,1.3-5.9,3.4-8.7,4.5c-2.8,1.1-8,3-10.4,4.7
			c0,0-0.2,0.3-1.9,0.9c-1.7,0.5-9.3,3-11.4,3.6c-2.1,0.6-2.8,1.5-4.2,1.7c-1.4,0.1-3.2-0.2-5.1,0.6c-1.9,0.8-1.6,0.6-3.7,0.9
			c-2.1,0.2-18.3,1.1-23.5,1.2C-120.4,1016.6-121.7,1016.5-121.5,1016.7"/>
		<path class="lightgreen1" d="M-132.6,1015.1c0,0,4.1,2.3,8.3,3.9c0,0,0.8,0.3,1.4,0.8c0.6,0.5,1.6,0.5,2.5,0.7c0.9,0.2,2,0,4.4,1
			c2.3,1,7,1.8,12,1.9c5,0.1,11.8,0.3,15.3-0.7c3.5-1,4.4-1.4,7.4-2.1c3-0.7,6.5-2.5,7.4-2.8c0,0,2.8,0,4.6-0.2
			c1.8-0.2,2.6-0.6,3.1-0.9c0.5-0.4,1.4-1.3,2.8-1.4c1.4,0,4.3-1.1,5.5-1.6c1.2-0.6,8-4.1,11.5-5.2c3.5-1.1,4-1,5-1.1
			c1-0.1,2.7-0.5,3.8-1c1.1-0.6,1.9-1,4.8-1.9c3-0.8,12.1-4.2,13.3-4.5c1.2-0.3,2.4-1.2,3.6-1.2c1.2,0,1.4,0.2,3-0.3
			c1.6-0.5,6.4-2.1,16.2-3.8c9.8-1.7,12.7-2.1,16.9-2.1c0,0,6.6-0.5,9.9-0.5c3.4,0,10.8-0.1,12.5-0.1c1.7,0,10.7,0.5,12.9,0.3
			c2.2-0.2,5-0.3,7.1,0c2,0.2,9,0.8,19.4,3.8c10.5,3.1,9.1,2.7,9.1,2.7s2.5,0.7,3.7,1.6c1.2,0.9,3.2,1.4,4.7,1.8
			c1.4,0.4,5.3,2.1,6.4,2.8c1,0.7,5.5,2.5,8.4,4.6c2.9,2.2,8.2,6.7,9.8,8c1.6,1.3,5.7,5.4,6.6,6.8c0,0,1.6,2.6,1.5,1.9
			c-0.1-0.7-0.7-1.8-1.8-3.3c-1.2-1.5-3.5-5.1-5.9-7.5c-2.4-2.4-8.2-8.5-13.7-12c-5.4-3.5-11.1-6.4-18.4-8.7
			c-7.3-2.2-7.1-2.4-12.6-3.6c-5.4-1.2-9.7-2.6-10.7-2.9c-1-0.3-11.1-2.1-15.8-2.5c-4.7-0.4-9.5-0.7-13.7-0.4
			c-4.2,0.2-11.7,0.6-15,0.6c-3.3,0-4.9-0.3-6.8-0.5c-1.9-0.2-4.6-0.1-7.7,0.5c-3.1,0.6-7.3,1.3-10.1,1.2c-2.8,0-3,0.3-3.7,0.8
			c-0.7,0.5-0.8,0.3-1.4,0.4c-0.5,0.1-6.3,0.6-17.2,5.9c0,0-7.7,3.5-11.5,4.6c0,0-1.1,0.3-2,0.9c-0.9,0.5-4.8,3.1-9.2,4.6
			c-4.4,1.5-7.9,2.6-12.2,4.8c-4.4,2.2-6.8,3.5-9.4,4.2c-2.6,0.7-6.2,1.9-7.8,3.4c0,0-1.4,0.3-2.1,0.4c-0.7,0.1-6.8,2.1-8.5,3.2
			c0,0-2.3,0.4-3.7,0.5c-1.4,0.1-11,0.8-13.1,1c-2.1,0.1-8.6-0.2-11.4-0.7c-2.8-0.6-9.5-2.6-11.2-3.3c-1.6-0.7-6.1-2.6-7.5-3.2
			c-1.3-0.7-2.1-1.2-1.8-0.4C-133.1,1014.9-132.6,1015.1-132.6,1015.1"/>
		<path class="lightgreen1" d="M-138.5,1008c0,0,9.8,3.4,16.7,4.4c0,0,2.6,0.7,6.3,0.2c3.7-0.5,9.2-0.3,12-1c2.8-0.7,5.7-2,6.9-2.7
			c1.2-0.7,3.3-0.9,4.5-1.2c1.3-0.3,9.2-3.6,13.1-5.1c3.9-1.4,4.2-2,5.6-2.8c1.3-0.8,8.1-4.6,11.4-5.8c3.3-1.3,8.1-3.2,9.8-4.1
			c1.7-0.9,6.8-3.9,13.7-6.7s20.8-7.9,29.2-10.7c8.4-2.8,11-3.1,12.9-3.2c1.9-0.1,4.3-0.6,6.2-1.1c1.9-0.5,3.2-0.8,4.7-0.6
			c1.5,0.2,6.1-1.4,7.7-1.5c1.6-0.1,10.6,0.1,15.6-0.3c5-0.3,5-1.1,7.8-1.3c2.8-0.2,8.9,1.6,11.3,1.9c2.4,0.4,3,0.3,4.8,0.7
			c1.8,0.5,4.6,1.8,6.6,1.7c2.1-0.1,2.9-1,4.6-1.1c1.8-0.1,9.9,2.5,15.2,6.1c0,0,4.8,2.7,6.2,3.5c1.4,0.8,4.7,2.5,6.2,3.2
			c1.4,0.7,3.3,2.7,4.7,4c1.4,1.3,4.4,4.9,6.4,7.3c1.9,2.3,4.9,5.2,7.3,8.5c2.4,3.3,3,4.3,3.6,5.6c0.6,1.4,1.7,3.2,2.7,4.2
			c1,1,3.6,4.1,3.6,6.3c0,0-0.1,0.4-0.4,0c-0.4-0.4-6.2-6-9.6-9.5c-3.3-3.5-6.6-6.7-9.7-8.3c0,0-0.8-0.5-1.3-1.4
			c-0.5-0.9-4.2-3.6-7-5.5c-2.7-1.9-4.1-3.5-5.9-4.5c-1.8-1-7.9-4.2-11.4-5.7c-3.5-1.6-5.1-2.8-8.4-3.7c-3.3-0.9-8.1-2.5-10.1-3.2
			c-2.1-0.7-11.5-3.8-26.8-2.7c-15.3,1.1-15.4,0.7-25,2.9c0,0-4.3,1.5-7.4,1.6c-3.1,0.2-4.1-0.3-6.2,1.1c-2.1,1.4-2.5,2.3-5.6,2.9
			c-3.1,0.6-3.7,0.9-6.8,2.3c-3.1,1.4-3.4,1.6-5.6,2c-2.2,0.4-4.7,1.3-6.6,2.5c-1.9,1.1-3.3,1.6-4.4,1.6c-1.2,0-2.9,0.4-4.2,1.1
			c-1.3,0.6-6.6,3.4-13,5.6c-6.4,2.2-11.9,5.4-14,6.2c-2.1,0.8-5.9,2.5-8,3.6c-2,1.1-3.3,1.6-5.1,2.3c-1.8,0.7-4.7,1.9-6.9,2.5
			c-2.2,0.5-2.7,1-3.5,1.3c-0.7,0.3-3,0.8-5.7,1.2c-2.7,0.3-4.1,1-4.7,1.1c-0.6,0.1-1.6,0.4-1.9,0.5c-0.4,0.1-10.5,0.7-14,0.7
			c-3.5,0-7.2-0.3-8.5-0.3c-1.3-0.1-4.1,0-5.8,0.1c-1.6,0.1-2.8-0.6-4.4-1.2c-1.6-0.6-11.6-5.9-9.7-5.6L-138.5,1008z"/>
	</g>
	<path class="lightgreen1" d="M1770,909.6c3.7,0.2,7.3,0.4,7.9,0.4c3.3,0,14.8,2.9,18.3,4.6c1.1,0.5,3.2,1.5,4.6,2.1
		c5.9,2.7,6.4,2.6,10.2,6.1c5.8,5.2,10.1,10.7,12.1,11.4c5.1,2.7,9.7-1.1,14.8,0c6.3,1,11.6,4.1,16.6,7.7c0.3,0.1,1.7,1.7,3.2,3.4
		c1.5,1.8,3.7,4.2,4.8,5.5c2.3,2.5,3.7,6.8,4.9,14.5c1.1,4.7,1.5,6.6,3,10.8c1.2,3.2,3.7,6.7,7.1,12.1c3,3.7,6.4,8.1,7.6,9.9
		c3,4.2,4.8,6.8,9.3,13.1c2.1,2.9,4.1,6.1,4.6,7.1c2.2,3.3,2.5,4.2,4.6,8.4c0.2,1.8,1.8,2,1.1,5.1c-0.3,1.1-1.2,0.7-1.8,0.7
		c-2.7-2-2.4-3.6-4.2-6.3c-2.7-4.9-4.1-6.9-11-15.6c-7.2-9.1-10-12.4-11.6-13.9c-1.4-1.3-6.7-5.5-9.9-8c-1.7-1.3-3.6-2.9-4.3-3.7
		c-2.9-2.2-4.5-0.3-7.7,1.5c-1.9,1-2.9,1.5-4.5,2.7c-1.9,1.4-4.8,2.9-6.9,3.8c-7.3,3.2-12.5,4.2-22.2,7.3c-3.5,0.6-17.4,5.6-20,5
		c-3.3-0.3-4,0.1-4.6,1.2c0,4.3-1.7,8.7-4.3,12.2c-0.8,0.9-1.4,2.2-1.4,2.8c0,1,10.2,11,11.7,11.5c0.3,0.1,1.6-0.2,2.8-0.8
		c2.7-1.2,6.1-0.8,6.9,0.8c0.4,0.8,0.2,1.3-0.9,2.3c-2,1.7-1.3,2.3,3.6,3c2.2,0.3,4.5,0.8,5.2,1.1c0.6,0.3,3.1,0.9,5.5,1.5
		c3.5,0.8,4.7,1.4,6.6,3.2c1.8,1.7,2.2,2.4,1.7,2.9c-3.7-0.4-7.2,0.8-11,0.7c-2.3-0.1-4.2-0.1-4.2,0.1c0,0.2,0.5,1,1.2,1.8
		c2,2.6,1.1,5.4-1.2,3.3c-0.7-0.7-1.6-0.9-2.6-0.6c-1.9,0.5-9.9-2.1-12.9-4.1c-3.7-2.5-7.2-3.8-8.1-3c-1,0.8-2.5-0.3-2.5-1.8
		c0-2.3-3.7-8-8.2-12.6c-4.7-4.8-6.5-5.6-9.3-3.9c-4.9,1.8-12.8,1.4-16.5,1.7c-6.8,0.5-12.6,2.7-20.3,1.2c-0.9-0.2-3.5-0.4-4.1,0.4
		c-0.7,0.9-1.4,12.2-0.7,13.2c0.4,0.6,1.2,0.6,4.3,0.1c3.4-0.6,4.1-0.6,5.4,0.3l1.5,1l-1.3,1c-2.4,2-1.6,2.3,5.8,2.3l9.1,2
		c0.7,0.2,1.9,2.2,1.4,2.7c-3.8-1.2-8.4,1.6-12.4,2.8c-3.7,0.7-3.9,0.8-3,1.9c0.5,0.7,0.8,1.6,0.8,2.1c0,0.7-1,0.9-4.9,1
		c-2.7,0.1-5.6-0.1-6.4-0.4c-2.1-0.8-8-4.7-8.6-5.7c-0.3-0.4-0.9-1.2-1.5-1.8c-1-1-2.5-3.9-3.2-6.3c-0.4-1.3-0.2-2.2,1.9-10.4
		c2.1-8,0.5-12.7-1.5-14.2c-6.9-3.3-4.3-0.5-11.3-8.1c-8.4-9.2-17.7-20.4-15.4-34.5c2.3-13.8,7.6-23.8,14.5-36.6
		c1-1.6,2.1-3.3,2.4-3.8c9.3-13.8,18.5-22.2,35.4-26.8C1753.9,910.2,1761.9,909.2,1770,909.6"/>
	<g >
		<g class="transp07">
			<g>
				<path class="lightgreen1" d="M1708-20.1c1.1-0.2,1.5,0.4,1.7,1.2C1708.7-18.2,1707.5-19,1708-20.1 M1698.5-17c0.6-1.4,0.5-3.4,2.1-4
					c-0.5,1.6-0.3,3.7-1.3,4.9C1699-16.4,1698.6-16.6,1698.5-17 M1822.1-7.1c0.5-0.1,0.8-0.4,1.1,0
					C1822.9-6.9,1822.4-6.8,1822.1-7.1 M1702.2-2.9c2,3.2,4.1,7.1,5.6,10.4C1705.8,4.2,1703.1,1.1,1702.2-2.9 M1811.1-4.8
					c-0.4,2.8-1.1,5.3-1.6,8C1809.3,0,1809.6-2.9,1811.1-4.8 M1718.6,18.3c1.3,1.4,3,2.2,4.3,3.6c0.2,0,0.1,0.2-0.1,0.2
					C1721.3,21,1719.3,19.8,1718.6,18.3 M1912.2,8.6c-0.3-0.6,1.8-1,2.4-1.4c1-0.7,1.5-1.9,2.3-2.1c2-0.7,4.3-0.5,6.2-0.7
					C1919.2,5.6,1915.6,7.6,1912.2,8.6 M1905.9,10.4c0.5,0,0.4-0.4,0.9-0.4c0.3,0.1,0.5,0.3,0.7,0.6c-0.5,0.2-0.7,0.5-1.3,0.6
					C1906.2,10.8,1905.9,10.9,1905.9,10.4 M1894.5,17.7c-0.4,1-1.9,1.1-2.6,1.7C1892.2,18.4,1893.1,17.1,1894.5,17.7 M1816.3,20.7
					c2.8,2.1,5.8,4,8,7c-0.2,1,0.5,1.9,0.1,2.2C1821.4,27.1,1818.4,24.5,1816.3,20.7 M1871.7,35c-0.1,0.6-0.8,0.7-1.1,1.1
					C1870.5,35.3,1871.1,35.2,1871.7,35 M1852.9,39.1c1.8-0.3,2.9-0.3,4.5-0.7C1856.8,39.5,1853.8,39.6,1852.9,39.1 M1766.5,53.6
					c-0.2,1.1-0.9,1.3-1.5,1.9c-1.5,1.4-2.2,3.9-3.7,4.5C1761.9,57,1764.1,54.7,1766.5,53.6 M1866.8,43.8c-1.7,1.8-4.5,5.3-6.7,7.5
					c-0.7,0.7-1.6,2.2-2.8,1.7C1859.8,49.5,1863.2,46.6,1866.8,43.8 M1730.4,72.5c0.4,0,0.7,0.1,1,0.2c0.1,0.4-0.2,0.4-0.1,0.8
					C1730.7,73.5,1730.6,72.9,1730.4,72.5 M1764.7,71.7c0.1,2-1.9,0.7-2.3-0.7c-0.2-0.8,0.1-1.8,0.1-2.4
					C1762.8,70.1,1764.6,70.3,1764.7,71.7 M1784.5,73.9c-0.5,0.1-1.2,0.9-1.7,0.5C1783.3,74.3,1784,73.5,1784.5,73.9 M1769.7,80.9
					c0.6-0.1,0.7,0.2,1,0.5C1770.2,81.4,1769.9,81.2,1769.7,80.9 M1774.9,82.8c1.8-0.3,3-1,4.2-1.7c1.5,1.5,4.3,0.2,4.2-2
					c0.2,0.3,0.8,0.2,1,0.5C1783,82,1778.4,84.2,1774.9,82.8 M1750,92c-2.2-1-4.3-2.2-6.1-3.7c1.7-0.7,2.8-0.1,4,0.3
					c0.2,1.6,1.1,2.3,2.7,2.1C1750.4,91.1,1750.5,91.8,1750,92 M1753.1,93.2c0.7-0.2,0.9,0.2,1.2,0.5
					C1753.8,93.7,1753.4,93.6,1753.1,93.2 M1754.6,93.8c0.8,0.2,1.8,0.2,3,0c0,0.5-0.4,0.6-0.2,1.3
					C1756.3,95,1755.3,94.5,1754.6,93.8 M1796.4,91.2c0.3-0.6,1.9-1.4,2.3-0.6c-2.2,1-4.4,2-6.8,2.8
					C1793.1,92.5,1794.6,91.7,1796.4,91.2 M1791.5,93.5c-0.2,0.2-0.9,0.7-1.2,0.3C1790.7,93.8,1791.2,93.1,1791.5,93.5 M1775.9,95.6
					c0.7-0.1,1.4-0.2,2.2-0.2c2.8,2.3,5.3-0.9,7.8-2c0,1.7,1.6,1.5,2.9,1.1c-2.6,1.9-7.1,2.3-10.8,3.4
					C1777.7,96.6,1776.8,96.1,1775.9,95.6 M1939.5,6.7c-0.2-1.6-0.7-2.8-1.5-3.6c-1.4-0.2-2.6,0.4-4,0.6c-0.9-0.7-1.9-1.4-3.3-1.5
					c-0.1-1.2,0.1-2.6-0.7-3.2c-2.1-0.2-3.2,1.9-5.4,2c-1,0.1-2.1-0.5-3.2-0.3c-0.7,0.2-1.2,1-1.8,1.1c-1.5,0.5-3.2,0-4.5,0.7
					c-0.7,0.4-0.9,1.1-1.4,1.6c-0.9,0.8-2,1-3,1.7c-2.9-1.3-3.8,2-4.3,3.9c-1.6-0.5-2.7-0.8-4,0.8c-0.4,0.5-0.6,1.3-1.2,1.7
					c-0.5,0.3-1.6,0.3-2.4,0.7c-0.8,0.4-1.4,1.2-1.9,1.3c-1.5,0.5-3.2-0.3-4.4,0c-0.8,0.3-1.1,1.2-2.3,2c-1.3,0.9-3.1,0.9-2.8,2.8
					c0.1,0.9,1,1.2,1.3,1.7c-0.1,0.4-0.6,0.4-0.9,0.7c-0.5,0-0.2-1.4-0.9-1.5c-3.6,0.8-4.7,3.5-8,4.5c-0.4,2.2-1.8,4.2-4.8,3.8
					c-0.7,1.3-1.9,2.6-3.5,2.9c-1.4,0.2-2.7-0.4-4-0.3c-2,0.2-4.5,1.4-6.9,1.9c-1.1,0.2-2.5,0.2-3.5,0.7c-0.8,0.4-1.3,1.5-2.2,1.8
					c-3.8,1.5-7.3-0.3-10-0.8c-1.8-0.3-3.5-0.6-5-1c-2-1.6-5.1-1.9-7.4-3.1c-4.9-4.6-9.7-9.3-15.1-13.2c-1.1-1.3-1.1-3.4-2-5.4
					c-0.3-0.7-0.9-1.2-1.2-1.9c-0.5-1.4,0.1-2.6,0-4.1c0-0.7-0.4-1.3-0.4-2c0-0.8,0.5-1.6,0.7-2.6c0.2-1.2,0.1-2.4,0.4-3.3
					c0.6-1.9,2.2-3.8,3.9-4.4c1,1.4,0.9,3.1,2.7,3.5c0.9,0.2,3.8,0,4.5-0.3c2-1,4.7-5.3,4.7-7c0-1.2-1-2.6-1.6-3.3
					c-1.3-1.4-5.2-3-7.1-3c-6.2,0-10.4,4.5-12.8,8c-2,2.8-3,7.5-2.7,11.3c0.2,2.3,1.3,4.8,2.2,7c0.9,2.3,1.7,4.3,2.4,6.5
					c2,5.8,6,10.3,10.1,14.3c2.3,2.3,5.6,3.8,8.8,5.8c2.1,1.4,4.4,2.2,6.7,3.3c3.4,1.7,6,3,9.8,3.6c-6.9,1-14.3,2.7-22,2.6
					c-0.7-0.4-1.8-0.5-2.5-1c-16.1,1.1-29.8-1.2-44-3c-0.2-0.5-0.3-1.3-0.7-2c-1.2-0.5-3.1,0-4.6-0.4c-2-0.5-3.2-2.1-5.6-2.5
					c-2.1-0.3-3.8-0.4-5.6-1.1c-4.6-1.7-9.6-3.8-14.2-6.1c-1.5-0.8-2.9-1.8-4.4-2.7c-1.5-0.8-3-1.6-4.4-2.5c-2.9-1.9-6.1-3-9.1-4.5
					c-2.2-1.1-4.2-2.7-6.4-3.7c-1.6-0.7-3.3-1.1-4.5-2.2c-1.2-1.1-2.3-2.8-3.6-4.2c-1.3-1.4-2.9-2.8-3.6-4.2
					c-0.3-0.5-0.2-1.2-0.5-1.8c-0.7-1.4-1.9-2.8-2.7-4.4c-0.9-1.7-2.2-3.2-2.6-4.6c-0.3-1.2-0.1-2.6-0.4-3.7
					c-0.4-1.7-1.9-2.9-2.2-4.2c-0.3-1.4,0.9-4.4,2-4.5c1.1-0.1,1.8,1.7,3.2,2.2c3.9,1.4,10.2-2.6,7.6-7.8c-0.9-1.8-3.4-3.5-4.7-4.2
					c-2.9-1.5-7.9-0.8-10.2,0.5c-0.8,0.4-3.2,3-3.8,3.9c-0.9,1.2-2,5.4-2.2,7.3c-1,9.6,5.2,17.1,9.1,22.9c1,1.5,2.2,2.8,3.4,4
					c2.5,2.4,4,4.3,6.7,6.3c3.1,2.3,6.3,5.3,9.6,7.6c2.3,1.5,5,2.5,7.5,3.7c1.2,0.6,2.4,1.4,3.7,1.9c1.3,0.6,2.7,0.8,4.1,1.4
					c0.8,0.4,1.5,1,2.4,1.5c2.7,1.4,5.5,2.2,8.2,3.3c1.9,0.8,3.6,1.9,5.6,2.7c1.9,0.8,4.1,1.2,6.2,2c3.9,1.4,7.6,4.2,11.7,4.7
					c2.1,0.2,3.2-0.1,5,0.9c-0.6,0.4-1.9,0.2-2.4,0.7c-2.3-1.8-6.2-0.1-8.8,1.3c-3.2,1.7-4.6,2.8-6.6,5.3c-1.7,2.1-2,2.5-2.6,5.3
					c-0.6,2.9,0.1,10.6,2,13.8c0.5,0.9,1.7,1.7,2.3,2.6c0.6,0.9,0.8,1.9,1.2,2.4c0.5,0.5,1.7,1,2.6,1.8c0.9,0.9,1.3,1.8,2.5,2.4
					c0.8,0.4,2.1,0.6,3.4,1c1.6,0.6,3,1.5,4.4,1.7c3.7,0.4,7.9-0.6,10.6-2.6c0.9-0.7,2.8-2.9,3-4.3c0.1-0.4-0.2-1.1-0.2-1.9
					c0-0.8,0.4-1.8,0.2-2.5c-0.5-2.1-4-4.4-6.6-3.8c-2.1,0.5-5.7,3.4-6,5.1c-0.3,1.3,0.5,2.3,0.5,3.6c-2.1,1.5-3.2,0.3-5.1-0.7
					c-1.7-0.9-3.4-1-3.8-3.2c-0.2-1,0.4-1.7,0.3-2.6c-0.3-2.2-3.6-3.6-3.8-7.3c-0.1-1.7,0.5-2.9,0.9-4.5c0.6-0.6,1.8-0.7,2.4-1.4
					c0.3-0.5-0.5-1-0.6-1.5c2.3-2.4,4.2-5.1,8.3-5.9c0.8-1.1,1.6-1,3.6-1.3c2.9-0.5,7-1.3,10.2-1.4c9.5-0.5,18.5,1.8,28.6,1.4
					c4.9-0.2,9.9-0.6,14.9-0.4c5,0.2,10.2-0.1,14.5-1c4.5-0.9,7.5-3.8,12.3-4.8c-0.7,1.3-1.9,2.4-3.1,3.5
					c-3.3,3.2-7.2,6.6-10.2,10.1c-2.2,1.6-4.3,3.4-6.3,5.4c-0.6,0.6-1,1.6-1.7,2.1c-0.9,0.7-2.3,1.1-3.4,1.8
					c-2.9,1.8-6.1,3.1-8.8,5.5c0,0.7,0.3,0.9,0.2,1.4c-1.3,0.8-2.6,1.5-3.8,2.3c-0.6-0.3-1.5-0.2-2.1-0.6c-4.2,1.9-8.1,4.1-11.9,6.3
					c-4.4,1.4-8,3.4-11.8,5.2c0.1-1.2-1.7-1.6-3.4-1.3c-2,0.3-3.7,2.1-5.8,2.7c-0.4,0.1-1,0.1-1.6,0.2c-4.6,1.1-9.8,3.8-14.2,3.8
					c-2.1,0-3.9-1.1-5.9-0.9c-0.4,0.8-0.9,1.5-2.1,1.2c0.7-0.8-0.7-1.1-1.2-1.9c1.2-0.6,3.4,0.2,4.1-0.9c0-1.6-2.2-1.8-4.1-1.6
					c-1.2-1.8-4.5-1-6.9-1c-0.6-1.6-2.3-1.8-4.3-1.7c-0.4-2-2.7-2.6-5.6-2.1c0.2-1.4-1.2-2-2.4-2.1c0.6-1.9-1.3-1.8-2.3-2.4
					c-2.1-1.5-2-4.4-4.1-6.1c-0.1-0.9,0.9-0.9,0.6-1.9c-0.7-0.8-2-0.9-2.7-1.7c-0.1-0.9,0.7-0.9,0.6-1.8c-1.2-0.5-1.6-1.3-2.6-2.2
					c-0.3-0.3-0.6-0.3-0.7-0.6c-0.7-1.1-0.8-2.4-2.2-2.7c0-1.3-0.5-2.1-1.1-2.7c0.1-4.1,0.5-7.8,1.6-11c1.1,1.6,1.9,3.7,3.5,4.6
					c4.5-0.4,8.3-2.5,8.3-6.3c0-2.5-1.9-3.9-3-5.8c-3.7-1.8-10.8-0.9-12.9,2.4c-0.4,0.7-0.7,1.8-1.1,2.8c-1.9,4.6-4.1,10-3.2,16.8
					c0.2,1.6,1.3,4.3,2.1,5.9c2.4,4.7,6.7,10,9.9,14.1c0.5,0.7,0.8,1.5,1.3,2.1c0.6,0.7,2.1,1.5,3.1,2.5c3.1,2.8,6.2,5,10.7,6.8
					c2.9,1.2,5.5,2.9,7.8,3.8c1.3,0.5,3.6,0.4,5.1,0.8c1.5,0.4,2.4,1,4.5,1.2c2.4,0.3,7.2,0.1,10.5-0.2c2-0.2,4.5-0.9,6.5-1.3
					c2.1-0.4,3.8-1.1,5.8-1.9c3.7-1.5,7.4-2.6,11-4.2c6.9-3,13.2-6.9,20.3-9.8c3.6-1.5,7.1-3,10.5-4.8c3.1-1.7,6-3.8,8.9-5.9
					c8.8-6.1,16.6-12.7,23.7-20.2c2.3-2.5,4.7-5,7-7.4c4.8-5,10.4-9.1,15.6-13.5c5.3-4.5,11.5-7.9,17.5-12c3-2,6.3-3.7,9.8-5.2
					c3.5-1.5,7.1-3.1,10.7-4.5c1.7-0.7,3.2-1.3,4.8-1.6C1932.9,7.5,1937.4,8.5,1939.5,6.7"/>
			</g>
		</g>
		<g class="transp07">
			<g>
				<path class="lightgreen1" d="M1922.9,137.4c0.3-0.6,0.1-1-0.4-1.3C1921.9,136.6,1922.1,137.4,1922.9,137.4 M1919.1,142.4
					c0.9-0.1,2.1,0.4,2.8-0.4c-1,0-2.2-0.6-3.1-0.2C1918.8,142,1918.8,142.2,1919.1,142.4 M1938.9,67.4c0.2-0.3,0.4-0.4,0.2-0.7
					C1938.9,67,1938.7,67.2,1938.9,67.4 M1911.6,137.2c-1.5-1.8-3.3-3.9-5-5.4C1908.1,133.6,1909.4,135.9,1911.6,137.2 M1935.2,73.5
					c-1.7-0.3-3.4-0.4-5.1-0.7C1932,73.5,1933.8,74,1935.2,73.5 M1902.4,123.2c-0.5-1.1-0.7-2.2-1.2-3.3c0-0.1-0.1-0.1-0.1,0
					C1901.4,121,1901.7,122.5,1902.4,123.2 M1948.2,11.1c0.3,0.3,1-0.9,1.3-1.1c0.6-0.5,1.4-0.5,1.7-0.9c0.8-1,1.2-2.4,1.7-3.5
					C1951.5,7.6,1949.5,9.3,1948.2,11.1 M1945.9,14.4c0.1-0.3,0.3-0.2,0.4-0.4c0-0.2-0.1-0.4-0.2-0.5c-0.2,0.2-0.5,0.3-0.6,0.7
					C1945.7,14.1,1945.6,14.3,1945.9,14.4 M1939.2,19.6c-0.7,0-1,0.9-1.6,1.2C1938.4,20.8,1939.3,20.6,1939.2,19.6 M1921.2,65.1
					c-0.7-2.1-1.2-4.3-2.5-6.2c-0.6-0.1-1-0.7-1.3-0.5C1918.6,60.8,1919.5,63.1,1921.2,65.1 M1924.3,29.5c-0.4-0.1-0.6,0.3-0.9,0.4
					C1923.9,30.1,1924.1,29.8,1924.3,29.5 M1918,39.7c0.5-1,0.8-1.6,1.3-2.5C1918.6,37.3,1917.9,39.1,1918,39.7 M1891.6,87.7
					c-0.7-0.1-0.9,0.2-1.4,0.5c-1.1,0.6-2.7,0.5-3.4,1.3C1888.6,89.7,1890.4,88.8,1891.6,87.7 M1918.1,30.6c-1.4,0.7-4,1.5-5.8,2.4
					c-0.6,0.3-1.6,0.5-1.6,1.3C1913.3,33.5,1915.7,32.1,1918.1,30.6 M1872.9,105c0.1-0.2,0.1-0.4,0.1-0.6c-0.2-0.1-0.3,0.1-0.5-0.1
					C1872.4,104.6,1872.7,104.8,1872.9,105 M1880.5,84.9c-1.2-0.5-0.8,1-0.1,1.5c0.4,0.3,1.1,0.3,1.4,0.5
					C1881.1,86.4,1881.3,85.3,1880.5,84.9 M1883.3,72.9c-0.2,0.3-0.7,0.5-0.6,0.9C1882.8,73.4,1883.4,73.2,1883.3,72.9 M1876.1,80.1
					c0.2-0.3,0-0.5-0.1-0.7C1875.9,79.7,1876,79.9,1876.1,80.1 M1876.1,76.6c0.5-1,1.2-1.5,1.9-2.1c-0.6-1.2,0.8-2.6,2.1-2
					c-0.1-0.2,0.1-0.5-0.1-0.7C1878.2,72,1876,74.3,1876.1,76.6 M1865.5,89.4c0.2,1.5,0.4,3,0.9,4.4c0.8-0.9,0.6-1.6,0.6-2.4
					c-0.9-0.4-1.1-1.1-0.6-2C1866.1,89.3,1865.7,89.2,1865.5,89.4 M1865.4,87.3c0.2-0.4,0.1-0.6-0.1-0.8
					C1865.3,86.8,1865.2,87.1,1865.4,87.3 M1865.3,86.3c0-0.5,0.3-1.1,0.6-1.8c-0.3-0.1-0.4,0.1-0.8-0.2
					C1865,85.1,1865.1,85.7,1865.3,86.3 M1875.5,62.2c0.4-0.1,1.2-0.8,0.8-1.2c-1,1.1-2.1,2.2-3,3.4
					C1874.1,63.9,1874.9,63.2,1875.5,62.2 M1873.2,64.6c-0.1,0.1-0.6,0.4-0.4,0.7C1872.8,65,1873.4,64.9,1873.2,64.6 M1868.7,73.4
					c0.2-0.4,0.4-0.8,0.6-1.2c-0.8-2.1,1.6-3,2.8-4.2c-1-0.3-0.5-1.3,0-2c-1.7,1.2-2.8,3.7-4.2,5.7
					C1868.5,72.1,1868.6,72.8,1868.7,73.4 M1955-4.6c0.9,0.4,1.5,1,1.8,1.6c-0.2,0.9-0.8,1.5-1.2,2.2c0.2,0.7,0.4,1.4,0.2,2.3
					c0.7,0.3,1.5,0.5,1.8,1.1c-0.3,1.2-1.8,1.5-2.3,2.8c-0.3,0.6-0.1,1.4-0.5,1.9c-0.2,0.4-0.8,0.5-1,0.8c-0.6,0.8-0.7,1.9-1.3,2.5
					c-0.4,0.4-0.8,0.3-1.2,0.5c-0.6,0.4-1,1-1.6,1.4c0.1,2-1.9,1.8-3.2,1.7c0,1-0.1,1.7-1.3,2.2c-0.3,0.1-0.9,0.1-1.3,0.4
					c-0.3,0.2-0.5,0.8-0.9,1.3c-0.4,0.4-1,0.6-1.2,0.8c-0.6,0.8-0.5,2-0.9,2.6c-0.3,0.4-0.9,0.4-1.6,0.9c-0.8,0.6-1.2,1.6-2.3,1.1
					c-0.5-0.3-0.5-0.8-0.8-1.1c-0.2,0-0.4,0.3-0.6,0.4c-0.1,0.3,0.8,0.4,0.7,0.9c-1.2,1.9-3,2-4.3,3.8c-1.4-0.2-2.8,0.2-3.2,2
					c-0.9,0.2-2,0.6-2.4,1.4c-0.4,0.8-0.3,1.7-0.6,2.4c-0.5,1.2-1.8,2.4-2.5,3.7c-0.4,0.6-0.7,1.4-1.1,1.9c-0.4,0.4-1.1,0.5-1.5,0.9
					c-1.7,1.9-1.3,4.4-1.6,6c-0.2,1.2-0.4,2.2-0.4,3.1c0.5,1.5,0.1,3.4,0.3,5c1.7,3.8,3.5,7.6,4.7,11.7c0.5,0.9,1.8,1.4,2.8,2.3
					c0.4,0.3,0.5,0.8,0.9,1.1c0.7,0.6,1.5,0.5,2.4,0.8c0.4,0.2,0.7,0.5,1.1,0.6c0.5,0.2,1,0.1,1.7,0.2c0.7,0.1,1.5,0.4,2.1,0.4
					c1.2,0,2.7-0.5,3.4-1.4c-0.6-0.9-1.7-1.2-1.5-2.3c0.1-0.6,0.8-2.3,1.1-2.6c1-1,4.1-1.7,5.1-1.3c0.7,0.2,1.3,1.1,1.6,1.6
					c0.6,1.1,0.7,3.7,0.3,4.8c-1.3,3.7-4.8,5.2-7.4,5.9c-2.1,0.6-5,0.2-7.2-0.8c-1.3-0.6-2.6-1.7-3.7-2.7c-1.1-1-2.2-1.9-3.3-2.8
					c-3-2.4-4.8-5.7-6.3-8.9c-0.9-1.8-1-4.1-1.6-6.4c-0.4-1.5-0.4-3.1-0.6-4.6c-0.3-2.3-0.6-4.2-0.1-6.5c-2,3.8-4.5,7.9-6.1,12.4
					c0.1,0.5-0.1,1.1,0.1,1.7c-4,9.3-5.5,17.8-7.4,26.6c0.3,0.2,0.7,0.4,1,0.8c0.1,0.8-0.6,1.8-0.7,2.8c-0.1,1.3,0.6,2.3,0.3,3.8
					c-0.2,1.3-0.5,2.3-0.5,3.5c0.1,3.1,0.3,6.4,0.7,9.6c0.1,1,0.5,2.1,0.7,3.1c0.2,1,0.3,2.1,0.6,3.1c0.5,2.1,0.5,4.2,0.7,6.3
					c0.2,1.5,0.7,3,0.9,4.5c0.1,1.1,0,2.2,0.4,3.1c0.4,0.9,1.2,1.9,1.7,3c0.5,1.1,1,2.3,1.7,3c0.3,0.3,0.7,0.4,1,0.7
					c0.7,0.7,1.3,1.7,2,2.5c0.8,0.9,1.4,1.9,2.2,2.5c0.6,0.4,1.5,0.6,2.1,1c0.9,0.6,1.3,1.7,2,2.2c0.8,0.5,2.8,0.4,3.1-0.3
					c0.3-0.7-0.6-1.4-0.6-2.3c0-2.6,3.7-5.5,6.2-2.9c0.9,0.9,1.4,2.8,1.5,3.6c0.3,2-1.1,4.8-2.4,5.9c-0.4,0.4-2.4,1.3-3.1,1.4
					c-0.9,0.3-3.6,0-4.8-0.2c-5.9-1.4-9-6.6-11.6-10.1c-0.7-0.9-1.2-1.8-1.7-2.9c-0.9-2-1.7-3.2-2.3-5.2c-0.7-2.3-1.8-4.8-2.5-7.3
					c-0.4-1.7-0.4-3.4-0.6-5.2c-0.1-0.9-0.3-1.7-0.4-2.6c-0.1-0.9,0.1-1.8,0-2.7c0-0.6-0.3-1.1-0.4-1.7c-0.3-1.9-0.2-3.7-0.3-5.5
					c-0.1-1.3-0.3-2.5-0.4-3.9c-0.1-1.3,0.1-2.7,0.1-4.1c0-2.6-0.9-5.4-0.3-7.9c0.3-1.3,0.7-1.9,0.5-3.1c-0.4,0.3-0.5,1.1-0.9,1.3
					c0.6,1.7-1.2,3.7-2.6,4.9c-1.7,1.5-2.6,2.1-4.5,2.8c-1.6,0.6-1.9,0.6-3.7,0.4c-1.9-0.3-6.2-2.3-7.7-4c-0.4-0.5-0.6-1.4-1-1.9
					c-0.4-0.5-1-0.8-1.2-1.2c-0.2-0.4-0.2-1.2-0.5-1.9c-0.3-0.7-0.8-1.2-0.9-2c-0.1-0.6,0.1-1.4,0.1-2.2c0-1.1-0.3-2.1-0.1-3
					c0.5-2.3,2-4.5,3.7-5.7c0.6-0.4,2.3-1,3.1-0.9c0.3,0,0.6,0.4,1.1,0.5c0.5,0.2,1.1,0.1,1.5,0.4c1.1,0.8,1.8,3.3,0.9,4.7
					c-0.7,1.1-3.2,2.7-4.2,2.5c-0.8-0.1-1.3-0.8-2-1.1c-1.3,0.9-0.8,1.8-0.7,3.2c0.2,1.2-0.1,2.2,1.1,2.9c0.5,0.3,1.1,0.1,1.6,0.3
					c1.2,0.6,1.3,2.9,3.5,3.7c1,0.4,1.8,0.3,2.8,0.4c0.5-0.2,0.8-0.9,1.3-1.1c0.4-0.1,0.5,0.5,0.8,0.7c1.9-0.8,3.8-1.4,5.2-3.7
					c0.8-0.2,0.9-0.7,1.5-1.9c0.9-1.6,2.2-3.9,3-5.7c2.3-5.5,2.8-11.3,5.1-17.1c1.1-2.9,2.4-5.7,3.3-8.7c0.9-3,2.2-6,3.6-8.3
					c1.5-2.5,3.8-3.7,5.4-6.3c-0.9,0.2-1.8,0.6-2.7,1.1c-2.6,1.3-5.4,2.9-8.1,3.9c-1.4,1-2.9,1.8-4.5,2.6c-0.5,0.2-1.1,0.3-1.6,0.5
					c-0.6,0.4-1.1,1.1-1.8,1.6c-1.6,1.3-3.1,2.9-5.1,4c-0.4-0.1-0.5-0.4-0.8-0.4c-0.7,0.6-1.4,1.3-2.2,1.8c0,0.4-0.2,0.9-0.1,1.4
					c-2,2.1-4.1,3.9-6.2,5.7c-1.7,2.3-3.7,4-5.5,5.9c0.7,0.2,0.6,1.4,0.1,2.3c-0.6,1.1-2,1.8-2.8,2.9c-0.2,0.2-0.3,0.6-0.4,0.9
					c-1.6,2.5-4.2,5-5.2,7.6c-0.4,1.2-0.1,2.5-0.7,3.7c-0.6,0.1-1.1,0.2-1.1,1c0.6-0.3,0.5,0.6,0.9,1.1c0.6-0.6,0.6-2.1,1.4-2.2
					c0.9,0.3,0.6,1.7,0.1,2.7c0.8,1.1-0.3,2.9-0.9,4.2c0.8,0.7,0.6,1.8,0.1,2.9c1.1,0.6,1,2.1,0.1,3.7c0.9,0.2,0.9,1.1,0.7,1.9
					c1.3,0.1,0.8,1.2,0.9,1.9c0.4,1.6,2.2,2.1,2.8,3.7c0.5,0.3,0.7-0.3,1.3,0.1c0.3,0.6,0.1,1.4,0.5,2c0.5,0.3,0.7-0.2,1.2,0
					c0.1,0.8,0.4,1.2,0.8,2c0.1,0.2,0.1,0.4,0.2,0.5c0.5,0.6,1.3,1,1.2,1.9c0.8,0.3,1.1,0.7,1.4,1.2c2.4,0.8,4.7,1.3,6.8,1.3
					c-0.7-1-1.8-1.9-2-3c1.2-2.5,3.2-4.4,5.4-3.6c1.4,0.5,1.9,1.9,2.8,3c0.3,2.6-1.7,6.5-4.1,7.1c-0.5,0.1-1.2,0-1.9,0.1
					c-3.1,0.2-6.7,0.4-10.6-1.6c-0.9-0.5-2.3-1.6-3-2.4c-2.3-2.4-4.5-6-6.3-8.8c-0.3-0.4-0.7-0.8-0.9-1.2c-0.3-0.5-0.5-1.5-0.8-2.3
					c-1-2.4-1.6-4.7-1.8-7.7c-0.1-2-0.6-3.8-0.6-5.4c0-0.9,0.5-2.2,0.6-3.2c0.1-1-0.1-1.6,0.2-2.9c0.3-1.5,1.4-4.3,2.3-6.1
					c0.5-1.1,1.5-2.5,2.1-3.5c0.7-1.1,1.4-2,2.3-3c1.7-1.9,3.1-3.8,4.8-5.6c3.2-3.4,6.8-6.4,10-9.9c1.6-1.8,3.3-3.6,5-5.2
					c1.6-1.5,3.5-2.7,5.3-4.1c5.5-3.9,10.9-7.2,16.8-9.8c1.9-0.8,3.9-1.7,5.8-2.6c3.9-1.8,7.5-4.3,11.2-6.4c3.8-2.2,7-5.1,10.7-7.8
					c1.8-1.3,3.5-3,5.1-4.7c1.6-1.7,3.3-3.6,4.9-5.4c0.8-0.9,1.4-1.6,2-2.5C1953.2-0.9,1953.5-3.7,1955-4.6"/>
			</g>
		</g>
	</g>
	<g>
		<g>
			<path class="lightgreen1" d="M179.3,71.9c0.4-0.3,0.9-0.2,1.4,0C180.3,72.2,179.5,72.7,179.3,71.9 M147.9,44.9c1.5,0.5,3,1.2,4.5,1.8
				C150.8,47.6,148.6,46.9,147.9,44.9 M160,65.4c0.8-0.4,1.6-0.4,2.5-0.1c-0.5,0.7-1.2,0.8-1.7,1.6C160.3,66.4,160.4,65.9,160,65.4
				 M136.4,42.8c-0.5,0.9-1.2,0.2-1.8,0.9c0,0.7,0.5,0.3,1.1,0.9c-1.7,1.1-3.1-1.4-4.9-1.7C132.6,42.2,134.5,42.4,136.4,42.8
				 M169.4,73.3c-0.4,0.8-2.3,1-2.9,0.4C167.5,73.3,168.4,72.8,169.4,73.3 M174.2,90.4c1.1,0.6,2.2,0.9,3.3,1.6
				C176.2,92.5,173.5,92.5,174.2,90.4 M184.4,99.6c0.1,0.3,0.3,0.6,0,1c-0.3-0.3-1.1-0.6-1-1C183.7,99.6,184,99.2,184.4,99.6
				 M165.5,88.7c0.9,0.1,1.9,0.1,2.8,0.4c0,0.7,0.5,1.4,0.2,2.1c-0.9-0.3-1.6,0.6-2.5,0.1C167.3,90.1,165.4,89.7,165.5,88.7
				 M169.9,92.8c0.3-0.3,0.9-0.5,1.5-0.6c0.9,0.7,0.3,1.6,0.8,2.3c0.9,0.4,2.3,1.1,1.8,2.1C172.4,96,168,95,169.9,92.8 M128.7,61
				c0.9,0.5,1.9,1.1,2.9,1.8C130.3,63.6,128.4,62.5,128.7,61 M125.4,62.3c-0.7-0.2-1.4-0.2-2.1-0.8
				C123.9,61.2,125.1,61.6,125.4,62.3 M118.8,56.9c-0.5-0.1-1.1,0.1-1.6,0.5c-0.2,0.6,0,1.2,0.1,1.8c-0.8-0.2-2.6-0.4-2.7-1.5
				c1-0.3,2.1,0.2,3-1.2C117.9,56.5,118.8,56.6,118.8,56.9 M87.8,65.3c-1.6,0.8-3.1,2-4.6,2.5C84.3,66.3,86.3,65.4,87.8,65.3
				 M87.3,98.9c0.2-0.1,2.4,1.4,2.2,2.1C88.9,100.3,87.7,99.6,87.3,98.9 M62.1,85.9c1.6-0.2,4.1,2.6,4.8,3.3
				c-0.2,0.2-0.3,0.4-0.5,0.6c0.2,0.6,0.7,0.8,0.5,1.6c-0.2-0.3-0.4-0.7-0.8-0.7c-0.4,0.2-0.1,0.4-0.4,0.7
				C64.1,89.5,63.4,87.6,62.1,85.9 M70.8,119.5c-0.2,0.6-0.8,0.5-0.9,1.3c2.4,4.3,8,8,12.6,10.8c3.4,2.1,6,5.5,8.5,3.6
				c0.5,0.3,1,0.4,1.6,0.5c0.7-0.8,1.2-1.5,1.3-2.3c-3.9-4.6-10-7.5-14.5-11.8c0.4-0.8,0-1.6-0.2-2.4c-1.8-1-2.9-1.1-4.7-2.7
				c-0.9-0.9-2.3-1.6-3-2.3c-0.9-0.9-1.4-2.6-2.4-3.8c-1.1-1.4-2.4-2.5-3-3.7c-1.4-2.7-0.7-5.8-2.2-7.8c-0.4-0.5-0.8,0-1.2,0.2
				c-0.8-1.9-0.4-3.9-0.1-5.8c6,6.7,9.5,13.7,16.2,20.3c0,1.2-1.3,1.7-1.7,2.7c1.6,2.8,4.9,4.3,7.5,6.3c2.4,1.8,4.9,3.6,7,5.1
				c1.5,1.1,2.9,3.1,4.8,3.3c0.6-0.3,1-0.7,1.3-1.3c0.7,0.1,1.4,1.2,2,0.9c0.5-0.4,1.4-1.5,1.4-2.2c-2.3-3.1-5.7-7.5-8.5-10.7
				c-1.9-2.2-4.8-5.4-7.9-6.7c-0.7,0-1.4,0.4-2.1,0.8c-6.7-4.7-10.5-10.8-14.1-16.4c0.9,0,1.1-0.6,1.9-1.4c-1.2-1.2-1.2-2.6-2.6-3.8
				c1.2,0.3,2,1.3,2.9,2c2.3,2,5.8,3.3,7.6,5.4c2.1,2.4,4.1,5.8,6.8,8.5c4.3,4.3,9.7,7.2,14.9,7.9c0.6-1.2,1.8-3.5,1.2-4.8
				c-0.2-0.5-1-0.8-1.5-1.3c-2.5-2.5-4.8-6.9-8.2-10.1c-2.4-2.3-5.5-4.3-8.1-4.6c-1.4-0.2-2.6,0.4-3.8,0c-0.3-0.6-0.5,0.6-0.8,0.3
				c-3.8-1.7-6.6-5.3-10.2-6.6c-0.5-2.8-4.7-3.5-6.7-5.2c-0.6-0.5-1.1-1.3-1.8-1.9c-0.8-0.8-1.7-1.4-2.4-2.4
				c-0.9-1.3-1.1-3.2-1.7-4.6c-0.6-1.6-1.3-3-2.3-4.6c5.5,1.9,11.1,2.7,16.6,4.2c1.1,0.3,2.1,0.8,3.1,1c2,0.5,4.6,1.1,7,1.9
				c3.3,1.1,6.7,1.9,10,2.8c4,1.1,8.1,2.1,12.3,3.4c4,5.8,7.2,11.7,11.2,17.5c0.1,1.4,0.5,2,2,3.1c3.3,2.4,7.2,8.1,11.2,10.4
				c0.4,0.5,0.3,1,0.6,1.5c6.7,5,13.3,8.1,19.7,8.3c0.8-0.5,0.1-1.1,0.6-1.2c0.9-0.2,1.9,0,2.8,0c0.1-0.9,0.1-1.7,0-2.6
				c-2-0.7-3.9-3.2-6.1-4.5c-3.2-1.9-6.1-2.5-9.1-2.9c-0.5,0.2-0.7,0.3-1,1c-1.6-1.1-3.7-1.7-5.6-2.1c-1.2-0.3-2.9-2.1-4.4-3.5
				c-1.9-1.7-3.7-2.7-4.8-4.4c4.6,1.4,9.2,2.3,13.9,4.3c2-1.3,4.2,1.5,6.8,3.3c1.5,1,3.2,1,4.2,2.1c5.2,0.8,10.6,4.2,15.7,4
				c0.7-0.6-0.5-1.1,0.3-1.8c1.5-0.2,3,0.3,4.4,0.2c0.3-1.2,0.3-2.7-1.4-3.3c0.6-0.4,0.6-1.4,0.4-2.1c0.7-0.7,1.5-0.1,2.2-0.7
				c0.1-0.9-0.3-1.8-0.3-2.7c-3.6,0.4-7.4-0.6-11.2-2c-2.4-2.6-4.9-1.3-7.3-1.3c-1.6,0-3.1-0.7-4.6-0.9c-1.4-0.2-2.9,0.3-4.3,0.2
				c-1.4-0.1-2.5-0.9-3.9-0.5c-0.5,0.5-0.7,0.9-0.7,1.4c-2.2,0.4-4.9-0.6-7.7-1.5c-3.4-1.1-7.2-1.4-10.2-4.2
				c-3.2-2.9-4.1-7-6.9-10.2c0.9-1.4-0.1-2.7,0-4c4.3,1.9,8.2,0.3,12.5,1.5c2.2-0.1,4.4-0.2,6.7-0.4c0.6-0.2,0.3,1,0.9,0.8
				c3.9,0.2,7.8-0.2,11.7-0.5c0.4-0.3,0.7-0.7,1.1-0.9c2.7,1.6,5.9,2.6,8.3,4.4c3,0.8,6,1.9,9.1,4.3c0.6,0.3,0,0.7,0.5,1
				c6.1,4.4,12.8,7.6,18.8,8.8c2.2,0.4,6.2,1.8,6.4,4.7c2.7,2,3.1-1.8,2.8-3.4c1.8-0.5,7.9,1.1,4.8-3.3c0.3-0.5,1.4-0.7,2.1-1.3
				c0.5-1.3-0.9-3.9-2.6-2.8c0.6-1.4,0.5-2.9-0.8-3.5c-0.9-0.4-1.7,0.4-3.1,0.6c-1.1,0.2-3.3,0-4.4-0.7c-1.2-0.7-2-2-3.4-2.6
				c-0.6-0.3-1.4,0-2.1-0.1c-2.8-0.7-5-2.5-7.7-2.9c-2.2-0.3-4.4,0-6.5-0.7c-4,0.6-8,0.3-12.3-2.2c2.1-1.7,5.9-2.6,8.8-2.2
				c1.1,0.1,1.6,0.6,2.3,0.6c1.7,0,2.8-0.3,3.8-0.6c1.5-0.4,4.3-2.8,6.2-2.4c0.7,0.2,1.4,0.9,1.9,1c1.2,0.3,3.7,0.1,4.6-0.5
				c1-0.6,1.4-1.6,2.3-2c1.2-0.6,2,0.1,3.4-0.3c0.5-0.4,0.5-0.8,0.6-1.1c1.2-0.7,3-0.4,3.7-2.3c1.3-1.4,3.2-0.1,4.3-1.4
				c0.9-1,0.5-3.2-0.3-3.9c-1.5-1.2-3.6,1.1-5,1c-0.5,0-0.6-0.8-1-1.2c-1.6-0.5-3.1,0.2-4.6,0.3c-0.2-1.5,0.9-3.4-0.9-4.4
				c-2-1.1-4.9,2.5-7.3,3.4c-0.8,0.3-1.6,0.1-2.2,0.3c-1.4,0.6-2.2,1.7-3.4,2.1c-2.4-0.9-3.8,1.9-6.5,3.5c-2.6,1.5-6.8,0.4-6.2,3.8
				c-2.2,1.6-4.7,0.3-7,1.9c2.1-3.7,5.8-4.9,9-6.4c1.1-0.5,2.3-0.7,3.1-1.4c2.8-2.2,4.4-5.4,7.6-7.9c-0.1-1.1,0.5-2.6-0.9-3.4
				c-1.2-0.6-2.4,1.1-3.3,1.6c-2.2,1.2-4.8-0.2-7,0.7c-1.4,0.6-2.9,2.6-4.6,4.1c-0.7,0.6-1.6,0.9-1.9,1.4c-0.5,0.8,0,2.1-0.5,3
				c-0.5,0.9-1.5,1.5-2.1,2.2c-0.5,0.7-0.4,1.7-0.9,2.5c-1.6,2.7-4.9,3-6.8,4.8c-0.6-0.8-1.5,0.3-2.3,0.1c-0.4-0.1-0.7-0.7-1.1-0.8
				c-1.6-0.4-4.3,0.9-6.4,1c-1,0.1-2.1-0.1-3.3-0.1c-1.2,0-2.3,0.3-3.2,0.3c-0.7,0-1.3-0.4-1.9-0.4c-3.7-0.1-7.2,0.4-10.6-0.4
				c-1.6,0.8-2.9-0.5-4.9-1c-1.2-0.3-2.6,0-3.4-0.5c-1.1-0.6-1.7-2-3.1-2.4c-0.7,0-0.6,1.1-1.2,1.2c-6-1.3-12-3.1-18-4.6
				c-0.5-0.3-0.5-0.8-0.9-1.1c-0.7,0-1.4-0.3-2.1-0.4c2.9-2.1,6.9-3.6,10.5-5.1c1.2-0.5,2.3-1.3,3.5-1.8c1.2-0.5,2.1-0.7,3.1-1.4
				c1-0.7,1.9-1.5,3-2.1c1.7-1,3.6-1.2,5.2-2c0.8-0.4,1.4-1.2,2.4-1.2c1.7,0,3.5,1.6,5,2c3.8,4.8,10.6,5,15.6,6.1
				c1.7,0.4,3.3,0.6,5.5,0.8c2.4,0.3,7,0.6,4.8-2.9c-6.1-4.8-12.8-8.6-18.9-9.5c-0.6-0.1-1.1,0.8-1.7-0.1c-0.1,0.7-0.6,0.1-1,0.2
				c-1.8,0.3-3.7,1.1-5.7,0.4c1.7-1.4,3.9-2.8,6-4.1c0.9-0.6,2.1-0.7,3-1.2c2.6-1.4,4.7-3.8,7.5-4c2.1,3.9,6.2,4.6,9.9,5.7
				c1.8,0.5,3,0,4.9,0.1c1.8,0.1,3.5,1,5.2,1c2.1,0,4.2-0.7,6.1-1.4c3.3,1,6.5,0.7,9.8,1.8c0.9-1.1,3.3-0.7,3.9-1.9
				c0.5-0.8-0.2-1.6-0.3-2.7c-2.3-0.5-5.4-0.3-7.7-1.7c-0.7-0.4-1.2-1.3-1.9-1.8c-2-1.3-5-1.5-7.3-2.4c-2.5-1-4.6-2.6-7-2.5
				c-0.5,0.2-0.9,0.5-1.3,0.9c-2.8-0.5-6.2-1.1-9.3-0.8c-1.5,0.2-2.8,0.3-3.7,1.8c-2,0.6-4.6,0.8-6.4,2.2c-1.2,0.9-2,2-3.3,2.8
				c-1.6,0.9-3.4,1.7-5.4,2.8c-0.6,0.4-1.2,0.7-1.9,1c-1.9,1.1-3.3,2.8-5.1,3.3c-0.6,0.1-1.4,0-1.9,0.2c-0.7,0.3-1.2,1.1-1.9,1.4
				c-0.8,0.3-1.6-0.1-2.5,0.1c-0.7,0.2-1.3,0.8-2.1,1c-0.7,0.3-1.6,0.2-2.2,0.5c-0.7,0.3-1.2,1.1-1.9,1.6c-1.7,1.1-3.8,1.8-5.7,3
				c-1.9,1.2-4.1,2-5.7,3.2c-0.6,0.4-0.9,1.1-1.5,1.5c-0.9,0.6-2,0.7-2.9,1.3c-1.2,0.8-2.1,2-3.3,2.6c-5.4-1-11-3.8-16.4-4.8
				c-0.6-0.4-0.9-0.9-1.3-1.3c-9.7-0.7-19.7-5-29.5-6.8c-1.2-3-5.2-3.1-7.8-3.5c-2.3-0.4-4.4-1.2-6.3-1.1C7.6,50.7,2.7,49-2.2,47.5
				c-2.4-0.8-4.9-1.2-7.3-2.2c-2.3-0.9-4.7-2.1-7.2-2.3c-2.4-1.4-4.6-1.9-6.9-2c-0.7,0.9-0.3,1.8-0.2,2.6c-0.6,0.6-1.6-0.6-2.5,0.1
				c-0.6,0.5-0.8,1.8-0.3,2.3c0.3,0.3,2.1,0.5,3,0.7c4.9,1,9.7,2.4,14.6,3.9c2.5,0.8,4.9,1.1,6.8,2.5c6.5,1.3,13.5,3.1,20.2,5.3
				c1.8,0.6,3.6,0.7,5.5,1c2.7,0.5,5.4,1.6,7.9,2.4c1.4,0.5,3.1,0.7,4.6,1.1c1.6,0.4,3.2,1.2,4.7,1.5c1.2,0.3,2.8,0.3,4.2,0.7
				c1,0.3,2.7,0.8,3.3,1.3c0.5,0.5,1.1,2.5,1.5,3.4c1.3,3.2,4.2,6.9,5.5,10c0.9,2.1,1.2,4.4,1.4,6.9c0.2,2.3,0.7,7.5,3.4,7.3
				c-0.1,2-0.1,3.7,0.3,5.8c0.3,1.7,0.9,3.1-0.4,4.5c0.3,4.3-0.6,8.6,0.2,12.9c-0.7,2.3,0.3,4.5,0.4,6.7c0,0.7-0.3,1.3-0.3,2
				c0,1.2,0.5,2.7,0.9,4.1c0.4,1.3,0.7,2.9,1.2,4c0.2,0.5,0.7,0.8,0.9,1.3c0.6,1.7,0.6,3.5,1.3,5.1c0.8,1.7,2,3.2,2.8,4.9
				c0.3,0.8,0.2,1.7,0.5,2.4c0.6,1.3,1.7,3,2.7,4.4c2.7,4.1,6.1,7.7,10.3,10.7c0.6,0,1.5-0.8,1.7-1.6c1.9,2.2,4.6-0.3,3.5-2.3
				c-4.4-3.3-8.2-11.7-13.6-11.8c-0.3,0-0.9-0.2-1.2,0.4c-0.6-1.4-0.8-2.8-1-4.2c-2.7-2.8-3.7-5.7-3.7-8.7c7.9,5,9.1,12.3,16.4,18.3
				c0.6,0.1,1.2-0.4,1.8-0.3c4.9,4.1,11.2,7.2,15.9,9c0.9-0.3,2-1.7,1.7-2.5c-6.8-6.5-11.7-16.6-21.4-19.1c-0.5,0.2-0.9,0.8-1.3,1.3
				c-3.5-3.4-7.5-6.2-11-8.9c-1.4-1-2.5-2.5-3.8-1.4c-1.8-2.6-1.8-5.7-1.9-8.6c-0.1-1.2-0.6-2.3-0.6-3.5c0-0.9,0.4-1.7,0.3-2.5
				c0-0.9-0.5-1.7-0.6-2.7c-0.2-1.6,0.1-3.4,0.1-5.1c0-1.8,0-3.6,0-5.2c0.1-0.1,0-0.2,0.1-0.3c0.7,1.7,0.7,3.9,1.7,5.8
				c0.7,1.3,2.2,2.1,3,3.3C68.5,114.9,70,117.4,70.8,119.5"/>
		</g>
	</g>
	<g>
		<g>
			<path class="lightgreen1" d="M778,97.3c-0.6,0-1.2,0-1.6,0.5c-0.4,0.6-0.5,1.3-0.7,2c-0.1,0.3,0,0.7-0.2,0.9c-0.2,0.2-0.4,0.2-0.6,0.2
				c-0.5,0.1-1.1,0.6-1.3,1.1c-0.3,0.5-0.6,1.1-0.6,1.7c0,0.9,1.5-0.1,1.8-0.4c0.3-0.3,0.5-0.6,0.6-0.9c0.1-0.4,0.3-1,0.3-1
				s0.7-0.2,1-0.3c0.3-0.1,0.6-0.4,0.8-0.6c0.4-0.3,0.5-0.7,0.6-1.2c0-0.2,0.1-0.5,0.1-0.7c0.1-0.4,0.3-0.9,0.3-1.3"/>
			<path class="lightgreen1" d="M795.4,91.9c-0.3-0.3,0.2-0.5,0.6-0.5c0.2,0,0.4,0,0.6,0c0.2,0,0.3-0.1,0.6-0.1c0,0.1,0,0.2,0,0.3
				c0.2,0,0.3,0,0.5,0.1c0.1,0,0,0.2-0.1,0.3c-0.5,0.3-1.3,0.3-1.9,0.1L795.4,91.9z"/>
			<path class="lightgreen1" d="M1183.1-30.7c0.3-0.3,0.5-0.7,0.7-1.1c0.1-0.2,0.7-1.1,0.1-1c-0.3,0-0.5,0.1-0.8,0.1c-0.3,0-0.6,0.1-0.9,0.2
				c-0.2,0.1-0.4,0.6-0.5,0.8c-0.2,0.4-0.3,0.7-0.5,1.1c-0.2,0.4-0.4,0.9-0.6,1.4c-0.2,0.4-0.3,0.8-0.4,1.3c0,0.2-0.2,0.6,0,0.8
				c0.2,0.2,0.5-0.2,0.7-0.4c0.4-0.5,0.7-1.2,1.1-1.7C1182.4-29.7,1182.7-30.2,1183.1-30.7"/>
			<path class="lightgreen1" d="M839.7,94.8c0,0,2.9,0.6,5.5,0c2.5-0.6,6.7-1.6,8-2c1.3-0.4,2.6-0.4,2.6-0.4s1.6,0.4,3-0.4
				c1.4-0.8,4.5-3,5.2-3.5c0.7-0.5,1.1-0.8,1.8-0.9c0.6-0.2,1.6-0.3,2.5-0.9c0.9-0.6,4.4-3.7,6.2-4.8c1.9-1.1,2.1-0.9,4.5-1.7
				c2.5-0.8,4.7-1.9,6.8-2.6c2.1-0.8,4.7-1.7,10.4-1.9c5.7-0.2,8.4,0.6,12.1,1.8c0,0,0.1,0,0.3-0.3c0.2-0.4,1.6-3.1,0.2-3.9
				c-1.4-0.9-8.4-2.2-17.7-0.2c0,0-6.5,1.7-11.7,4.1c-5.2,2.4-6.9,3.5-11.3,5.2c-4.4,1.7-5.5,2.4-7.5,4c-2,1.5-6.4,4.2-10.9,5.6
				c-4.4,1.4-5.5,1.9-9.6,2.6C840,94.3,839,94.5,839.7,94.8"/>
			<path class="lightgreen1" d="M777.6,97.8c0,0,2.8-5,8.6-8.5c5.7-3.5,7.4-3.1,7.7-3.2c0.3-0.1,5.3-0.5,6.9-0.8c1.6-0.3,6.9-0.8,9.9-0.7
				c0,0,2.2,0.1,4.6,0.6c0,0,2,0.9,3,1c1,0.2,14.5,2,21,0.5c7.1-1.6,8.7-3.1,10.3-3.8c1.7-0.7,2.3-0.3,5.1-2.3c2.8-2,4-3.8,5.3-5
				c1.3-1.3,3.8-4.2,9.8-8.2c0,0,2.8-1.7,3.3-2.7c0.5-1,0.9-1.7,3.1-2.7c2.2-1,11.6-4.3,18.4-4.4c0,0,2.5,0.1,6.1,1
				c0,0,1,0.5,2.2,0.2c1.1-0.2,2.8,0.5,3.3,0.6c0.5,0.1,6.3,2.1,6.3,4c0,1.9-1.7,1.5-2,1.4c-0.3,0-4.5-1.4-6.6-1.3
				c-2.1,0.1-4.4,0.2-5.2-0.2c-0.8-0.4-1-0.7-2.8-0.6c-1.8,0.1-6.8-0.8-16.1,4.6c0,0-4.2,1.8-6.2,4c-2,2.2-3.4,2.4-5,3.2
				c-1.6,0.8-4.9,3.7-7.4,5.3c-2.5,1.6-4.8,4-9.9,6.8c0,0-3.6,3-7.4,4c-3.8,1-10.8,1.1-12,1c-1.1-0.1-1.3,0.5-2.8,0.4
				c-1.4-0.1-9.6-0.2-11.7-0.7c-2.2-0.6-2.5-0.5-3.7-0.5c-1.1,0-7,0.1-9.9-1.3c0,0-0.5-0.5-1.6-0.4c-1.1,0-3.5-0.3-4.7-0.3
				c-1.3-0.1-3.2-0.5-7.8,1.6C785.5,92.6,778,98.4,777.6,97.8"/>
			<path class="lightgreen1" d="M862.8,81.8c0,0-0.2,0.4,0.7,0.2c0.8-0.3,5.4-2.2,7.2-3.1c1.8-0.9,5.6-3.2,8.2-4.1c2.6-0.9,4.2-0.9,4.7-1.2
				c0.6-0.3,2.9-1.9,5.8-2.6c3-0.6,6.1-1.4,14.7-0.5c0,0,5.6,0.8,6,0.7c0.4,0,0.3-0.1,0.4-0.3c0-0.2,0.4-0.8,0.4-1.2
				c0.1-0.4,0.3-0.9-0.7-1.5c-1-0.6-5.4-3.4-17.5-3.3c0,0-2.6,0.4-5.4,1.8c-2.8,1.4-3,1.6-4.4,1.6c-1.4,0-2.7,1.3-2.7,1.3
				s-3.2,2-4.4,2.9c-1.3,0.9-3.4,2.8-4.9,3.3c-1.5,0.5-2.4,1-3.1,1.7c-0.6,0.7-2.1,2.1-3.1,2.5C863.7,80.5,863.1,81,862.8,81.8"/>
			<path class="lightgreen1" d="M922.3,75.9c0,0,0.3,0.4,0.9,0.9c0.5,0.5,3.7,4,6.5,11.1c0,0,0.4,1.3,0.4,0.2c0-1.1,1.3-8.5-4.5-17.2
				c0,0-0.3-0.2-0.7,0.3C924.5,71.7,922.3,73.9,922.3,75.9"/>
			<path class="lightgreen1" d="M919,81.8c0,0-0.2,0.9,0.4,1.8c0.6,0.9,1,1,2,3.1c1.1,2.1,1.2,2.4,2,4.4c0.8,2,2.3,4.9,2,8.4
				c-0.3,3.5-1.1,4.4-1.3,6.7c0,0,0.1,1.2-0.5,1.6c-0.5,0.5-1.2,1.8-0.9,2.1c0.3,0.3,1.1-0.1,1.6-0.4c0.6-0.4,1.1-1.1,1.3-1.8
				c0.2-0.6,1.1-2.3,1.6-3c0.6-0.7,2-3.5,1.8-6.7c-0.2-3.2-1.4-9.4-1.6-10.1c-0.2-0.7-0.4-2.5-1.4-3.6c-0.9-1.1-1.7-2-2.6-3.9
				c-0.9-1.9-1.3-3.4-1.9-3.4C921,77.2,919.5,79.5,919,81.8"/>
			<path class="lightgreen1" d="M930.2,75.1c0,0,2.7,10.1,2.3,18.1c-0.4,8-2.5,13.7-2.5,13.7s-0.2,0.5-0.6,0.5c-0.4-0.1-0.6-0.3-0.8,0.1
				c-0.2,0.4-0.5,3.5-6.9,5.2c0,0-5.4,1.3-8.9-5.2c0,0-3.1-6.4-3.1-13.3c0,0,0.3-2.6,0-3.8c-0.4-1.2-1.1-1.6-0.8-3.8
				c0.2-2.2,1.6-7.8,2.6-10.7c1-2.9,1.9-6.3,1.7-6.6c0,0-0.9,0.2-1.4,2c-0.4,1.8,0,1.9-0.2,2.4c-0.3,0.4-0.8,0.7-1.6,4.7
				c-0.9,4-0.9,2.7-1.5,4.8c-0.5,2.1-1.5,8.4-1.1,14.2c0.4,5.8,2.1,10.6,3.8,13.8c0,0,1.5,2.5,2.1,3.2c0.5,0.7,0.4,1,0.4,1
				s-0.1,0.6,0.7,1.3c0.8,0.7,3.6,2.8,7,2c3.4-0.7,8.3-4.8,10.5-8.7c2.2-3.9,4-9.1,3.8-15.4c-0.1-6.4,0.3-11-4.1-18
				C931.7,76.7,930.4,74.6,930.2,75.1"/>
			<path class="lightgreen1" d="M918.8,84.8c0,0,1,3.2,2.4,5.5c1.4,2.3,2.9,5.5,2.7,8.5c0,0-0.4,2-0.7,4c-0.3,2.1-0.9,5.8-4.1,6.4
				c0,0-2.4,0.4-3.5-4.7c-1.1-5.1-0.5-8.3-0.4-9.5c0.1-1.3,0.5-5.9,1.9-8.4C917.3,86.6,918.6,83.9,918.8,84.8"/>
			<path class="lightgreen1" d="M913.9,104c0,0-0.5-8.8,0.1-12.2c0,0,1.1-4,2.2-6.4c0,0,1-2.5,0.6-4.3c0,0,1.2-1.1,2.2-2.9
				c1-1.8,1.2-2.6,2.2-4.2c1-1.6,3.3-5.2,3.3-7.1c0,0,2.3-2.1,3.7-3.9c1.4-1.8,3.5-3.7,4.8-4.7c1.4-1,1.1-1.2,1.1-1.2s0.5-2,4.8-4.3
				c4.3-2.3,7.1-3.1,9.3-4.5c2.2-1.4,9.5-6.9,15.5-9.7c6.1-2.8,11.6-5.3,17.6-7.1c6-1.9,12.4-3.6,18.8-5.3c0,0,1.4-0.5,2.7-1
				c1.3-0.4,10.9-2,14.4-1.9c0,0,2,0.1,2.5,0c0.5-0.1,6-1.2,16-1.3s17.4-0.2,22.7-0.2c0,0,4.8-0.2,7.6,0.1c2.9,0.4,4.3,0.4,6.3,0.2
				c2-0.1,2.9-0.2,4.9,0.5c2.1,0.6,3.2,0.5,4.1,0.5c0.9,0,5-0.3,6.9-0.2c1.9,0.1,6.4,0.9,8.2,0.9c1.8,0,3.1-0.2,5.2-0.7
				c2-0.4,4.4,0.3,4.4,0.3s2.5,0.1,7.5-0.4c5-0.5,5-0.3,15.8-2.6c10.8-2.3,11.1-2.6,13.9-3.7c2.8-1.1,13.9-7.5,17.2-10.1
				s9-7.6,14.3-15.5c5.3-7.9,9.2-17.8,9.5-20.2c0,0,0.2-0.5-0.7,0.8c-0.9,1.3-3.5,4.5-6.5,8.8c-3.1,4.3-11.3,15.9-19.1,22.2
				c0,0-6.2,4.4-14.5,7.6c-8.3,3.2-7.7,2.5-9.8,3.3c-2.1,0.7-5.7,1.6-8.5,1.5c-2.8-0.1-4.7-0.1-8.6,0.4c-3.9,0.5-4.8-0.6-8.1-0.4
				c-3.2,0.2-3,0.8-6,0.9c-3,0.1-4.9-0.5-9.6-0.7c-4.7-0.2-9.3-1.3-10.8-1.3c-1.4,0-2-0.6-8-0.4c-6.1,0.1-10.7,0.1-14.2,0.3
				c0,0-1.2,0-2.6-0.4c-1.4-0.4-0.9-1.3-15.2-0.6c-14.3,0.7-18.5,1-31,3.6c-12.5,2.7-19.7,4.7-21.6,5.4c-1.9,0.7-9.5,3.2-13,4
				c-3.5,0.7-6.6,1.7-9,3c-2.4,1.4-7.5,3.8-10.2,5.5c-2.6,1.6-5,3.3-6.5,4.3c-1.5,1.1-2.7,1.2-3.4,1.6c-0.7,0.3-2,1.4-2.9,2.4
				c-1,1-2.4,2.1-4.3,3.2c-1.8,1.1-4.3,2.8-5.9,4.5c-1.6,1.7-7.5,8-9.2,10.8c-1.7,2.8-3,3.3-4.3,5.7c-1.3,2.3-4.6,7.1-6.8,16.6
				c0,0-2.4,6.9-2.3,11.1c0,0,0,0,0.2,1.4c0.3,1.4,0.6,3.7,0.8,5C912.9,102.4,913.8,105.3,913.9,104"/>
			<path class="lightgreen1" d="M1154.3-0.8c0,0-10.1,9.9-33.7,11.5c0,0-9.3,0.2-12.1-0.3c-2.7-0.4-4.4-1.3-8.8-1.3c-4.3-0.1-6,0-7.9-0.3
				c-1.9-0.3-4.6-1.3-8.2-1.4c-3.7,0-10.9-1.1-12.7-1.4s-7.6-1.1-11.5-1.6c-4-0.5-9-0.8-10.4-1.1c-1.4-0.2-7-1.1-8.5-1.2
				c-1.5-0.1-1.7-0.5-4,0.1c-2.3,0.6-3.7,0-4.3,0c-0.6,0-1.7,0-3.1,0.4c-1.3,0.4-5.6,1.4-7.7,1.5c-2.1,0.1-8.3,0.1-11,2.1
				c0,0-0.7,0.8-1.4,1.1c-0.7,0.3-10.6,2.6-14.2,3.6c0,0-1.5,0.4-2.1,0.8c-0.6,0.4-1.8,0.7-2.8,0.6c-1-0.1-2.5-0.1-4.5,0.7
				c-2,0.8-4.2,1.2-8.6,3.2c-4.4,2-7.5,3.5-10.7,5c-3.2,1.5-5.1,2.2-6.2,3.4s-3,2.1-4.8,2.9c-1.7,0.8-4.8,2.6-7.1,4.3
				c-2.2,1.7-4.3,3-5.9,3.6c0,0-3.3,1.8-5.1,3.5c-1.7,1.6-5.8,5.3-6.3,5.4c0,0,1.1-2.5,2.5-4.4c1.4-1.9,4.6-6.3,8.3-9
				c0,0-0.1-0.3,1.6-0.7c1.6-0.4,5.3-2.9,6.9-4.2c1.6-1.3,5.7-4.7,9.1-6.5c3.3-1.8,13-7,15-7.9c2-1,6-3.1,9.5-4.2
				c3.5-1.1,4.7-1.4,7.4-2.6c2.7-1.2,8.8-3.9,18.6-6c9.8-2.1,19.5-1.2,19.5-1.2s8.8-0.1,10.3,0c1.4,0.1,2.2,0.4,3.2,0.5
				c1.1,0.1,9.8,0.5,13.9,0.9c4.2,0.4,12.4,1.1,14.6,1.4c2.2,0.3,7.9,0.4,11,0.8c3,0.4,6.6,1.7,9.6,1.9c3,0.3,8.5,0.7,11.3,1.6
				c0,0,0.3,0.3,2.1,0.3c1.8,0,9.7,0.3,11.9,0.3c2.2,0,3.1,0.7,4.5,0.5c1.4-0.3,3-1,5.1-0.8c2.1,0.2,1.7,0.2,3.8-0.2
				c2.1-0.3,17.9-4,22.9-5.4C1153.3-0.6,1154.4-1.1,1154.3-0.8"/>
			<path class="lightgreen1" d="M1164.6-5.5c0,0-3.3,3.4-6.9,6c0,0-0.7,0.5-1.1,1.2c-0.4,0.7-1.4,0.9-2.2,1.3c-0.8,0.4-2,0.5-3.9,2.2
				c-2,1.6-6.2,3.6-11,5.1c-4.7,1.5-11.2,3.5-14.9,3.5c-3.7,0-4.6-0.1-7.7,0.1c-3.1,0.2-6.9-0.6-7.9-0.7c0,0-2.7,0.8-4.5,1.1
				c-1.8,0.3-2.7,0.2-3.2,0c-0.6-0.2-1.7-0.9-3.1-0.5c-1.4,0.3-4.4,0.1-5.7-0.1c-1.3-0.2-8.8-1.8-12.5-1.8c-3.7,0-4.1,0.1-5.1,0.3
				c-1,0.2-2.7,0.3-3.9,0c-1.2-0.2-2.1-0.5-5.2-0.5c-3.1,0-12.8-0.7-14-0.6c-1.3,0-2.7-0.5-3.8-0.2c-1.1,0.3-1.2,0.6-3,0.5
				c-1.7-0.1-6.7-0.2-16.6,0.8c-9.9,1-12.7,1.5-16.9,2.7c0,0-6.4,1.4-9.7,2.3c-3.2,0.9-10.4,2.9-12,3.4c-1.6,0.5-10.1,3.4-12.3,3.8
				c-2.2,0.4-4.9,1.1-6.8,1.9c-1.9,0.8-8.4,3.2-17.6,9c-9.2,5.8-8,5.1-8,5.1s-2.2,1.4-3.1,2.5c-0.9,1.2-2.7,2.2-4,3.1
				c-1.3,0.8-4.6,3.5-5.3,4.4c-0.8,0.9-4.6,3.9-6.8,6.7c-2.2,2.9-6,8.7-7.2,10.4c-1.2,1.7-4,6.8-4.5,8.4c0,0-0.8,3-0.9,2.3
				c-0.1-0.7,0.1-1.9,0.8-3.7c0.7-1.7,1.9-5.9,3.6-8.9c1.6-2.9,5.6-10.4,9.9-15.3c4.3-4.9,8.9-9.2,15.3-13.4
				c6.4-4.2,6.2-4.3,11.1-6.9c4.9-2.7,8.6-5.2,9.5-5.7c0.9-0.5,10.1-5.1,14.5-6.8c4.4-1.7,8.9-3.3,13-4.2c4.1-0.9,11.4-2.7,14.6-3.5
				c3.2-0.9,4.6-1.7,6.4-2.3c1.8-0.7,4.4-1.3,7.5-1.6c3.1-0.3,7.3-0.8,10-1.6c2.7-0.8,3-0.5,3.8-0.2c0.8,0.3,0.9,0,1.4,0
				c0.5,0,6.2-1.2,18.2,0.9c0,0,8.4,1.2,12.3,1.2c0,0,1.2,0,2.2,0.3c1,0.3,5.5,1.7,10.1,1.9c4.6,0.2,8.3,0.4,13.1,1.2
				c4.8,0.9,7.5,1.5,10.2,1.4c2.6-0.1,6.5,0.1,8.4,1.1c0,0,1.4-0.1,2.1-0.2c0.7-0.1,7.1,0.1,9,0.7c0,0,2.3-0.3,3.7-0.6
				c1.4-0.3,10.8-2.2,12.8-2.7c2.1-0.4,8.2-2.5,10.8-3.9c2.6-1.3,8.4-5.1,9.8-6.2c1.4-1.1,5.2-4.1,6.3-5.2c1.1-1,1.7-1.7,1.6-0.9
				C1165-5.8,1164.6-5.5,1164.6-5.5"/>
			<path class="lightgreen1" d="M1168.3-14c0,0-8.5,5.9-14.8,8.8c0,0-2.3,1.4-6,1.9c-3.7,0.5-8.9,2.3-11.8,2.4c-2.9,0.1-6.1-0.3-7.4-0.6
				c-1.3-0.3-3.4,0-4.7,0.1c-1.3,0.1-9.8-1-14-1.2c-4.2-0.3-4.6-0.8-6.1-1.2c-1.5-0.4-9-2.2-12.6-2.5c-3.6-0.3-8.7-0.8-10.6-1.2
				c-1.9-0.4-7.6-1.9-15-2.6c-7.5-0.7-22.2-1.9-31-2.2c-8.9-0.3-11.4,0.1-13.3,0.5c-1.8,0.4-4.3,0.6-6.2,0.6c-2,0-3.3,0.2-4.7,0.8
				c-1.4,0.6-6.3,0.4-7.8,0.7c-1.6,0.3-10.2,3-15,4s-5.1,0.3-7.9,0.9c-2.8,0.6-8.1,4-10.3,5c-2.2,1-2.8,1.1-4.4,2
				c-1.6,0.9-3.9,3-5.9,3.5c-2,0.4-3-0.2-4.8,0.2c-1.7,0.4-8.8,5.1-12.9,10.1c0,0-3.8,3.9-5,5.1c-1.1,1.2-3.9,3.7-5.1,4.8
				c-1.2,1.1-2.4,3.5-3.4,5.1c-1,1.6-2.9,6-4.1,8.7c-1.2,2.8-3.3,6.3-4.7,10.2c-1.4,3.8-1.7,4.9-1.9,6.4c-0.2,1.5-0.8,3.5-1.4,4.8
				c-0.7,1.2-2.3,5-1.7,7.1c0,0,0.2,0.4,0.4-0.1c0.2-0.5,4.3-7.5,6.6-11.8c2.2-4.3,4.5-8.2,7.1-10.7c0,0,0.6-0.7,0.9-1.7
				c0.3-1,3.1-4.6,5.2-7.2c2.1-2.6,3-4.5,4.5-6c1.5-1.5,6.5-6.2,9.4-8.7c2.9-2.5,4.1-4.1,7-5.9c2.9-1.7,7.1-4.6,8.9-5.9
				c1.8-1.3,10-6.8,25.1-10c15-3.2,15-3.5,24.8-4.1c0,0,4.5,0.2,7.6-0.5c3-0.7,3.9-1.5,6.2-0.6c2.4,0.8,3.1,1.6,6.2,1.2
				c3.1-0.3,3.8-0.2,7.2,0.3c3.3,0.5,3.7,0.6,5.9,0.4c2.3-0.2,4.9,0,7,0.6c2.1,0.6,3.6,0.6,4.7,0.3c1.1-0.3,2.9-0.4,4.3-0.1
				c1.4,0.2,7.3,1.4,14.1,1.8c6.8,0.4,12.9,1.9,15.2,2.1s6.4,0.8,8.7,1.3c2.3,0.5,3.6,0.7,5.5,0.8c1.9,0.2,5,0.6,7.3,0.5
				c2.3-0.1,2.9,0.2,3.7,0.3c0.8,0.1,3.1,0,5.8-0.5c2.7-0.4,4.2-0.2,4.8-0.2c0.6,0,1.6,0,2-0.1c0.4,0,10.3-2.2,13.7-3.1
				c3.4-1,6.9-2.2,8.1-2.7c1.2-0.4,4-1.1,5.6-1.5c1.6-0.4,2.5-1.3,3.9-2.4c1.4-1,9.6-8.9,7.8-8.1L1168.3-14z"/>
		</g>
	</g>
</g>
    


	

	

	
	<g class="column1">
        
        
        <g class="row01">
			<g class="mask1" > 
                <g class="page1 delay01" >
                    <text x="0" y="0" >
                      <tspan x="0" y="2" class="st0 product" >Beef Burger</tspan>
                      <tspan x="658" y="4" class="st0 price" >$7.00</tspan>
                    </text>
                </g>                
			</g>	
			 <use xlink:href="#dotLine1" x="0" y="0" class="fadeOut"/>
		</g>
		
        <g class="row02">
			<g class="mask1" >
                <g class="page1 delay02" >
                    <text x="0" y="0" >
                      <tspan x="0" y="2" class="st0 product" >Steak Burger</tspan>
                      <tspan x="658" y="4" class="st0 price" >$8.50</tspan>
                    </text>
                </g>
                <g class="page2 delay02" >
                    <text x="0" y="0" >
                      <tspan x="0" y="2" class="st0 product" >Omelette </tspan>
                      <tspan x="658" y="4" class="st0 price" >$18.00</tspan>
                    </text>
                </g>
			</g>	
			<use xlink:href="#dotLine1" x="0" y="0"/>
		</g>
        
        <g class="row03">
			<g class="mask1" >
                <g class="page1 delay03" >
                    <text x="0" y="0" >
                      <tspan x="0" y="2" class="st0 product" >Works Burger</tspan>
                      <tspan x="658" y="4" class="st0 price" >$10.50</tspan>
                    </text>
                </g>
                <g class="page2 delay03" >
                    <text x="0" y="0" >
                      <tspan x="0" y="2" class="st0 product" >Sausage &#38; Eggs</tspan>
                      <tspan x="658" y="4" class="st0 price" >$17.00</tspan>
                    </text>			
                </g>
            </g>
			<use xlink:href="#dotLine1" x="0" y="0" />
		</g>
        
        <g class="row04">
			<g class="mask1" >
                <g class="page2 delay04" >
                    <text x="0" y="0" >
                      <tspan x="0" y="2" class="st0 product" >Bacon &#38; Eggs</tspan>
                      <tspan x="658" y="4" class="st0 price" >$17.00</tspan>
                    </text>
                </g>	
			</g>	
			<use xlink:href="#dotLine1" x="0" y="0" />
		</g>
        
        <g class="row05">
			<g class="mask1" >
                <g class="page1 delay05" >
                    <text x="0" y="0" >
                      <tspan x="0" y="2" class="st0 product" >Cheese &#38; Onion</tspan>
                      <tspan x="658" y="4" class="st0 price" >$5.50</tspan>
                    </text>
                </g>

			</g>	
			<use xlink:href="#dotLine1" x="0" y="0" class="fadeOut delay05"/>
		</g>
        
        <g class="row06">
			<g class="mask1" >
                <g class="page1 delay06" >
                    <text x="0" y="0" >
                      <tspan x="0" y="2" class="st0 product" >Ham &#38; Pineapple</tspan>
                      <tspan x="658" y="4" class="st0 price" >$6.50</tspan>
                    </text>
                </g>
                <g class="page2 delay06" >
                    <text x="0" y="0" >
                      <tspan x="0" y="2" class="st0 product" >Fish Meal</tspan>
                      <tspan x="658" y="4" class="st0 price" >$21.00</tspan>
                    </text>			
                </g>
            </g>
			<use xlink:href="#dotLine1" x="0" y="0" />
		</g>
        
        <g class="row07">
			<g class="mask1" >
                <g class="page1 delay07" >
                    <text x="0" y="0" >
                      <tspan x="0" y="2" class="st0 product" >Bacon &#38; Egg</tspan>
                      <tspan x="658" y="4" class="st0 price" >$7.00</tspan>
                    </text>
                </g>
                <g class="page2 delay07" >
                    <text x="0" y="0" >
                      <tspan x="0" y="2" class="st0 product" >Chiken Meal</tspan>
                      <tspan x="658" y="4" class="st0 price" >$21.00</tspan>
                    </text>			
                </g>
            </g>
			<use xlink:href="#dotLine1" x="0" y="0" />
		</g>
        
        <g class="row08">
			<g class="mask1" >
                <g class="page2 delay08" >
                    <text x="0" y="0" >
                      <tspan x="0" y="2" class="st0 product" >Steak Meal</tspan>
                      <tspan x="658" y="4" class="st0 price" >$24.00</tspan>
                    </text>			
                </g>
            </g>
			<use xlink:href="#dotLine1" x="0" y="0" />
		</g>
        
        <g class="row09">
			<g class="mask1" >
                <g class="page1 delay09" >
                    <text x="0" y="0" >
                      <tspan x="0" y="2" class="st0 product" >Chips</tspan>
                      <tspan x="658" y="4" class="st0 price" >$5.50</tspan>
                    </text>			
                </g>
            </g>
			<use xlink:href="#dotLine1" x="0" y="0" class="fadeOut delay07"/>
		</g>
        
        <g class="row10">
			<g class="mask1" >
                <g class="page1 delay10" >
                    <text x="0" y="0" >
                      <tspan x="0" y="2" class="st0 product" >Wedges</tspan>
                      <tspan x="658" y="4" class="st0 price" >$7.00</tspan>
                    </text>			
                </g>
            </g>
			<use xlink:href="#dotLine1" x="0" y="0" class="fadeOut delay08"/>
		</g>        
        
	</g>
    
    
    
    
		<g class="column2">
        
        
        <g class="row01">
			<g class="mask1" >
                <g class="page1 delay01" >
                    <text x="0" y="0" >
                      <tspan x="0" y="2" class="st0 product" >Fish Burger</tspan>
                      <tspan x="658" y="4" class="st0 price" >$8.50</tspan>
                    </text>
                </g>                
			</g>	
			 <use xlink:href="#dotLine1" x="0" y="0" class="fadeOut"/>
		</g>
		
        <g class="row02">
			<g class="mask1" >
                <g class="page1 delay02" >
                    <text x="0" y="0" >
                      <tspan x="0" y="2" class="st0 product" >Chicken Burger </tspan>
                      <tspan x="658" y="4" class="st0 price" >$8.50</tspan>
                    </text>
                </g>
                <g class="page2 delay02" >
                    <text x="0" y="0" >
                      <tspan x="0" y="2" class="st0 product" >Big Breakfast	</tspan>
                      <tspan x="658" y="4" class="st0 price" >$20.00</tspan>
                    </text>
                </g>
			</g>	
			<use xlink:href="#dotLine1" x="0" y="0"/>
		</g>
        
        <g class="row03">
			<g class="mask1" >
                <g class="page1 delay03" >
                    <text x="0" y="0" >
                      <tspan x="0" y="2" class="st0 product" >Veggie Burger</tspan>
                      <tspan x="658" y="4" class="st0 price" >$8.50</tspan>
                    </text>
                </g>
                <g class="page2 delay03" >
                    <text x="0" y="0" >
                      <tspan x="0" y="2" class="st0 product" >Egg Benedict</tspan>
                      <tspan x="658" y="4" class="st0 price" >$20.00</tspan>
                    </text>			
                </g>
            </g>
			<use xlink:href="#dotLine1" x="0" y="0" />
		</g>
        
        <g class="row04">
			<g class="mask1" >
                <g class="page2 delay04" >
                    <text x="0" y="0" >
                      <tspan x="0" y="2" class="st0 product" > </tspan>
                      <tspan x="658" y="4" class="st0 price" > </tspan>
                    </text>
                </g>	
			</g>	
			<use xlink:href="#dotLine1" x="0" y="0" />
		</g>
        
        <g class="row05">
			<g class="mask1" >
                <g class="page1 delay05" >
                    <text x="0" y="0" >
                      <tspan x="0" y="2" class="st0 product" >Steak &#38; Egg</tspan>
                      <tspan x="658" y="4" class="st0 price" >$7.00</tspan>
                    </text>
                </g>

			</g>	
			<use xlink:href="#dotLine1" x="0" y="0" class="fadeOut delay05"/>
		</g>
        
        <g class="row06">
			<g class="mask1" >
                <g class="page1 delay06" >
                    <text x="0" y="0" >
                      <tspan x="0" y="2" class="st0 product" >Steak &#38; Mushroom</tspan>
                      <tspan x="658" y="4" class="st0 price" >$7.00</tspan>
                    </text>
                </g>
                <g class="page2 delay06" >
                    <text x="0" y="0" >
                      <tspan x="0" y="2" class="st0 product" >Mixed Grill</tspan>
                      <tspan x="658" y="4" class="st0 price" >$25.00</tspan>
                    </text>			
                </g>
            </g>
			<use xlink:href="#dotLine1" x="0" y="0" />
		</g>
        
        <g class="row07">
			<g class="mask1" >
                <g class="page1 delay07" >
                    <text x="0" y="0" >
                      <tspan x="0" y="2" class="st0 product" >Extra Fillings</tspan>
                      <tspan x="658" y="4" class="st0 price" >$1.50</tspan>
                    </text>
                </g>
                <g class="page2 delay07" >
                    <text x="0" y="0" >
                      <tspan x="0" y="2" class="st0 product" >Seafood Basket</tspan>
                      <tspan x="658" y="4" class="st0 price" >$25.00</tspan>
                    </text>			
                </g>
            </g>
			<use xlink:href="#dotLine1" x="0" y="0" />
		</g>
        
        <g class="row08">
			<g class="mask1" >
                <g class="page2 delay08" >
                    <text x="0" y="0" >
                      <tspan x="0" y="2" class="st0 product" > </tspan>
                      <tspan x="658" y="4" class="st0 price" > </tspan>
                    </text>			
                </g>
            </g>
			<use xlink:href="#dotLine1" x="0" y="0" />
		</g>
        
        <g class="row09">
			<g class="mask1" >
                <g class="page1 delay09" >
                    <text x="0" y="0" >
                      <tspan x="0" y="2" class="st0 product" >Curly Fries</tspan>
                      <tspan x="658" y="4" class="st0 price" >$8.50</tspan>
                    </text>			
                </g>
            </g>
			<use xlink:href="#dotLine1" x="0" y="0" class="fadeOut delay07"/>
		</g>
        
        <g class="row10">
			<g class="mask1" >
                <g class="page1 delay10" >
                    <text x="0" y="0" >
                      <tspan x="0" y="2" class="st0 product" >Kumara Chips</tspan>
                      <tspan x="658" y="4" class="st0 price" >$8.50</tspan>
                    </text>			
                </g>
            </g>
			<use xlink:href="#dotLine1" x="0" y="0" class="fadeOut delay08"/>
		</g>        
        
        
	</g>
	
	
	
<g transform="translate(170,136)">
    <g class="animatedBlock">
        <use xlink:href="#shape1" />
        <g class="mask2">
            <g class="page1 delay00">
                <text x="790" y="40" class="st0 headline" >BURGERS</text>
            </g>
            <g class="page2 delay00">
                <text x="790" y="40" class="st0 headline" >BREAKFAST MEALS</text>
            </g>
        </g>
    </g>
</g>
    
<g transform="translate(170,438)">
    <g class="animatedBlock delay04">
        <use xlink:href="#shape1" />
        <g class="mask2">
            <g class="page1 delay04">
               <text x="790" y="40" class="st0 headline" >TOASTED SANDWICHES</text>
            </g>
            <g class="page2 delay05">
               <text x="790" y="40" class="st0 headline" >MAIN MEALS</text>
            </g>
        </g>
    </g>
</g>
    
<g transform="translate(170,740)">
    <g class="animatedBlock delay08">
        <use xlink:href="#shape1" />
        <g class="mask2">
            <g class="page1 delay08">
               <text x="790" y="40" class="st0 headline" >FRIES</text>
            </g>
        </g>
    </g>
</g>    
    
	
</svg>
