<?xml version="1.0" encoding="utf-8"?>
<!-- Generator: Adobe Illustrator 22.1.0, SVG Export Plug-In . SVG Version: 6.00 Build 0)  -->
<svg version="1.1" id="Layer_1" xmlns="http://www.w3.org/2000/svg" xmlns:xlink="http://www.w3.org/1999/xlink" x="0px" y="0px"
	 viewBox="0 0 130 140" style="enable-background:new 0 0 130 140;" xml:space="preserve">
<style type="text/css">
	.st0{fill:#FFFFFF;}
	.st1{fill:#76777A;}
	.st2{fill:#011E41;}
</style>
<title>Audio Pilot Logo</title>
<g id="Layer_1-2">
	<g id="ap-logo-backgr">
		<rect class="st0" width="130" height="140"/>
	</g>
</g>
<g id="ap-logo-blue">
	<path class="st1" d="M10.41,132.85c-2.01,0.06-3.95-0.76-5.32-2.23c-1.44-1.4-2.24-3.32-2.23-5.32c-0.03-2,0.78-3.92,2.23-5.3
		c1.4-1.44,3.32-2.24,5.32-2.23c2.01-0.06,3.95,0.76,5.32,2.23c1.45,1.38,2.27,3.3,2.27,5.3v5.52c0,1.12-0.91,2.04-2.03,2.04
		s-2.03-0.91-2.03-2.04v-5.52c0-0.95-0.38-1.86-1.06-2.52c-1.4-1.38-3.66-1.36-5.03,0.05s-1.36,3.66,0.05,5.03
		c0.66,0.65,1.54,1.01,2.47,1.02c0.54-0.02,1.07,0.19,1.45,0.58c0.39,0.38,0.6,0.91,0.59,1.45c0.01,0.55-0.2,1.07-0.59,1.46
		C11.42,132.71,10.92,132.88,10.41,132.85z"/>
	<path class="st1" d="M23.38,119.69v6.58c-0.03,0.65,0.22,1.28,0.68,1.74c0.46,0.46,1.09,0.7,1.74,0.68
		c0.63,0.04,1.24-0.21,1.65-0.68c0.46-0.46,0.7-1.09,0.67-1.74v-6.68c0-1.1,0.9-2,2-2c0.54-0.01,1.07,0.2,1.45,0.58
		c0.38,0.38,0.59,0.91,0.58,1.45v6.68c0.06,3.47-2.71,6.33-6.19,6.39c-0.07,0-0.13,0-0.2,0c-1.71,0.08-3.37-0.6-4.55-1.84
		c-1.21-1.2-1.88-2.85-1.84-4.55v-6.58c0-1.1,0.9-2,2-2c0.55-0.01,1.07,0.2,1.46,0.58C23.16,118.69,23.35,119.18,23.38,119.69z"/>
	<path class="st1" d="M41.19,121.62c-1.97,0.01-3.55,1.61-3.54,3.58c0.01,1.97,1.61,3.55,3.58,3.54c1.95-0.01,3.53-1.59,3.54-3.54
		v-11.52c-0.01-0.54,0.2-1.07,0.58-1.45c0.38-0.38,0.91-0.59,1.45-0.58c0.55-0.01,1.07,0.2,1.46,0.58c0.38,0.38,0.59,0.91,0.58,1.45
		v11.52c0.04,2.01-0.77,3.95-2.23,5.33c-1.43,1.39-3.33,2.19-5.32,2.22c-1.99,0.02-3.91-0.78-5.29-2.22
		c-1.43-1.4-2.23-3.33-2.22-5.33c-0.05-2.01,0.76-3.94,2.22-5.32c1.4-1.43,3.32-2.24,5.33-2.23c1.1,0,2,0.9,2,2
		c0.01,0.54-0.2,1.07-0.58,1.45C42.29,121.42,41.75,121.6,41.19,121.62z"/>
	<path class="st1" d="M54.06,112.14c0.96,0.86,1.05,2.33,0.19,3.29c-0.06,0.07-0.12,0.13-0.19,0.19c-0.87,0.96-2.36,1.03-3.32,0.16
		c-0.06-0.05-0.11-0.1-0.16-0.16c-0.49-0.45-0.77-1.08-0.78-1.74c-0.03-0.67,0.26-1.32,0.78-1.74c0.86-0.96,2.33-1.05,3.29-0.19
		C53.94,112.01,54,112.07,54.06,112.14z M54.35,119.69c0.12-0.99-0.59-1.88-1.57-2c-0.14-0.02-0.28-0.02-0.43,0c-1.1,0-2,0.9-2,2
		v11.13c0,1.12,0.91,2.03,2.03,2.03c1.12,0,2.03-0.91,2.03-2.03L54.35,119.69z"/>
	<path class="st1" d="M63.45,117.65c2.01-0.05,3.94,0.76,5.32,2.23c1.44,1.4,2.24,3.32,2.23,5.32c0.05,2.01-0.76,3.95-2.23,5.33
		c-1.4,1.43-3.32,2.23-5.32,2.22c-2.01,0.05-3.94-0.76-5.32-2.22c-1.4-1.43-2.2-3.33-2.23-5.33c-0.03-2.01,0.78-3.93,2.23-5.32
		C59.51,118.41,61.44,117.6,63.45,117.65z M63.45,121.72c-1.98-0.01-3.59,1.58-3.6,3.56c-0.01,1.98,1.58,3.59,3.56,3.6
		c0.96,0.01,1.89-0.38,2.57-1.06c1.38-1.38,1.38-3.61,0.01-4.99c0,0-0.01-0.01-0.01-0.01C65.34,122.09,64.41,121.69,63.45,121.72z"
		/>
	<path class="st2" d="M80.1,128.78c0.95,0,1.86-0.38,2.52-1.06c1.38-1.4,1.36-3.66-0.05-5.03s-3.66-1.36-5.03,0.05
		c-0.65,0.66-1.01,1.54-1.02,2.47v11.52c0.01,0.54-0.2,1.07-0.58,1.45c-0.82,0.77-2.09,0.77-2.91,0c-0.38-0.38-0.59-0.91-0.58-1.45
		V125.2c-0.05-2.01,0.76-3.94,2.23-5.32c1.4-1.43,3.32-2.24,5.32-2.23c2.01-0.04,3.95,0.77,5.33,2.23c1.43,1.4,2.23,3.32,2.22,5.32
		c0.05,2.01-0.76,3.95-2.22,5.33c-1.4,1.43-3.33,2.23-5.33,2.22c-1.13-0.01-2.04-0.94-2.03-2.07c0-0.53,0.21-1.03,0.58-1.41
		C79,128.94,79.54,128.76,80.1,128.78z"/>
	<path class="st2" d="M92.88,112.14c0.48,0.45,0.76,1.08,0.77,1.74c0.04,0.67-0.25,1.32-0.77,1.74c-0.88,0.96-2.37,1.03-3.33,0.16
		c-0.05-0.05-0.11-0.1-0.16-0.16c-1.03-0.9-1.13-2.46-0.23-3.49c0.9-1.03,2.46-1.13,3.49-0.23
		C92.73,111.98,92.81,112.06,92.88,112.14z M93.17,119.69c0.12-0.99-0.59-1.88-1.57-2c-0.14-0.02-0.28-0.02-0.43,0c-1.1,0-2,0.9-2,2
		v11.13c0,1.1,0.9,2,2,2s2-0.9,2-2V119.69z"/>
	<path class="st2" d="M98.68,113.68v17c0,1.12-0.91,2.03-2.03,2.03s-2.03-0.91-2.03-2.03v-17c-0.01-0.54,0.2-1.07,0.58-1.45
		c0.38-0.38,0.91-0.59,1.45-0.58C98,111.75,98.68,112.33,98.68,113.68z"/>
	<path class="st2" d="M107.78,117.65c2.01-0.04,3.95,0.77,5.33,2.23c1.43,1.4,2.23,3.32,2.22,5.32c0.05,2.01-0.76,3.95-2.22,5.33
		c-1.43,1.39-3.34,2.18-5.33,2.22c-2,0.03-3.93-0.77-5.32-2.22c-1.4-1.43-2.2-3.33-2.23-5.33
		C100.26,121.04,103.62,117.68,107.78,117.65z M107.78,121.72c-1.98,0-3.58,1.6-3.58,3.58s1.6,3.58,3.58,3.58
		c0.95,0,1.86-0.38,2.52-1.06c1.38-1.38,1.38-3.61,0.01-4.99c0,0-0.01-0.01-0.01-0.01C109.67,122.09,108.74,121.69,107.78,121.72z"
		/>
	<path class="st2" d="M129.66,126.36c0.06,3.47-2.71,6.33-6.19,6.39c-0.07,0-0.13,0-0.2,0c-1.71,0.08-3.37-0.6-4.55-1.84
		c-1.22-1.2-1.88-2.84-1.84-4.55V116.2c0-1.12,0.91-2.04,2.04-2.04c1.12,0,2.03,0.91,2.03,2.04v1.55h6.67c1.1,0,2,0.9,2,2
		c0.12,0.99-0.59,1.88-1.57,2c-0.14,0.02-0.28,0.02-0.43,0H121v4.54c-0.07,1.27,0.9,2.35,2.17,2.42c0.08,0,0.16,0,0.25,0
		c0.62,0.04,1.23-0.2,1.64-0.67c0.46-0.46,0.7-1.1,0.68-1.75v-0.19c0-1.12,0.91-2.03,2.03-2.03s2.03,0.91,2.03,2.03l-0.09,0.19
		L129.66,126.36z"/>
	<path class="st2" d="M65.1,14c-28.56,0.48-35,25.94-35.53,29.13h-4.93c0,0,4.84-33.79,40.65-33.79L65.1,14z"/>
	<path class="st2" d="M65,14c28.55,0.48,35.33,25.94,35.81,29.13h4.94c0,0-4.84-33.79-40.65-33.79L65,14z"/>
	<path class="st2" d="M21.64,45.93c0-1.93-0.2-3.48,3.39-3.48h3.09c3.2,0,3.39,1.55,3.39,3.48v42.69c0,1.93-0.19,3.48-3.39,3.48H25
		c-3.68,0-3.39-1.55-3.39-3.48L21.64,45.93z"/>
	<path class="st2" d="M97.13,50.87C96.84,47.09,93.55,47,92.2,46C71.1,32.09,71.48,28.41,65.48,28.12h-1c-6,0.29-5.62,4.07-26.62,18
		c-1.36,1-4.74,1.17-4.94,4.84c0.2,4,4.65,4.55,7.94,4.46c-1.98,3.83-3.01,8.08-3,12.39c0.1,14.97,12.31,27.02,27.28,26.92
		s27.02-12.31,26.92-27.28c-0.03-4.22-1.04-8.38-2.96-12.14C92.78,55.13,96.94,54.26,97.13,50.87z M56,69.84
		c-2.89,0-5.23-2.34-5.23-5.23c0-2.89,2.34-5.23,5.23-5.23c2.89,0,5.23,2.34,5.23,5.23c0.02,2.87-2.3,5.21-5.17,5.23
		C56.04,69.84,56.02,69.84,56,69.84z M74.39,69.84c-2.89,0-5.23-2.34-5.23-5.23s2.34-5.23,5.23-5.23c2.89,0,5.23,2.34,5.23,5.23
		c0.02,2.87-2.3,5.21-5.17,5.23C74.43,69.84,74.41,69.84,74.39,69.84z M76.61,48.54h-3.09L72.16,50h-3.09
		c-0.82,1.44-2.35,2.33-4,2.32c-1.64-0.04-3.15-0.91-4-2.32H58l-1.26-1.46h-3.06l-3.49-4.16h12.1c0.83-0.65,1.85-1.02,2.9-1.06
		c1.06,0.02,2.08,0.4,2.91,1.06h12.19L76.61,48.54z"/>
	<path class="st2" d="M108.56,45.93c0-1.93,0.19-3.48-3.39-3.48h-3.1c-3.19,0-3.39,1.55-3.39,3.48v42.69c0,1.93,0.2,3.48,3.39,3.48
		h3.1c3.68,0,3.39-1.55,3.39-3.48V45.93z"/>
	<path class="st2" d="M18.25,45.45C6.14,47.92-1.67,59.73,0.79,71.83c1.79,8.79,8.66,15.66,17.46,17.46V45.45z"/>
	<path class="st2" d="M111.85,89.2c12.08-2.45,19.89-14.23,17.44-26.31c-1.78-8.79-8.65-15.66-17.44-17.44V89.2z"/>
</g>
<path class="st2" d="M34.51,19.51C51.67,2.94,78.89,2.98,96,19.6l-2.9,3.88c0,0-11.74-9.65-28.1-9.65
	c-9.99,0.11-19.67,3.46-27.59,9.55L34.51,19.51z"/>
</svg>
