<?xml version="1.0" encoding="utf-8"?>
<!-- Generator: Adobe Illustrator 22.1.0, SVG Export Plug-In . SVG Version: 6.00 Build 0)  -->
<svg version="1.1" id="Layer_1" xmlns="http://www.w3.org/2000/svg" xmlns:xlink="http://www.w3.org/1999/xlink" x="0px" y="0px"
	 viewBox="0 0 200 140" style="enable-background:new 0 0 200 140;" xml:space="preserve">
<style type="text/css">
	.st0{fill:#FFFFFF;}
	.st1{fill:#6CB33F;}
	.st2{fill:#00703C;}
</style>
<g id="s-logo-backgr">
	<rect class="st0" width="200" height="140"/>
</g>
<g id="s-logo-green">
	<g>
		<g>
			<g>
				<path class="st1" d="M12.8,123.5c-1.6-0.8-3.3-1.3-5-1.3c-1.1,0-2,0.1-2.6,0.4s-0.9,0.6-0.9,1.1s0.3,0.8,1,1.1
					c0.5,0.2,1.2,0.3,2.2,0.3c1.5,0.1,2.5,0.2,3,0.2c1.4,0.2,2.4,0.5,3.1,1c0.7,0.5,1,1.2,1,2.1c0,1.2-0.5,2.1-1.6,2.7
					c-1,0.7-2.5,0.9-4.5,0.9c-2.8,0-5-0.6-6.6-1.8l1-1.3c1.7,1.1,3.6,1.6,5.6,1.6c1.3,0,2.3-0.2,3-0.5s1-0.8,1-1.4
					c0-0.7-0.5-1.2-1.3-1.4c-0.5-0.1-1.7-0.2-3.8-0.4c-1.8-0.1-3.1-0.4-3.8-0.7c-0.9-0.4-1.3-1.1-1.3-2.2s0.5-1.8,1.5-2.4
					s2.3-0.9,4.1-0.9c2.4,0,4.4,0.6,6,1.6L12.8,123.5z"/>
				<path class="st1" d="M29.8,128.4c0,1.1-0.6,2.1-1.7,2.8s-2.6,1.1-4.6,1.1s-3.4-0.4-4.6-1.1c-1.1-0.7-1.7-1.6-1.7-2.8v-7.5H19v7
					c0,0.9,0.4,1.5,1.1,2c0.8,0.5,1.8,0.7,3.3,0.7s2.5-0.2,3.3-0.7s1.1-1.1,1.1-2v-7h1.8L29.8,128.4L29.8,128.4z"/>
				<path class="st1" d="M46,132h-2.1l-3-4.2h-5.6v4.2h-1.8v-11h8.7c1.1,0,2.1,0.3,2.7,0.9c0.7,0.6,1,1.5,1,2.5
					c0,0.9-0.3,1.7-0.8,2.3c-0.5,0.5-1.2,0.9-2.1,1L46,132z M41.9,126.1c1.4,0,2.1-0.6,2.1-1.7c0-1.2-0.8-1.8-2.3-1.8h-6.4v3.5H41.9
					L41.9,126.1z"/>
				<path class="st1" d="M61.4,132h-2.1l-3-4.2h-5.6v4.2h-1.8v-11h8.7c1.1,0,2.1,0.3,2.7,0.9c0.7,0.6,1,1.5,1,2.5
					c0,0.9-0.3,1.7-0.8,2.3c-0.5,0.5-1.2,0.9-2.1,1L61.4,132z M57.3,126.1c1.4,0,2.1-0.6,2.1-1.7c0-1.2-0.8-1.8-2.3-1.8h-6.4v3.5
					H57.3L57.3,126.1z"/>
				<path class="st1" d="M77.9,126.4c0,1.8-0.7,3.3-2.2,4.4c-1.3,1-2.9,1.5-4.8,1.5c-2,0-3.6-0.5-4.9-1.5c-1.5-1.1-2.2-2.6-2.2-4.4
					c0-1.8,0.8-3.2,2.3-4.4c1.3-1,2.9-1.5,4.8-1.5s3.5,0.5,4.8,1.5C77.1,123.2,77.9,124.7,77.9,126.4z M76,126.4
					c0-1.3-0.6-2.3-1.6-3.1c-0.9-0.7-2.1-1-3.5-1c-1.5,0-2.8,0.4-3.8,1.2c-1,0.8-1.5,1.8-1.5,3c0,1.3,0.5,2.3,1.4,3
					c0.9,0.8,2.2,1.1,3.8,1.1c1.6,0,2.8-0.4,3.8-1.2C75.5,128.7,76,127.7,76,126.4z"/>
				<path class="st1" d="M93.4,128.4c0,1.1-0.6,2.1-1.7,2.8s-2.6,1.1-4.6,1.1c-1.9,0-3.4-0.4-4.6-1.1c-1.1-0.7-1.7-1.6-1.7-2.8v-7.5
					h1.8v7c0,0.9,0.4,1.5,1.1,2c0.8,0.5,1.8,0.7,3.3,0.7c1.4,0,2.5-0.2,3.3-0.7c0.7-0.5,1.1-1.1,1.1-2v-7h1.8L93.4,128.4L93.4,128.4
					z"/>
				<path class="st1" d="M109.6,132h-2.3l-8.4-9.1v9.1h-1.8v-11h2.3l8.4,9.1V121h1.8V132L109.6,132z"/>
				<path class="st1" d="M120.3,120.9c1.9,0,3.4,0.5,4.6,1.5c1.1,1,1.7,2.4,1.7,4.1c0,1.6-0.6,2.9-1.8,3.9c-1.1,1-2.5,1.5-4.1,1.5
					h-7.4v-11L120.3,120.9L120.3,120.9z M120.8,130.3c1.1,0,2-0.3,2.7-1s1-1.6,1-2.8s-0.4-2.1-1.1-2.9c-0.8-0.7-1.8-1.1-3-1.1h-5.3
					v7.7h5.7C120.8,130.2,120.8,130.3,120.8,130.3z"/>
				<path class="st2" d="M144.8,132H143v-9l0,0l-5.7,7.2l-5.7-7.2l0,0v9h-1.8v-11h2.3l5.3,6.7l5.3-6.7h2.3L144.8,132L144.8,132z"/>
				<path class="st2" d="M160.1,132h-11.6v-11h11.2v1.7h-9.3v2.8h6.5v1.7h-6.5v3.3h9.8L160.1,132L160.1,132z"/>
				<path class="st2" d="M169.8,120.9c1.9,0,3.4,0.5,4.6,1.5c1.1,1,1.7,2.4,1.7,4.1c0,1.6-0.6,2.9-1.8,3.9c-1.1,1-2.5,1.5-4.1,1.5
					h-7.4v-11L169.8,120.9L169.8,120.9z M170.3,130.3c1.1,0,2-0.3,2.7-1s1-1.6,1-2.8s-0.4-2.1-1.1-2.9c-0.8-0.7-1.7-1.1-3-1.1h-5.3
					v7.7h5.7L170.3,130.3L170.3,130.3z"/>
				<path class="st2" d="M180.9,132h-1.8v-11h1.8V132z"/>
				<path class="st2" d="M197,132h-2l-1.3-2.5h-7.5l-1.3,2.5h-2l5.9-11h2.3L197,132z M192.8,127.9l-2.8-5.4l-2.9,5.4H192.8z"/>
			</g>
		</g>
	</g>
	<g>
		<path class="st1" d="M39.7,57.8c0-8.2,1.6-15.9,4.4-23.1c1.5-3.7,3.3-7.2,5.4-10.6H38.2c-1.7,3.3-3.3,6.8-4.5,10.3
			c-2.5,7.4-3.9,15.2-3.9,23.4c0,4.6,0.4,9.1,1.3,13.4c1.4,7.2,3.8,14,7.1,20.2h11.5c-3.9-6-6.8-12.7-8.4-19.9
			C40.3,67.3,39.7,62.6,39.7,57.8 M170.1,34.9c-1.3-3.7-2.8-7.3-4.6-10.7h-11c3.9,6,6.7,12.7,8.4,19.9c1,4.4,1.5,9,1.5,13.7
			c0,4.8-0.5,9.5-1.6,14c-1.6,7.1-4.5,13.8-8.4,19.8h11.2c3.3-6.2,5.7-12.8,7-19.9c0.9-4.5,1.3-9.1,1.3-13.8
			C173.9,49.9,172.5,42.1,170.1,34.9"/>
		<path class="st1" d="M82.7,51.6c1.3-4,3.8-7.4,7.1-9.9c3.3-2.5,7.5-3.9,12-3.9c2.2,0,4.4,0.3,6.4,1c3,1,5.7,2.7,7.9,4.9l9.5-9.5
			c-2.4-2.4-5.2-4.5-8.2-6.1c-4.7-2.4-10-3.8-15.6-3.8c-4.3,0-8.3,0.8-12.1,2.2c-3.4,1.3-6.6,3.2-9.4,5.5c-3.9,3.2-7,7.3-9.1,11.9
			c-1.9,4.3-3,9-3,13.9c0,2.4,0.3,4.7,0.8,7h14l0,0h37.8c-0.9,2.5-2.3,4.8-4.1,6.7c-3.7,4-9,6.4-14.8,6.4c-5.6,0-10.8-2.3-14.4-6.1
			L78,81.3c3.3,3.3,7.3,6,11.7,7.8c3.8,1.5,7.9,2.3,12.2,2.3c5.8,0,11.3-1.5,16-4.1c6.4-3.5,11.5-9,14.5-15.6c1.9-4.2,3-9,3-13.9
			c0-2.2-0.2-4.3-0.6-6.3L82.7,51.6L82.7,51.6z"/>
		<path class="st1" d="M148.5,35c-3.6-7.3-8.8-13.6-15.2-18.5c-7.2-5.5-15.8-9.1-25.2-10.2l0,0c-0.6,9.6,6.4,12.2,6.4,12.2h-0.3
			c4.8,1.5,9.3,3.9,13.2,6.9c3.3,2.6,6.3,5.8,8.7,9.3c1.9,2.9,3.5,6,4.7,9.3c1.6,4.4,2.4,9,2.4,13.9c0,4.8-0.8,9.4-2.3,13.7
			c-2.6,7.4-7.2,13.8-13.2,18.6c-4.1,3.2-8.8,5.7-13.9,7.3c-1.8,1-6,4.2-5.6,11.8c0,0.1,0,0.2,0,0.2c9.3-1.1,17.9-4.7,25.1-10.1
			c6.4-4.9,11.7-11.2,15.4-18.5c3.4-6.9,5.3-14.7,5.3-23C153.8,49.7,151.9,42,148.5,35 M90.4,97.6c-5.2-1.5-10-4-14.1-7.3
			C70.2,85.5,65.6,79,63,71.6c-1.5-4.3-2.3-8.9-2.3-13.6c0-4.8,0.8-9.5,2.4-13.8c1.2-3.3,2.8-6.4,4.7-9.3c2.4-3.5,5.3-6.6,8.6-9.2
			c3.9-3.1,8.4-5.5,13.3-7.1h-0.1c0,0,6.9-2.6,6.3-12.2V6.3c-9.1,1-17.4,4.4-24.5,9.5C64.7,20.6,59.3,27,55.5,34.4
			c-3.6,7-5.6,15-5.6,23.5c0,8.3,1.9,16.1,5.4,23c3.7,7.4,9.1,13.8,15.6,18.7c7.1,5.3,15.6,8.8,24.9,9.9c0-0.1,0-0.2,0-0.3
			C96.3,102,92.3,98.7,90.4,97.6"/>
	</g>
</g>
</svg>
