<?xml version="1.0" encoding="utf-8"?>
<!-- Generator: Adobe Illustrator 19.2.1, SVG Export Plug-In . SVG Version: 6.00 Build 0)  -->
<svg version="1.1" id="Layer_1" xmlns="http://www.w3.org/2000/svg" xmlns:xlink="http://www.w3.org/1999/xlink" x="0px" y="0px"
	 viewBox="0 0 462 342" style="enable-background:new 0 0 462 342;" xml:space="preserve">
<style type="text/css">
	.st0{fill:#8ADB18;}
</style>
<g>
	<path class="st0" d="M55.2,174c0-23.4,4.5-45.7,12.7-66.2c4.2-10.6,9.5-20.8,15.6-30.3H50.9c-5,9.5-9.4,19.4-12.9,29.7
		c-7.2,21.1-11.2,43.7-11.2,67.2c0,13.2,1.2,26,3.6,38.5c3.9,20.6,10.8,40.1,20.4,58.1h33.1c-11.2-17.3-19.5-36.5-24.2-57.2
		C56.8,201.1,55.2,187.7,55.2,174 M429.3,108.2c-3.6-10.6-8.1-20.9-13.3-30.6h-31.7c11.1,17.2,19.3,36.5,24,57.2
		c2.9,12.7,4.3,25.8,4.3,39.3c0,13.9-1.5,27.3-4.5,40.3c-4.7,20.5-13,39.7-24.1,56.8h32.2c9.4-17.7,16.3-36.8,20.2-57.1
		c2.5-12.8,3.8-26,3.8-39.5C440.1,151.3,436.3,129,429.3,108.2"/>
	<path class="st0" d="M178.6,156.2c3.8-11.4,11-21.3,20.5-28.3c9.6-7.1,21.5-11.3,34.4-11.3c6.4,0,12.6,1,18.3,3
		c8.7,2.9,16.5,7.8,22.8,14.2l27.2-27.2c-6.9-7-14.8-12.9-23.6-17.5c-13.4-7-28.6-11-44.8-11c-12.2,0-23.9,2.3-34.6,6.4
		c-9.9,3.8-19,9.2-27,15.9c-11.1,9.2-20,20.9-26.1,34.1c-5.5,12.2-8.6,25.7-8.6,39.9c0,6.9,0.8,13.6,2.2,20.1h40c0,0,0,0,0-0.1
		h108.4c-2.7,7.2-6.6,13.7-11.8,19.2c-10.6,11.4-25.7,18.5-42.5,18.5c-16.2,0-30.9-6.7-41.4-17.5L164.9,242
		c9.5,9.6,20.9,17.3,33.7,22.3c10.8,4.2,22.6,6.5,34.9,6.5c16.7,0,32.4-4.2,46-11.7c18.3-10,33-25.7,41.7-44.7
		c5.5-12.1,8.6-25.7,8.6-39.9c0-6.2-0.6-12.3-1.8-18.2L178.6,156.2L178.6,156.2z"/>
	<path class="st0" d="M367.3,108.6c-10.3-20.9-25.3-39-43.7-53c-20.6-15.7-45.4-26.1-72.4-29.3v0.1c-1.6,27.5,18.3,35,18.3,35
		l-0.9-0.1c13.9,4.3,26.6,11.1,37.8,19.8c9.6,7.6,18.1,16.6,25,26.7c5.5,8.2,10.1,17.1,13.5,26.6c4.5,12.5,6.9,25.9,6.9,39.9
		c0,13.8-2.4,27-6.7,39.3c-7.5,21.2-20.8,39.6-37.9,53.3c-11.7,9.3-25.3,16.5-40,20.9c-5.1,2.9-17.2,12.1-16,33.9c0,0.3,0,0.5,0,0.7
		c26.8-3.2,51.4-13.5,71.9-28.9c18.5-14,33.7-32.2,44.1-53.2c9.8-19.9,15.3-42.2,15.3-65.9C382.6,150.8,377.1,128.5,367.3,108.6
		 M200.6,288.2c-15-4.3-28.7-11.5-40.6-20.9c-17.4-13.8-30.8-32.4-38.3-53.8c-4.3-12.2-6.6-25.4-6.6-39c0-13.9,2.4-27.2,6.8-39.6
		c3.4-9.5,7.9-18.4,13.4-26.6c6.8-10.1,15.1-19,24.6-26.5c11.3-9,24.2-15.9,38.2-20.3h-0.2c0,0,19.9-7.5,18.2-35v-0.2
		c-26,3-50,12.7-70.2,27.4c-19.1,13.9-34.8,32.2-45.5,53.4c-10.3,20.2-16,43.1-16,67.3c0,23.7,5.5,46.2,15.4,66.1
		c10.5,21.3,26,39.6,44.8,53.7c20.5,15.2,44.9,25.3,71.5,28.3c0-0.3,0-0.5,0-0.8C217.4,300.7,206,291.4,200.6,288.2"/>
</g>
</svg>
